<?xml version="1.0" encoding="utf-8" ?>
<svg baseProfile="full" height="200mm" version="1.1" viewBox="0,0,200,200" width="200mm" xmlns="http://www.w3.org/2000/svg" xmlns:ev="http://www.w3.org/2001/xml-events" xmlns:xlink="http://www.w3.org/1999/xlink"><defs /><rect fill="#1a1a1a" height="200" width="200" x="0" y="0" /><rect fill="#1a1a1a" height="200" width="180" x="10" y="0" /><text alignment-baseline="middle" fill="#e1ed5e" style="dominant-baseline: central; font-size:9.0px; font-family:Arial;" text-anchor="middle" x="100.0" y="100.0">2026</text><line stroke="#e1ed5e" stroke-width="0.3" x1="100.0" x2="100.0" y1="15.0" y2="10.0" /><path d="M 100.0 14.0 a86.0,86.0 0 0,1 42.46469731375804,11.215312516191453" fill="none" id="id109" stroke="none" /><text fill="#e1ed5e" style="font-size:6.75px; font-family:Arial;" text-anchor="middle"><textPath startOffset="22.20632615414155" xlink:href="#id109">January</textPath></text><path d="M 101.08401301168833 79.027996857942 l 1.3444934217115039 -26.011422335875952 a47.04614663431679,47.04614663431679 0 0,0 0.8083826267389552,0.04876384764208987 l -1.792038097290071 25.98442521885356" fill="#dbff1b" stroke="none" /><path d="M 101.44485096284872 79.0497635885617 l 1.8980976274039858 -27.522280877814854 a48.58765519794116,48.58765519794116 0 0,0 0.833879409962754,0.06472509119236633 l -2.371567226729081 27.485530524434026" fill="#c7ff1e" stroke="none" /><path d="M 101.80526077348638 79.07773832637324 l 1.4120351915038125 -16.364931982628825 a37.425737188269906,37.425737188269906 0 0,0 0.6413610673420264,0.060904961406055676 l -1.693521385936083 16.33820147670759" fill="#ffa20f" stroke="none" /><path d="M 102.16513564639614 79.11191278185805 l 3.229987805629592 -31.161219441297707 a52.32817291661335,52.32817291661335 0 0,0 0.8951439074356251,0.10057984792402985 l -3.765898416574942 31.101003639903077" fill="#9aff23" stroke="none" /><path d="M 102.52436894288641 79.15227682838746 l 1.5411998736561816 -12.728134850751939 a33.821104235965166,33.821104235965166 0 0,0 0.577350844485448,0.07495670969439705 l -1.7600654466494756 12.699719817893405" fill="#ff6e0a" stroke="none" /><path d="M 103.2404852339499 79.25152402106235 l 4.13109697091415 -26.450966469362843 a47.771619102072506,47.771619102072506 0 0,0 0.8113686337698798,0.13388277664675138 l -4.585794810822906 26.375937429776467" fill="#d2ff1c" stroke="none" /><path d="M 103.95276090670814 79.375362276772 l 7.065660631891334 -36.86706437536459 a58.53803398983937,58.53803398983937 0 0,0 0.9879926461787727,0.1981820302712139 l -7.699219687537232 36.739978389016166" fill="#53ff2b" stroke="none" /><path d="M 104.307194497241 79.44645832069477 l 4.623140348528759 -22.061206640106526 a43.540414040111926,43.540414040111926 0 0,0 0.7322197148396863,0.16003486910541354 l -5.0022027875219734 21.978358272905243" fill="#fff617" stroke="none" /><path d="M 104.66035177308747 79.52364482259891 l 6.327659615482488 -27.802065602974526 a49.51305188859143,49.51305188859143 0 0,0 0.8294056590762835,0.19629352248126286 l -6.805288961521295 27.68902616835239" fill="#bcff1f" stroke="none" /><path d="M 105.01212808612495 79.60689891045804 l 3.3195231268545795 -13.50631299356028 a34.90826101530086,34.90826101530086 0 0,0 0.582288264053474,0.14843824369626105 l -3.5515202795930785 13.447171753695152" fill="#ff7e0b" stroke="none" /><path d="M 105.71112130821622 79.79150937346287 l 14.09234574913935 -49.864995262436686 a72.81806597352046,72.81806597352046 0 0,0 1.2032657723463074,0.3512662746678914 l -14.948601739209085 49.61503065885009" fill="#3effb6" stroke="none" /><path d="M 106.0581310904928 79.89281104454417 l 4.608774389121893 -15.296713806765998 a36.975927348856196,36.975927348856196 0 0,0 0.6078395704005215,0.18885871333485876 l -4.871399332233133 15.215114958548618" fill="#ff9c0e" stroke="none" /><path d="M 106.40334571778207 80.00007090966166 l 7.123244328306401 -22.248428827395603 a44.36093309455847,44.36093309455847 0 0,0 0.7252319215579407,0.23909756215991756 l -7.50515907210676 22.12251754097645" fill="#fdff18" stroke="none" /><path d="M 106.74666289553966 80.11325718540242 l 8.79683831105782 -25.929924732012665 a48.3814784275564,48.3814784275564 0 0,0 0.7863556789214052,0.27434405587717453 l -9.241875994042498 25.774659822963283" fill="#caff1d" stroke="none" /><path d="M 107.08798089147638 80.2323363322302 l 11.520798823915076 -32.130345696763634 a55.13338424672626,55.13338424672626 0 0,0 0.8905818274505406,0.3280088029792493 l -12.072162977138193 31.92727362597806" fill="#79ff26" stroke="none" /><path d="M 107.4271985657038 80.35727306442388 l 4.062841503028013 -10.74500506759274 a32.487463383241774,32.487463383241774 0 0,0 0.521372480314731,0.20228442235464583 l -4.24719714834241 10.673477941347546" fill="#ff5b08" stroke="none" /><path d="M 108.09893153111575 80.62456947434976 l 22.75941930484501 -54.44836097835447 a80.01368638140602,80.01368638140602 0 0,0 1.2661832182672894,0.5421135746563649 l -23.693286280902615 54.04852787573532" fill="#48faff" stroke="none" /><path d="M 108.43124777332544 80.76684994638697 l 6.432551980267557 -14.673775553787918 a37.02177936378441,37.02177936378441 0 0,0 0.5814497543025546,0.2608795559020343 l -6.684183853036892 14.560875667369354" fill="#ff9d0e" stroke="none" /><path d="M 109.08828744355905 81.06846463323043 l 12.243776796223495 -25.504639337173654 a49.29128307367919,49.29128307367919 0 0,0 0.7617351258729169,0.37378011808650996 l -12.680983189106843 25.290104058952313" fill="#bfff1e" stroke="none" /><path d="M 109.41281617654863 81.2277094730956 l 13.248883640946037 -26.42268670715554 a50.558269410705044,50.558269410705044 0 0,0 0.7745996642169798,0.3967800336261214 l -13.701743792751772 26.190714148216916" fill="#afff20" stroke="none" /><path d="M 109.73455568895987 81.39251694778311 l 7.300183059827838 -13.954209817494158 a36.74841720102842,36.74841720102842 0 0,0 0.5579721360377203,0.29804939127257163 l -7.53930024239387 13.826481699719833" fill="#ff990e" stroke="none" /><path d="M 110.36928655335952 81.73862282372117 l 24.73258793028578 -43.55662411452026 a71.08872537790242,71.08872537790242 0 0,0 1.0588945515753723,0.6133800711864952 l -25.47867921432648 43.124439885943715" fill="#3cffa2" stroke="none" /><line stroke="#e1ed5e" stroke-width="0.3" x1="143.23703022742887" x2="145.7803849466894" y1="26.81831364943548" y2="22.513508569990506" /><path d="M 143.74570117128098 25.957352633546492 a86.0,86.0 0 0,1 28.547481713284135,27.462654790039103" fill="none" id="id110" stroke="none" /><text fill="#e1ed5e" style="font-size:6.75px; font-family:Arial;" text-anchor="middle"><textPath startOffset="19.985693538727396" xlink:href="#id110">February</textPath></text><path d="M 110.68208982089419 81.91981866633111 l 8.252689455864465 -13.968251938925972 a37.22402371436401,37.22402371436401 0 0,0 0.5488557042848254,0.33067942064321626 l -8.491907226366928 13.824125908824142" fill="#ffa00e" stroke="none" /><path d="M 110.99172775467656 82.1063720568725 l 8.624286141332782 -14.039627884926679 a37.47693729413314,37.47693729413314 0 0,0 0.5467721816508595,0.3423886899887919 l -8.864677475355904 13.889094853614942" fill="#ffa30f" stroke="none" /><path d="M 111.2981086023043 82.29822771554956 l 22.52040950217138 -35.28476976037434 a62.859094844347965,62.859094844347965 0 0,0 0.9070656412947993,0.5899807247704405 l -23.12444216925046 34.89189011144437" fill="#31ff3c" stroke="none" /><path d="M 111.60114157652 82.49532879139004 l 12.245111972158355 -18.476341967851667 a43.16569375687783,43.16569375687783 0 0,0 0.6158209148688306,0.4158050306847643 l -12.561337581433728 18.262825024868235" fill="#fff116" stroke="none" /><path d="M 111.90073688211348 82.69761687909136 l 9.719308643297488 -14.13082261061021 a38.1506591172529,38.1506591172529 0 0,0 0.5378677223322696,0.3768107123554526 l -9.961107505213409 13.961427055490821" fill="#ffad10" stroke="none" /><path d="M 112.48926042617603 83.11751280151076 l 31.640615591238273 -42.77052999486156 a74.20194348925482,74.20194348925482 0 0,0 1.0202903133869259,0.7684615112065487 l -32.37215205838358 42.21955189414917" fill="#40ffc5" stroke="none" /><path d="M 113.06298171725822 83.55741782278167 l 10.537336999883808 -13.263513131977216 a37.93978310520097,37.93978310520097 0 0,0 0.507844956670111,0.4106419700444556 l -10.764085355118409 13.08016506466863" fill="#ffaa0f" stroke="none" /><path d="M 113.34407831869373 83.78471172551755 l 11.781778653322414 -14.316832731874154 a39.541359381349224,39.541359381349224 0 0,0 0.5218376062348493,0.4370239879755332 l -12.026473796516381 14.1119075865048" fill="#ffc011" stroke="none" /><path d="M 113.6212207817346 84.01681056812373 l 20.427673558118705 -23.969905588033704 a52.493590155717584,52.493590155717584 0 0,0 0.6826821429915069,0.5920152271406883 l -20.83724949975698 23.614725367473344" fill="#98ff23" stroke="none" /><path d="M 113.89432698308785 84.25364557470407 l 11.294938949351359 -12.800484120249223 a38.07126356138663,38.07126356138663 0 0,0 0.48765483744524574,0.43782132797524753 l -11.513604774392595 12.604163783504678" fill="#ffab0f" stroke="none" /><path d="M 114.42810811169701 84.74124197986012 l 38.86746804871941 -41.10513209490859 a77.57129976461658,77.57129976461658 0 0,0 0.9623154001641284,0.9257466525163992 l -39.56926669249595 40.430002355629895" fill="#44ffea" stroke="none" /><path d="M 114.68862486808459 84.99185889309783 l 11.209070003221395 -11.452896768506564 a37.02535786580711,37.02535786580711 0 0,0 0.4516462462482385,0.44970673373414416 l -11.404552049636957 11.258254184122302" fill="#ff9d0e" stroke="none" /><path d="M 114.94478906791727 85.2469230424477 l 22.44579859766936 -22.157863358273843 a52.54020899250781,52.54020899250781 0 0,0 0.6298213426629278,0.649086256473161 l -22.823884204035398 21.768212906250568" fill="#97ff23" stroke="none" /><path d="M 115.4437574822437 85.77008943001954 l 24.842009124301295 -22.889479365619334 a54.77948612636051,54.77948612636051 0 0,0 0.6329805082070011,0.6989528867792718 l -25.232333273124333 22.45847369157051" fill="#7dff26" stroke="none" /><path d="M 116.15771136456269 86.58626213691792 l 35.97242957283359 -29.86343360771073 a67.75297162977579,67.75297162977579 0 0,0 0.737221723033717,0.9037466623615918 l -36.48114978794372 29.239802775741037" fill="#37ff7a" stroke="none" /><path d="M 116.60985879189232 87.15038557335679 l 23.514097562718526 -18.190828173619952 a50.72909372704137,50.72909372704137 0 0,0 0.5283653966061879,0.6952669276381175 l -23.823738899548825 17.7833764701008" fill="#adff20" stroke="none" /><path d="M 116.82858285166822 87.43820079747576 l 13.975427511096052 -10.432043845356768 a38.43961332453637,38.43961332453637 0 0,0 0.39123726323679997,0.5336471873737154 l -14.152927386846478 10.189934214311558" fill="#ffb110" stroke="none" /><path d="M 117.04232023915458 87.72973835380427 l 21.81261935386377 -15.704818528516197 a47.87808936829733,47.87808936829733 0 0,0 0.4757882399555018,0.6729687236317852 l -22.079720213623155 15.32702330455262" fill="#d0ff1d" stroke="none" /><path d="M 117.2510076193507 88.02491185347247 l 10.83209753101945 -7.519289632695869 a34.18613110437953,34.18613110437953 0 0,0 0.33140285268060937,0.4862927933446331 l -10.959924849368793 7.331718816080829" fill="#ff740a" stroke="none" /><path d="M 117.65298651832404 88.62581576622439 l 49.59205765382016 -31.95318818722605 a79.99473211794512,79.99473211794512 0 0,0 0.7358464138516339,1.1639323128147654 l -50.134731663917755 31.09480822669708" fill="#48faff" stroke="none" /><line stroke="#e1ed5e" stroke-width="0.3" x1="172.23445277983987" x2="176.4835382374775" y1="55.19839476539836" y2="52.563006222186495" /><path d="M 173.08426987136738 54.67131705675599 a86.0,86.0 0 0,1 12.851231095245387,41.99856678651699" fill="none" id="id111" stroke="none" /><text fill="#e1ed5e" style="font-size:6.75px; font-family:Arial;" text-anchor="middle"><textPath startOffset="22.20632615414155" xlink:href="#id111">March</textPath></text><path d="M 117.84615892207809 88.93136811851018 l 10.097896886051542 -6.262966944145753 a32.882435628472464,32.882435628472464 0 0,0 0.2941947699266751,0.48357884845314064 l -10.204207454264441 6.0882203224855305" fill="#ff6108" stroke="none" /><path d="M 118.03404312379186 89.2402003453031 l 21.236646046114064 -12.670595008860845 a45.729316876260484,45.729316876260484 0 0,0 0.3974973518496259,0.679451824970749 l -21.45160307243402 12.3031637715362" fill="#ebff1a" stroke="none" /><path d="M 118.21658344932153 89.55222093294921 l 19.85319883782351 -11.386429063872288 a43.88668326605566,43.88668326605566 0 0,0 0.3701995518857624,0.6585436948287083 l -20.046256031001704 11.043001859108786" fill="#fffb17" stroke="none" /><path d="M 118.3937258080291 89.86733742301442 l 20.671013788765148 -11.38716592993601 a44.59996523241537,44.59996523241537 0 0,0 0.364640609787799,0.6756236706258336 l -20.86396249777141 11.029661275977718" fill="#faff18" stroke="none" /><path d="M 118.56541770881063 90.18545643968196 l 17.56341958707093 -9.284840735021302 a40.86660451778858,40.86660451778858 0 0,0 0.32341162712536353,0.6247283237527982 l -17.720640647356408 8.981139689008158" fill="#ffd213" stroke="none" /><path d="M 118.89224826269711 90.83032412892265 l 53.09278045685726 -25.769489216639563 a80.0161834679823,80.0161834679823 0 0,0 0.5907549336554945,1.2442805515698871 l -53.528493584354514 24.851766249429133" fill="#48faff" stroke="none" /><path d="M 119.34039704204932 91.81776055985345 l 36.97444966148276 -15.642584774249318 a61.147233854763876,61.147233854763876 0 0,0 0.40176153232645334,0.9728974179673955 l -37.238232880695406 15.00381278582862" fill="#37ff2e" stroke="none" /><path d="M 119.47837535516314 92.15188598940014 l 21.598973504894772 -8.702533116213274 a44.286256442458395,44.286256442458395 0 0,0 0.2788061311088618,0.7095311928336003 l -21.745573185885338 8.32945291848389" fill="#feff18" stroke="none" /><path d="M 119.61058180528143 92.48833698450437 l 21.67682885283406 -8.30312099884818 a44.21264154370572,44.21264154370572 0 0,0 0.2661083343498487,0.7130380353175634 l -21.816541775685533 7.928759826501283" fill="#ffff18" stroke="none" /><path d="M 119.85752413597 93.16781622104841 l 59.57257240790998 -20.496551336854747 a84.0,84.0 0 0,0 0.45865082491291975,1.371307588310744 l -59.91656052659467 19.46807064562169" fill="#4dd2ff" stroke="none" /><path d="M 120.08093135843002 93.85539295169968 l 13.250040188293983 -4.054408078889972 a34.856471046466844,34.856471046466844 0 0,0 0.1706209367177849,0.5752489784012305 l -13.31786702212347 3.825729713742212" fill="#ff7e0b" stroke="none" /><path d="M 120.18372546131832 94.20196356495316 l 35.270378882429625 -10.131872940411904 a57.696791083019626,57.696791083019626 0 0,0 0.2659910796526188,0.9569114363435212 l -35.43955673264861 9.52325020064943" fill="#5cff2a" stroke="none" /><path d="M 120.28053869075195 94.5502522615342 l 23.055026952266694 -6.195302940876905 a44.87291449109182,44.87291449109182 0 0,0 0.1940297731172089,0.7476758655463722 l -23.158253057254207 5.797530649781683" fill="#f7ff19" stroke="none" /><path d="M 120.37134235888165 94.90015583598534 l 22.44757471206771 -5.619616561090774 a44.14030468138973,44.14030468138973 0 0,0 0.17817381064169763,0.7386454735282764 l -22.54098132297023 5.232385855903091" fill="#fffe18" stroke="none" /><path d="M 120.53481517161879 95.60439243477599 l 43.906270804452916 -9.398416031305024 a65.90090021203858,65.90090021203858 0 0,0 0.22789379872541768,1.1112910974204113 l -44.06154389909333 8.641249277721199" fill="#35ff63" stroke="none" /><path d="M 120.6074358757038 95.95851677861258 l 9.708011724218101 -1.9039130696855773 a30.892945800643794,30.892945800643794 0 0,0 0.09784866315341782,0.5227114711776 l -9.739346111281378 1.7365235210454146" fill="#ff4306" stroke="none" /><path d="M 120.73433829027371 96.67025291283417 l 26.799137449431047 -4.3036989467206075 a48.14250527599657,48.14250527599657 0 0,0 0.12435462791858215,0.8193416246338115 l -26.869247970788926 3.841758209694714" fill="#cdff1d" stroke="none" /><path d="M 120.78858239683441 97.02765380044208 l 22.820879792710247 -3.262923561962519 a44.05296563751703,44.05296563751703 0 0,0 0.10086870672473709,0.7515890269322845 l -22.873664498492822 2.8696161929655704" fill="#fffd17" stroke="none" /><path d="M 120.83666639777658 97.38593545837742 l 13.678738428045763 -1.7160664962558558 a34.78596275936025,34.78596275936025 0 0,0 0.06942225807976621,0.5947675117688944 l -13.70625103912912 1.4803552461621088" fill="#ff7d0b" stroke="none" /><path d="M 120.91429891909075 98.10471618934814 l 19.72551043367214 -1.7875540904532774 a40.80634018427445,40.80634018427445 0 0,0 0.05737277416085699,0.7000931646704502 l -19.753357691652493 1.4477470085750583" fill="#ffd113" stroke="none" /><path d="M 120.98425023603335 99.18683210126433 l 23.61743428503106 -0.9152073195404641 a44.63516038967159,44.63516038967159 0 0,0 0.02314291734971586,0.7680007582505504 l -23.62968889683642 0.5085364138649147" fill="#faff18" stroke="none" /><line stroke="#e1ed5e" stroke-width="0.3" x1="184.98032266829074" x2="189.97916517819016" y1="98.17113171792111" y2="98.06355123074" /><path d="M 185.9800911702706 98.14961562048488 a86.0,86.0 0 0,1 -9.607161424134198,41.387399972396054" fill="none" id="id112" stroke="none" /><text fill="#e1ed5e" style="font-size:6.75px; font-family:Arial;" text-anchor="middle"><textPath startOffset="21.466115282336823" xlink:href="#id112">April</textPath></text><path d="M 120.99980553446 99.90962569577887 l 27.809343447503185 -0.11967968278517539 a48.80960097174463,48.80960097174463 0 0,0 -0.0036158680252390226,0.8402003868545669 l -27.807283282188443 -0.35903018227307615" fill="#c5ff1e" stroke="none" /><path d="M 120.9904718944345 100.63252640178507 l 51.169367872420864 1.5419365655395578 a72.19259494141008,72.19259494141008 0 0,0 -0.04812106443413136,1.2417908519018515 l -51.13524467513553 -2.4225046644554156" fill="#3dffae" stroke="none" /><path d="M 120.95626037817324 101.35467743843564 l 21.601743759718033 1.3964034791549396 a42.64683062568544,42.64683062568544 0 0,0 -0.05366076319951079,0.7321584801824691 l -21.574506437854186 -1.768035095834179" fill="#ffea16" stroke="none" /><path d="M 120.92983693683757 101.71520430193887 l 19.267793888686064 1.5789995434020467 a40.332385287257026,40.332385287257026 0 0,0 -0.06266001681453844,0.6914480641734446 l -19.23775927559445 -1.9104289961240617" fill="#ffcb12" stroke="none" /><path d="M 120.89721153311464 102.0752229133903 l 12.732228497395326 1.2643893791497454 a33.79485533376569,33.79485533376569 0 0,0 -0.062468500245794534,0.5783807289679411 l -12.70857769564848 -1.483366430002478" fill="#ff6e0a" stroke="none" /><path d="M 120.8583938346157 102.4346265915055 l 18.319172865475096 2.138244475883613 a39.44354043869576,39.44354043869576 0 0,0 -0.08451903760486779,0.6736998887336832 l -18.27965231862338 -2.4532621189046915" fill="#ffbf11" stroke="none" /><path d="M 120.76222939487914 103.15116336523771 l 23.387245608696023 3.5495721665668576 a44.65507809598475,44.65507809598475 0 0,0 -0.12188336834864298,0.7589678510537604 l -23.32268048598609 -3.9516192473138227" fill="#f9ff18" stroke="none" /><path d="M 120.70491114924044 103.5080841355445 l 18.90430540618676 3.2030030658385495 a40.173731810217674,40.173731810217674 0 0,0 -0.12138886704141028,0.6808132316347101 l -18.84637009680616 -3.527935048206478" fill="#ffc912" stroke="none" /><path d="M 120.64145759157962 103.86396538481128 l 20.40867755534702 3.8203902642904883 a41.763176571266996,41.763176571266996 0 0,0 -0.13835557110534374,0.7054720763187894 l -20.33989205126601 -4.171126067677223" fill="#ffde14" stroke="none" /><path d="M 120.5718875245553 104.21870165774334 l 12.861148731404727 2.6374512017381657 a34.12879642362024,34.12879642362024 0 0,0 -0.12297086612242925,0.5744789474146965 l -12.813843826557855 -2.858443968569031" fill="#ff730a" stroke="none" /><path d="M 120.32669344350535 105.2749913415812 l 22.848417550726563 5.929405344941832 a44.60525433705332,44.60525433705332 0 0,0 -0.1992621292677741,0.741528510336953 l -22.742967345117012 -6.321824788454333" fill="#faff18" stroke="none" /><path d="M 120.23288151984713 105.62410040840565 l 5.368479652562555 1.4922673558325004 a26.572022580828392,26.572022580828392 0 0,0 -0.12628969078073835,0.4396309812586795 l -5.3419973248957175 -1.584455812595762" fill="#ff0000" stroke="none" /><path d="M 120.13307415673323 105.97154293290107 l 20.95899206977416 6.21651318624545 a42.86148176075034,42.86148176075034 0 0,0 -0.2158855838573376,0.7055265791020645 l -20.84887971341069 -6.576366737899572" fill="#ffed16" stroke="none" /><path d="M 120.02730092923936 106.31721596034902 l 19.988960627647742 6.305122270540547 a41.95979756152521,41.95979756152521 0 0,0 -0.22320164444818807,0.6869440265886376 l -19.877466732183308 -6.64826519710698" fill="#ffe115" stroke="none" /><path d="M 119.79798401119884 107.00284435728193 l 9.41278769395914 3.329444409675682 a30.984276250618734,30.984276250618734 0 0,0 -0.18218125748873099,0.5012845768723013 l -9.354082175465184 -3.4909767835541143" fill="#ff4406" stroke="none" /><path d="M 119.67450827220406 107.3425965602758 l 16.855264232769336 6.290444643687514 a38.99082060862623,38.99082060862623 0 0,0 -0.24008267371613132,0.6267801022527996 l -16.744487279459698 -6.5796483127734575" fill="#ffb811" stroke="none" /><path d="M 119.54520255179757 107.68017299344265 l 12.565026654534362 4.937353712160256 a34.50027246051507,34.50027246051507 0 0,0 -0.22194745794396498,0.5508553888383749 l -12.478176582333004 -5.152908468841445" fill="#ff780b" stroke="none" /><path d="M 119.41010516605496 108.01547362559984 l 14.984210773043957 6.187784415604678 a37.21157760568066,37.21157760568066 0 0,0 -0.24958162828792244,0.5899372440515048 l -14.875478163563725 -6.444796185322347" fill="#ff9f0e" stroke="none" /><line stroke="#e1ed5e" stroke-width="0.3" x1="174.80103733775053" x2="179.2010983576182" y1="140.37084112569926" y2="142.7455964860345" /><path d="M 175.68104954172406 140.8457921977663 a86.0,86.0 0 0,1 -30.038265399797805,32.042727171017184" fill="none" id="id113" stroke="none" /><text fill="#e1ed5e" style="font-size:6.75px; font-family:Arial;" text-anchor="middle"><textPath startOffset="22.206326154141568" xlink:href="#id113">May</textPath></text><line stroke="#e1ed5e" stroke-width="0.3" x1="143.8653032363475" x2="146.44561519142675" y1="172.8068346515853" y2="177.08958963109032" /><path d="M 144.38136562736335 173.6633856474863 a86.0,86.0 0 0,1 -40.68145358897372,12.25698825130547" fill="none" id="id114" stroke="none" /><text fill="#e1ed5e" style="font-size:6.75px; font-family:Arial;" text-anchor="middle"><textPath startOffset="21.466115282336833" xlink:href="#id114">June</textPath></text><line stroke="#e1ed5e" stroke-width="0.3" x1="102.19456741930631" x2="102.32365962044197" y1="184.97166512339345" y2="189.96999836594603" /><path d="M 102.22038585953345 185.97133177190398 a86.0,86.0 0 0,1 -42.740103519485714,-10.115201625700543" fill="none" id="id115" stroke="none" /><text fill="#e1ed5e" style="font-size:6.75px; font-family:Arial;" text-anchor="middle"><textPath startOffset="22.20632615414155" xlink:href="#id115">July</textPath></text><line stroke="#e1ed5e" stroke-width="0.3" x1="58.666819895761336" x2="56.23545636021788" y1="174.27360380694188" y2="178.64263932499728" /><path d="M 58.180547188652646 175.14741091055294 a86.0,86.0 0 0,1 -31.652253787137756,-30.449443065178592" fill="none" id="id116" stroke="none" /><text fill="#e1ed5e" style="font-size:6.75px; font-family:Arial;" text-anchor="middle"><textPath startOffset="22.20632615414155" xlink:href="#id116">August</textPath></text><line stroke="#e1ed5e" stroke-width="0.3" x1="26.63291911575756" x2="22.317208475507996" y1="142.92168965132927" y2="145.44649492493687" /><path d="M 25.769776987707644 143.4266507060508 a86.0,86.0 0 0,1 -11.730757126820373,-40.83630448921669" fill="none" id="id117" stroke="none" /><text fill="#e1ed5e" style="font-size:6.75px; font-family:Arial;" text-anchor="middle"><textPath startOffset="21.46611528233685" xlink:href="#id117">September</textPath></text><line stroke="#e1ed5e" stroke-width="0.3" x1="15.007084014347285" x2="10.007500721073583" y1="101.09737516637583" y2="101.16192664675087" /><path d="M 14.007167355692545 101.11028546245083 a86.0,86.0 0 0,1 10.666146001902534,-42.60595125391555" fill="none" id="id118" stroke="none" /><text fill="#e1ed5e" style="font-size:6.75px; font-family:Arial;" text-anchor="middle"><textPath startOffset="22.20632615414155" xlink:href="#id118">October</textPath></text><line stroke="#e1ed5e" stroke-width="0.3" x1="26.266209847984243" x2="21.928928074336255" y1="57.711370442889674" y2="55.22380399835377" /><path d="M 25.398753493254645 57.213857153982495 a86.0,86.0 0 0,1 29.58750427330803,-30.492523968695096" fill="none" id="id119" stroke="none" /><text fill="#e1ed5e" style="font-size:6.75px; font-family:Arial;" text-anchor="middle"><textPath startOffset="21.46611528233685" xlink:href="#id119">November</textPath></text><line stroke="#e1ed5e" stroke-width="0.3" x1="56.762969772571076" x2="54.21961505331055" y1="26.818313649435495" y2="22.513508569990535" /><path d="M 56.25429882871897 25.957352633546506 a86.0,86.0 0 0,1 42.265352541879196,-11.944610805530505" fill="none" id="id120" stroke="none" /><text fill="#e1ed5e" style="font-size:6.75px; font-family:Arial;" text-anchor="middle"><textPath startOffset="22.20632615414155" xlink:href="#id120">December</textPath></text></svg>