<?xml version="1.0" encoding="utf-8" ?>
<svg baseProfile="full" height="200mm" version="1.1" viewBox="0,0,200,200" width="200mm" xmlns="http://www.w3.org/2000/svg" xmlns:ev="http://www.w3.org/2001/xml-events" xmlns:xlink="http://www.w3.org/1999/xlink"><defs /><rect fill="#1a1a1a" height="200" width="200" x="0" y="0" /><rect fill="#1a1a1a" height="200" width="180" x="10" y="0" /><text alignment-baseline="middle" fill="#e1ed5e" style="dominant-baseline: central; font-size:9.0px; font-family:Arial;" text-anchor="middle" x="100.0" y="100.0">2024</text><line stroke="#e1ed5e" stroke-width="0.3" x1="100.0" x2="100.0" y1="15.0" y2="10.0" /><path d="M 100.0 14.0 a86.0,86.0 0 0,1 42.35913384403234,11.155469271406648" fill="none" id="id85" stroke="none" /><text fill="#e1ed5e" style="font-size:6.75px; font-family:Arial;" text-anchor="middle"><textPath startOffset="22.145653131862478" xlink:href="#id85">January</textPath></text><path d="M 100.36049292484886 79.00309439819443 l 0.20787282280794195 -12.107549793131753 a33.109334131306596,33.109334131306596 0 0,0 0.568198247662194,0.014634771321837464 l -0.4156843845408773 12.10219730445987" fill="#ff8f0d" stroke="none" /><path d="M 100.72087961077811 79.0123766808444 l 0.8224860675298878 -23.945784445114676 a44.95990559295209,44.95990559295209 0 0,0 0.7711142762095108,0.03311496492095657 l -1.233426104340235 23.92813691176789" fill="#d8ff1c" stroke="none" /><path d="M 101.44090949804482 79.04949213459386 l 1.1150326714049394 -16.212330326194742 a37.25062929439824,37.25062929439824 0 0,0 0.6375729110733663,0.049352175609982285 l -1.393174577253539 16.190800383589707" fill="#ffc612" stroke="none" /><path d="M 102.15924093988457 79.11130261209362 l 3.8497847839301675 -37.24317554130056 a58.441620788671905,58.441620788671905 0 0,0 0.9970254562305562,0.11171878196672551 l -4.48854614176152 37.17160099882686" fill="#44ff2d" stroke="none" /><path d="M 102.87502721639298 79.19773525538626 l 2.2248399122595544 -16.097833302347535 a37.2508507366646,37.2508507366646 0 0,0 0.6326877739297071,0.09298331496759495 l -2.5008527917969436 16.05726891408106" fill="#ffc612" stroke="none" /><path d="M 103.23170211078529 79.25015418208739 l 3.6565017931843666 -23.47736450964532 a44.760400873771346,44.760400873771346 0 0,0 0.7582038839601651,0.12476216057522947 l -4.058983180197602 23.411136350574424" fill="#daff1b" stroke="none" /><path d="M 103.58742460773223 79.30868818359171 l 0.3531405853561718 -2.036821052875741 a23.067207845008223,23.067207845008223 0 0,0 0.38957797221824125,0.07099408406321915 l -0.38805329112546677 2.030458794881156" fill="#ff0100" stroke="none" /><path d="M 103.94208987418118 79.37332000966035 l 3.0021947331113514 -15.708751450379793 a36.99306241297553,36.99306241297553 0 0,0 0.6227227416171195,0.12456198869095274 l -3.271413960259428 15.654900065025982" fill="#ffc312" stroke="none" /><path d="M 104.64783097203109 79.52079915486377 l 9.96002801631304 -43.88572118837683 a66.00176310223509,66.00176310223509 0 0,0 1.1027569747167407,0.26024764338158085 l -10.711917144769664 43.708277401349015" fill="#36ff71" stroke="none" /><path d="M 106.04205211174951 79.88797359093562 l 4.728816818827703 -15.740693225559117 a37.43566645217621,37.43566645217621 0 0,0 0.613872495595245,0.19017926832620966 l -4.998329947294578 15.65719736942626" fill="#ffc912" stroke="none" /><path d="M 106.72888874123014 80.10723608172694 l 12.003874331058588 -35.487321511086876 a58.462554464252655,58.462554464252655 0 0,0 0.9479124926943703,0.32973317079953496 l -12.611292595797977 35.27602990771875" fill="#44ff2d" stroke="none" /><path d="M 107.06938296918511 80.22567764915836 l 3.287630392297702 -9.196087329133972 a30.76609111986049,30.76609111986049 0 0,0 0.49578947600754714,0.18206076298977925 l -3.445009019959374 9.13829571713547" fill="#ff6f0a" stroke="none" /><path d="M 107.74402155503746 80.48000691201159 l 6.189930413635429 -15.602668204183251 a37.78566333558135,37.78566333558135 0 0,0 0.6008739858036838,0.24437021902745246 l -6.456858860629553 15.494110728576505" fill="#ffcd13" stroke="none" /><path d="M 108.73861861582097 80.90454125486305 l 10.593539480099196 -23.148795593502328 a46.457608217312426,46.457608217312426 0 0,0 0.7223301623565912,0.3380869885709253 l -10.989358356327292 22.96353237336087" fill="#c6ff1e" stroke="none" /><path d="M 109.3889696526874 81.21577127319529 l 20.12107821539405 -40.25563500673438 a66.00415467871187,66.00415467871187 0 0,0 1.0091493962447955,0.5152788721967203 l -20.809154833352423 39.90429818286483" fill="#36ff71" stroke="none" /><path d="M 110.02825361518725 81.54914285379988 l 8.500929203865978 -15.640752255502568 a38.80165521650024,38.80165521650024 0 0,0 0.5824974912459462,0.3231015392417932 l -8.768170883268024 15.49251780082763" fill="#ffda14" stroke="none" /><path d="M 110.34350942703115 81.72400993836675 l 13.303159634401828 -23.505408389851734 a48.008855581680805,48.008855581680805 0 0,0 0.7137488724763406,0.4120831036580071 l -13.704700974738564 23.273578388917556" fill="#b4ff20" stroke="none" /><line stroke="#e1ed5e" stroke-width="0.3" x1="143.13028292997686" x2="145.6673583964461" y1="26.7553504044142" y2="22.446841604673864" /><path d="M 143.63769802327073 25.89364864446614 a86.0,86.0 0 0,1 29.32050498858742,28.57503671076993" fill="none" id="id86" stroke="none" /><text fill="#e1ed5e" style="font-size:6.75px; font-family:Arial;" text-anchor="middle"><textPath startOffset="20.669276256404974" xlink:href="#id86">February</textPath></text><path d="M 111.27062007382361 82.28071324371311 l 28.015918920962584 -44.045677864199924 a73.20070355371487,73.20070355371487 0 0,0 1.0544887882806806,0.6835068925914293 l -28.76789334150027 43.5582571299046" fill="#3fffc1" stroke="none" /><path d="M 111.8722381534696 82.67804972795209 l 10.854002435473948 -15.836313929149153 a40.198911628835575,40.198911628835575 0 0,0 0.5658569336645709,0.3950120863619905 l -11.12425446031228 15.647657026982035" fill="#ffec16" stroke="none" /><path d="M 112.45986205192187 83.09580414077388 l 13.323353191813768 -18.075687428764603 a43.455338258334315,43.455338258334315 0 0,0 0.5966769953648726,0.44775754109093563 l -13.631683176089405 17.844310860409653" fill="#eaff1a" stroke="none" /><path d="M 113.31354834802062 83.75963576809568 l 19.790651868096482 -24.14137736409615 a52.21659818750091,52.21659818750091 0 0,0 0.6883283124312307,0.5742279594748979 l -20.202154514689607 23.798087220709384" fill="#85ff25" stroke="none" /><path d="M 114.65682725009322 84.96080404539774 l 10.878852991259533 -11.162661543672254 a36.58699634772575,36.58699634772575 0 0,0 0.44602698491396875,0.44221481136875357 l -11.068871896303465 10.97426672207484" fill="#ffbe11" stroke="none" /><path d="M 115.6541949942343 86.00192230759917 l 12.417708801069875 -11.103991781308967 a37.65827498114812,37.65827498114812 0 0,0 0.42677394266277535,0.4855904049381376 l -12.60649380769124 10.88918909855953" fill="#ffcb13" stroke="none" /><path d="M 115.8921839302757 86.27271002978787 l 11.17805561565567 -9.655338209806466 a35.77073062825397,35.77073062825397 0 0,0 0.3974050439473478,0.4681421425092094 l -11.34215522311013 9.462029284847706" fill="#ffb310" stroke="none" /><path d="M 116.1254893667686 86.54754324733833 l 15.927191114032608 -13.28702929750756 a41.74175894989968,41.74175894989968 0 0,0 0.45429579897971706,0.5541670072915927 l -16.152933732250954 13.011660008517472" fill="#ffff18" stroke="none" /><path d="M 116.57777611688842 87.10902102172516 l 15.163563127957456 -11.791278404291347 a40.208536986013755,40.208536986013755 0 0,0 0.41902661013644443,0.5485192836034972 l -15.363741715448207 11.529238207446967" fill="#ffec16" stroke="none" /><path d="M 117.01052211995028 87.68569379921539 l 41.86470717801005 -30.306819482723082 a72.6832372656637,72.6832372656637 0 0,0 0.7229728978457931,1.0169519211965923 l -42.37879517438581 29.583690334816986" fill="#3fffbc" stroke="none" /><path d="M 117.42321728460499 88.27688183743584 l 13.95558518126052 -9.389940527930202 a37.82050358549007,37.82050358549007 0 0,0 0.3578099890546665,0.5417699280888186 l -14.11471960923591 9.148990721502326" fill="#ffcd13" stroke="none" /><path d="M 117.62189284568427 88.57770195909679 l 21.184027676258264 -13.731230801589208 a46.24499411596264,46.24499411596264 0 0,0 0.4260756291573138,0.6698616583162434 l -21.41662099704147 13.365555468594293" fill="#c9ff1d" stroke="none" /><line stroke="#e1ed5e" stroke-width="0.3" x1="172.87174338648825" x2="177.1583165268699" y1="56.24261187166439" y2="53.66864786411523" /><path d="M 173.72905801456457 55.72781907015455 a86.0,86.0 0 0,1 12.242430191666344,42.057860355516425" fill="none" id="id87" stroke="none" /><text fill="#e1ed5e" style="font-size:6.75px; font-family:Arial;" text-anchor="middle"><textPath startOffset="22.145653131862474" xlink:href="#id87">March</textPath></text><path d="M 118.00360718960297 89.18935116829356 l 18.29491064162661 -10.985568184818636 a42.339785934455904,42.339785934455904 0 0,0 0.36881237880427925,0.6263240492971256 l -18.48079673056066 10.669892967227954" fill="#f8ff18" stroke="none" /><path d="M 118.36410011445183 89.81374322990088 l 32.82962906268129 -18.210041832456124 a58.54184555843053,58.54184555843053 0 0,0 0.47991671214210924,0.882992696195673 l -33.13739112443874 17.643794302785846" fill="#43ff2d" stroke="none" /><path d="M 118.70294669586156 90.45014215332178 l 14.405169268921629 -7.355382069606128 a37.1743793406785,37.1743793406785 0 0,0 0.285322366115732,0.5708358621072961 l -14.5293115482491 7.107014351335081" fill="#ffc512" stroke="none" /><path d="M 118.8641267826498 90.77261029715802 l 20.55091773385438 -10.052483683248614 a43.87777628847765,43.87777628847765 0 0,0 0.3251567669086605,0.6794525850570083 l -20.720453758722954 9.698218596126502" fill="#e5ff1a" stroke="none" /><path d="M 119.4528033332814 92.08871423366111 l 20.840042653556168 -8.475463921073985 a43.497574679939774,43.497574679939774 0 0,0 0.2753631054148166,0.6940949061392759 l -20.98246443393711 8.116467997721143" fill="#eaff1a" stroke="none" /><path d="M 119.71291397450082 92.76114493625339 l 16.17685398045877 -5.940364854399905 a38.23306529055334,38.23306529055334 0 0,0 0.2209503953504938,0.6180375798356641 l -16.276444545853206 5.661792318183324" fill="#ffd313" stroke="none" /><path d="M 119.94978838288452 93.4421083053983 l 15.787663729353028 -5.189718650685691 a37.61876968082788,37.61876968082788 0 0,0 0.19639735743178405,0.6152119248965653 l -15.874425802562069 4.917937692097739" fill="#ffcb12" stroke="none" /><path d="M 120.05942366710727 93.78553927170692 l 15.828708412903287 -4.903774327917918 a37.57090862565666,37.57090862565666 0 0,0 0.18557109064097946,0.6177058070175322 l -15.910555823547895 4.631330917309662" fill="#ffca12" stroke="none" /><path d="M 120.26092885502905 94.47779374421319 l 29.04244288373514 -7.915646953969001 a51.10184305578143,51.10184305578143 0 0,0 0.22341365441840388,0.8483380357965203 l -29.174046018958276 7.415928413799683" fill="#92ff23" stroke="none" /><path d="M 120.592083275326 95.88100663000786 l 15.463264944566884 -3.0930860629056225 a36.7695828777559,36.7695828777559 0 0,0 0.11849209545601241,0.6200007134194438 l -15.514083332305052 2.827182784452864" fill="#ffc011" stroke="none" /><path d="M 120.65975698304385 96.23510406497455 l 8.033266582644547 -1.4639287735473778 a29.16556546981613,29.16556546981613 0 0,0 0.08553174630480072,0.4933243835090132 l -8.057213146441581 1.325811357117772" fill="#ff5908" stroke="none" /><path d="M 120.77682067341334 96.94652285012252 l 11.82819909420853 -1.738337940442635 a32.95525460236702,32.95525460236702 0 0,0 0.07745345347361339,0.5604146059403905 l -11.856297064237356 1.5350350263021588" fill="#ff8d0d" stroke="none" /><path d="M 120.86939407059847 97.66154086499901 l 4.738733944125762 -0.5309850224924308 a25.768390135813238,25.768390135813238 0 0,0 0.04548440818731585,0.4400203890834165 l -4.7471507447947445 0.44956011112608296" fill="#ff2903" stroke="none" /><path d="M 120.93736805541906 98.37931529534042 l 8.560476564215097 -0.6626350263078704 a29.58608433365093,29.58608433365093 0 0,0 0.0348496443357533,0.5067061801962853 l -8.570590169715917 0.515585421957251" fill="#ff5f08" stroke="none" /><path d="M 120.98066250479742 99.09900007780936 l 5.634203440649922 -0.24195693822685801 a26.639396383531444,26.639396383531444 0 0,0 0.015698612783868263,0.45704798251331513 l -5.637526740430638 0.14520269114942294" fill="#ff3505" stroke="none" /><path d="M 120.99303781780057 99.45929381324524 l 7.3911222310194615 -0.19036909055554607 a28.3935734408004,28.3935734408004 0 0,0 0.008367408161747279,0.4873595768283482 l -7.3933010707798745 0.06346259775813151" fill="#ff4e07" stroke="none" /><line stroke="#e1ed5e" stroke-width="0.3" x1="184.99686870605535" x2="189.99668451229388" y1="99.2704041080226" y2="99.22748670261217" /><path d="M 185.99683186730306 99.26182062694052 a86.0,86.0 0 0,1 -10.086455211305974,41.156179273409016" fill="none" id="id88" stroke="none" /><text fill="#e1ed5e" style="font-size:6.75px; font-family:Arial;" text-anchor="middle"><textPath startOffset="21.40746469413373" xlink:href="#id88">April</textPath></text><path d="M 120.99922638620191 100.18025310272382 l 4.41391990033062 0.03788819371611794 a25.41408250962278,25.41408250962278 0 0,0 -0.00748937085561365,0.4362183056385725 l -4.4126190978763375 -0.11365341532376147" fill="#ff2403" stroke="none" /><path d="M 120.93736805541906 101.62068470465957 l 8.49522817681415 0.6575843884633916 a29.52064076253,29.52064076253 0 0,0 -0.043446479124343095,0.5049139442802382 l -8.482688074992065 -0.8033193801192872" fill="#ff5e08" stroke="none" /><path d="M 120.9064616781168 101.97986365728391 l 4.387792903119895 0.41552854989653476 a25.40742447881395,25.40742447881395 0 0,0 -0.04484725898249455,0.43385654850193484 l -4.3800132516557335 -0.49078962068140103" fill="#ff2303" stroke="none" /><path d="M 120.86939407059847 102.33845913500097 l 16.427151314877726 1.8406965685907715 a37.529956569196145,37.529956569196145 0 0,0 -0.0772364964612423,0.6396289886145314 l -16.39313273215682 -2.1224192341287114" fill="#ffca12" stroke="none" /><path d="M 120.82617615685814 102.69636545807757 l 5.329186082104953 0.6899698323507958 a26.373665663888602,26.373665663888602 0 0,0 -0.06198500090726071,0.44849258877126597 l -5.316556564642482 -0.7813507293221469" fill="#ff3104" stroke="none" /><path d="M 120.77682067341334 103.0534771498775 l 17.614745101535256 2.588760932864036 a38.80395821607048,38.80395821607048 0 0,0 -0.10251360480745735,0.6582108811620233 l -17.567710004589532 -2.89075999595751" fill="#ffda14" stroke="none" /><path d="M 120.7213421655516 103.40968896794604 l 6.686217986821387 1.1002146253271117 a27.776133350892493,27.776133350892493 0 0,0 -0.08145705913213101,0.4698226707030394 l -6.666346110197022 -1.2148303289507392" fill="#ff4506" stroke="none" /><path d="M 120.592083275326 104.11899336999214 l 7.297278416790136 1.4596600555593575 a28.44183309205109,28.44183309205109 0 0,0 -0.09987456574091387,0.4779359520700512 l -7.271146140224858 -1.5847124589148178" fill="#ff4f07" stroke="none" /><path d="M 120.51834098615036 104.47187691870673 l 30.76637598474288 6.705388448865907 a52.488603104690874,52.488603104690874 0 0,0 -0.1994295437983335,0.8787233671957728 l -30.64673557938688 -7.2325461500006964" fill="#82ff25" stroke="none" /><path d="M 120.35273937422433 105.17358676015961 l 3.1578743515151455 0.8027193113835573 a24.25830150735399,24.25830150735399 0 0,0 -0.106055583627884,0.40271032553648645 l -3.143629287082531 -0.856810141292847" fill="#ff1302" stroke="none" /><path d="M 120.26092885502905 105.52220625578681 l 18.568734949750706 5.060991282051139 a40.246078831572184,40.246078831572184 0 0,0 -0.1873962988684031,0.6650033546919245 l -18.47912015880772 -5.3790025606460725" fill="#ffec16" stroke="none" /><path d="M 119.58574465831526 107.57618678355244 l 11.589382011474047 4.4830219303197465 a33.42623277729844,33.42623277729844 0 0,0 -0.2116060798240389,0.5333855524788251 l -11.510717256683884 -4.681308500012135" fill="#ff940d" stroke="none" /><path d="M 119.4528033332814 107.91128576633889 l 14.825806561639235 6.029526460328681 a37.004990769723946,37.004990769723946 0 0,0 -0.24436361156793412,0.5863837103137959 l -14.720117105534815 -6.283142680083754" fill="#ffc312" stroke="none" /><path d="M 119.31412917781788 108.2440532568976 l 5.930968557444972 2.5315777999826827 a27.448664527385965,27.448664527385965 0 0,0 -0.18869795912558723,0.43177785844732725 l -5.886636716302419 -2.6330177282058544" fill="#ff4106" stroke="none" /><path d="M 119.0197475246899 108.90220220490707 l 14.751310883396531 6.9043583307809095 a37.28715250553137,37.28715250553137 0 0,0 -0.2763168734034628,0.5773959918281263 l -14.630614752033157 -7.156566824674139" fill="#ffc712" stroke="none" /><path d="M 118.8641267826498 109.22738970284198 l 4.309928162039399 2.1082018373078717 a25.79791577132911,25.79791577132911 0 0,0 -0.1980052525228212,0.39614314350592983 l -4.2731029963048455 -2.181876836977547" fill="#ff2904" stroke="none" /><path d="M 118.70294669586154 109.54985784667822 l 4.334399015285684 2.2131750210205903 a25.866740027716602,25.866740027716602 0 0,0 -0.20532270688300264,0.3937333632618451 l -4.295768239427732 -2.2872546273869383" fill="#ff2a04" stroke="none" /><line stroke="#e1ed5e" stroke-width="0.3" x1="174.33088141563837" x2="178.70328620479359" y1="141.23008692659167" y2="143.65538615756765" /><path d="M 175.20536237346943 141.71514677278685 a86.0,86.0 0 0,1 -30.301960400862466,31.631185727798858" fill="none" id="id89" stroke="none" /><text fill="#e1ed5e" style="font-size:6.75px; font-family:Arial;" text-anchor="middle"><textPath startOffset="22.145653131862474" xlink:href="#id89">May</textPath></text><path d="M 117.81537515405839 111.11811171558189 l 17.800763757575684 11.108993123522474 a41.982776712615745,41.982776712615745 0 0,0 -0.3868059309672251,0.6081231702379242 l -17.60744013498257 -11.41292996843907" fill="#fcff18" stroke="none" /><path d="M 117.62189284568427 111.42229804090321 l 17.352692526808386 11.247805646593848 a41.679194128241555,41.679194128241555 0 0,0 -0.39431606089334975,0.5970447737327389 l -17.157052026994307 -11.544030298665648" fill="#fffe18" stroke="none" /><path d="M 117.423217284605 111.72311816256416 l 9.834437184482603 6.617048234706558 a32.853332108566235,32.853332108566235 0 0,0 -0.31884982207336054,0.46521141934741084 l -9.719397625593922 -6.7848943891240125" fill="#ff8c0c" stroke="none" /><path d="M 117.21940702142032 112.02048342749411 l 12.117198796414469 8.458745828980213 a35.777580575693655,35.777580575693655 0 0,0 -0.3558760187328649,0.5005841879225947 l -11.970207679151644 -8.665507243612312" fill="#ffb310" stroke="none" /><path d="M 117.01052211995028 112.31430620078461 l 15.567823103584624 11.26990337071149 a40.2189447725331,40.2189447725331 0 0,0 -0.4096548124435421,0.5557754295644083 l -15.372066271557253 -11.535485109544775" fill="#ffec16" stroke="none" /><path d="M 116.57777611688842 112.89097897827486 l 12.764580487394474 9.925814992872795 a37.16961095054269,37.16961095054269 0 0,0 -0.39600427283949585,0.5003384622937536 l -12.592309783913416 -10.14347339908123" fill="#ffc512" stroke="none" /><path d="M 116.1254893667686 113.45245675266167 l 28.355376721696242 23.65506375515891 a57.926811807817174,57.926811807817174 0 0,0 -0.6435542911173342,0.7581053367419718 l -27.945127867071793 -24.13833587435044" fill="#49ff2c" stroke="none" /><path d="M 115.6541949942343 113.99807769240083 l 11.251512031974169 10.06117143925745 a36.09382965770415,36.09382965770415 0 0,0 -0.41697362192288434,0.45832705352056186 l -11.077140709209404 -10.252836068335684" fill="#ffb711" stroke="none" /><path d="M 115.41159269507618 114.26474011684316 l 15.490978606526264 14.338218531318509 a42.10817208665165,42.10817208665165 0 0,0 -0.49556138491645774,0.5262690176318319 l -15.242561387873545 -14.602029008894839" fill="#fbff18" stroke="none" /><path d="M 115.16444852881244 114.52719865689866 l 12.799915926651254 12.262029911919635 a38.72555289095808,38.72555289095808 0 0,0 -0.46399334476655096,0.47609804731314326 l -12.587535780733896 -12.479950651300515" fill="#ffd914" stroke="none" /><path d="M 114.91283532996324 114.78537596483092 l 7.744042050509396 7.677854054633604 a31.90502774706747,31.90502774706747 0 0,0 -0.38894975674890175,0.3856254198292823 l -7.61110037363053 -7.809659484691548" fill="#ff7f0b" stroke="none" /><path d="M 114.39649973595853 115.28858382429668 l 21.366033839592014 22.689987520609847 a52.16637508148841,52.16637508148841 0 0,0 -0.65722237071575,0.6083152145742168 l -20.973381697562296 -23.053420481316444" fill="#86ff25" stroke="none" /><path d="M 114.13192950727249 115.5334660781643 l 9.938468503405392 10.924117848670729 a35.768530968408044,35.768530968408044 0 0,0 -0.45772643858868156,0.40930180386728376 l -9.749477037993334 -11.0931151824214" fill="#ffb310" stroke="none" /><path d="M 113.59037401385872 116.0094264158162 l 8.922582735270524 10.510780026633515 a34.78727599767357,34.78727599767357 0 0,0 -0.4585719447976149,0.38255702602655955 l -8.740836456311014 -10.662399236571945" fill="#ffa60f" stroke="none" /><path d="M 113.31354834802062 116.24036423190432 l 10.596076113835698 12.925489961003333 a37.71362078492262,37.71362078492262 0 0,0 -0.5041938086895791,0.40614284227327657 l -10.372631534790866 -13.105481097070012" fill="#ffcc13" stroke="none" /><path d="M 113.03279911837588 116.46651593811092 l 11.060171349341953 13.974165192601607 a38.82146691793139,38.82146691793139 0 0,0 -0.5261049247388407,0.4091023715941135 l -10.818656479967881 -14.161968615816512" fill="#ffda14" stroke="none" /><path d="M 112.45986205192187 116.90419585922612 l 22.056530854136877 29.92392018303956 a58.17433997316448,58.17433997316448 0 0,0 -0.8089529514821325,0.5856195522003496 l -21.539596892280777 -30.298140506612988" fill="#47ff2c" stroke="none" /><path d="M 111.8722381534696 117.32195027204791 l 9.190002657257399 13.40848852349536 a37.255574838347144,37.255574838347144 0 0,0 -0.5306324153918817,0.3570331704479371 l -8.958473953768513 -13.564271368000417" fill="#ffc612" stroke="none" /><path d="M 111.5731344415666 117.5232005979908 l 8.884381104062422 13.452085350043744 a37.12112985702562,37.12112985702562 0 0,0 -0.5347464346954071,0.34661617834642894 l -8.652149037110005 -13.602615370094068" fill="#ffc412" stroke="none" /><path d="M 111.27062007382361 117.71928675628689 l 10.444024442702533 16.41974113027953 a40.459844432707094,40.459844432707094 0 0,0 -0.5892415129099798,0.3677302841696944 l -10.160618801002839 -16.596607211290774" fill="#ffef16" stroke="none" /><line stroke="#e1ed5e" stroke-width="0.3" x1="143.1302829299769" x2="145.66735839644613" y1="173.24464959558577" y2="177.55315839532614" /><path d="M 143.63769802327073 174.10635135553383 a86.0,86.0 0 0,1 -40.68552437913181,11.842963189579606" fill="none" id="id90" stroke="none" /><text fill="#e1ed5e" style="font-size:6.75px; font-family:Arial;" text-anchor="middle"><textPath startOffset="21.407464694133747" xlink:href="#id90">June</textPath></text><path d="M 110.34350942703117 118.27599006163325 l 14.576017743009636 25.75442670485339 a50.59308683020744,50.59308683020744 0 0,0 -0.7595126029688691,0.4212888377731518 l -14.131760951884672 -26.000848458059686" fill="#97ff23" stroke="none" /><path d="M 110.02825361518725 118.45085714620011 l 11.317399019277348 20.82273949025295 a44.69957806460865,44.69957806460865 0 0,0 -0.6773288414181193,0.3606394573564372 l -10.958281362072674 -21.013949415331957" fill="#dbff1b" stroke="none" /><path d="M 109.3889696526874 118.78422872680471 l 7.277429544799102 14.559734046385474 a37.27718760354476,37.27718760354476 0 0,0 -0.5748492924639529,0.281187595009514 l -7.02642000307308 -14.682515391492212" fill="#ffc612" stroke="none" /><path d="M 109.06512990194946 118.94263497670748 l 7.6597906712018595 16.006016488673033 a38.74443453487048,38.74443453487048 0 0,0 -0.602404530966752,0.28195573768036514 l -7.3838974263636015 -16.135148457923933" fill="#ffd914" stroke="none" /><path d="M 108.73861861582097 119.09545874513695 l 10.680354801662977 23.338502738790208 a46.666236357867575,46.666236357867575 0 0,0 -0.7312968059307458,0.3270997595729751 l -10.278144592876604 -23.51840624927303" fill="#c4ff1e" stroke="none" /><path d="M 108.07796709384702 119.3841803445677 l 11.976697101361196 28.739713079777378 a52.135387927014506,52.135387927014506 0 0,0 -0.8290657243967735,0.3371738125557493 l -11.481576915773982 -28.941074148912417" fill="#86ff25" stroke="none" /><path d="M 107.407793817531 119.65005319985036 l 7.9637240526728 21.124724197049197 a43.575980005052166,43.575980005052166 0 0,0 -0.7022183029053573,0.25786428756384494 l -7.599916598113316 -21.258319333621763" fill="#e9ff1a" stroke="none" /><path d="M 107.06938296918513 119.77432235084164 l 6.914746977617147 19.34177796080987 a41.54064508358333,41.54064508358333 0 0,0 -0.6735404703088793,0.234292338848166 l -6.581700735263246 -19.457628732226627" fill="#fffc17" stroke="none" /><path d="M 106.38641147887787 120.00534299687104 l 4.296808773220294 13.459692283300862 a35.12890236340996,35.12890236340996 0 0,0 -0.5760460278942074,0.1784605319398005 l -4.065122112454462 -13.531469403047307" fill="#ffaa0f" stroke="none" /><path d="M 104.9986988182912 120.39639698878246 l 4.219657986969299 17.21764454865355 a38.72717680091145,38.72717680091145 0 0,0 -0.6470533864700342,0.15270283737190066 l -3.923472446759386 -17.287543529671677" fill="#ffd914" stroke="none" /><path d="M 104.64783097203109 120.47920084513623 l 4.0533150528589665 17.859654009715065 a39.31383641579406,39.31383641579406 0 0,0 -0.6594195586919006,0.1437174236576199 l -3.7461330775479302 -17.926602891506406" fill="#ffe115" stroke="none" /><path d="M 104.29559338865022 120.5559693870025 l 2.4185266680061877 11.573525622918918 a32.82352597951296,32.82352597951296 0 0,0 -0.5525348471916054,0.11052244407921914 l -2.2194953352836237 -11.613337463660999" fill="#ff8c0c" stroke="none" /><path d="M 103.58742460773223 120.69131181640829 l 2.883333311485121 16.63030032463578 a37.8784033567367,37.8784033567367 0 0,0 -0.6416285820200603,0.10557973900308656 l -2.597427226411989 -16.677346062134536" fill="#ffce13" stroke="none" /><path d="M 103.2317021107853 120.74984581791261 l 4.790713537402083 30.759817536129326 a52.13064906251421,52.13064906251421 0 0,0 -0.8854139880464317,0.13012536533760077 l -4.261974443747966 -30.83752397476581" fill="#86ff25" stroke="none" /><path d="M 102.875027216393 120.80226474461374 l 2.0223864248094556 14.632980719250533 a35.77207404466994,35.77207404466994 0 0,0 -0.6090147537111837,0.07884915276805059 l -1.7708938492074966 -14.665541468218978" fill="#ffb310" stroke="none" /><path d="M 102.15924093988457 120.88869738790638 l 2.3064075666491335 22.312401003051967 a43.43128962820664,43.43128962820664 0 0,0 -0.7422623243007248,0.07029301383850793 l -1.9230456789633936 -22.34870577239566" fill="#eaff1a" stroke="none" /><path d="M 101.80034050326958 120.92268563240118 l 0.8736676684332136 10.153342626366442 a31.190861675209575,31.190861675209575 0 0,0 -0.5338553697974833,0.04132378195965391 l -0.6992433038604945 -10.166844175321149" fill="#ff750a" stroke="none" /><path d="M 101.44090949804482 120.95050786540614 l 1.3710094108539184 19.93417593861087 a40.98126715591738,40.98126715591738 0 0,0 -0.7022543068011988,0.04224587524588245 l -1.0286107519202543 -19.954773791681443" fill="#fff517" stroke="none" /><path d="M 101.08105385017728 120.97215588758144 l 0.31852988423621964 6.179394658239991 a27.18759885815463,27.18759885815463 0 0,0 -0.46629870189645706,0.020024872619260194 l -0.212405421738933 -6.183952099285082" fill="#ff3d05" stroke="none" /><path d="M 100.72087961077811 120.9876233191556 l 0.7726014480661965 22.49344817832356 a43.50671286413193,43.50671286413193 0 0,0 -0.7466304792752496,0.019230552665490543 l -0.38635765472020306 -22.503396448339096" fill="#eaff1a" stroke="none" /><line stroke="#e1ed5e" stroke-width="0.3" x1="101.45913802915013" x2="101.54496967792366" y1="184.9874750549273" y2="189.98673829345242" /><path d="M 101.47630435890484 185.9873277026323 a86.0,86.0 0 0,1 -42.54439059252881,-10.42667462771756" fill="none" id="id91" stroke="none" /><text fill="#e1ed5e" style="font-size:6.75px; font-family:Arial;" text-anchor="middle"><textPath startOffset="22.145653131862474" xlink:href="#id91">July</textPath></text><path d="M 100.0 121.0 l 2.068582966141992e-15 16.891261771003855 a37.891261771003855,37.891261771003855 0 0,0 -0.6504538943829846,-0.005583364381383566 l 0.2899609695341304 -16.888772804816906" fill="#ffce13" stroke="none" /><path d="M 99.63950707515114 120.99690560180557 l -0.4247786692049713 24.74122792478388 a45.74487413877705,45.74487413877705 0 0,0 -0.7850401709107044,-0.020219850073458764 l 0.8494321541864197 -24.730290357360374" fill="#cfff1d" stroke="none" /><path d="M 98.91894614982273 120.97215588758144 l -0.8270024791250961 16.043627159538655 a37.064927809821164,37.064927809821164 0 0,0 -0.6351439814365382,-0.03820868472158134 l 1.1022908126940807 -16.027066496992383" fill="#ffc412" stroke="none" /><path d="M 98.19965949673042 120.92268563240118 l -3.0753910409300746 35.74070562164532 a56.87277614553608,56.87277614553608 0 0,0 -0.971984009054247,-0.09204789622540173 l 3.688474613369337 -35.68264596991474" fill="#54ff2b" stroke="none" /><path d="M 97.84075906011543 120.88869738790638 l -0.9234616398239727 8.933653668429411 a29.981255439395355,29.981255439395355 0 0,0 -0.5114860689938623,-0.057313080888608085 l 1.0766836104186344 -8.916484827033832" fill="#ff6409" stroke="none" /><path d="M 97.48249496171623 120.84855314841334 l -1.9768100100238095 16.370822672272784 a37.48974265362352,37.48974265362352 0 0,0 -0.6382578309655755,-0.08263525458543451 l 2.257545662880179 -16.33447582148695" fill="#ffc912" stroke="none" /><path d="M 97.12497278360702 120.80226474461374 l -2.9111675222120525 21.06375799424737 a42.263978865268896,42.263978865268896 0 0,0 -0.7178333427794676,-0.1054967814398149 l 3.2723259705992054 -21.010680139508676" fill="#f9ff18" stroke="none" /><path d="M 96.41257539226777 120.69131181640829 l -3.324408495137337 19.174304772772977 a40.460361131328625,40.460361131328625 0 0,0 -0.6833278457744342,-0.12452509634829301 l 3.6530710744628285 -19.11441150249332" fill="#ffef16" stroke="none" /><path d="M 95.70440661134978 120.55596938700252 l -6.712152176546691 32.12007799121587 a53.81390554327404,53.81390554327404 0 0,0 -0.9026323828975669,-0.19672452669937796 l 7.262546976063394 -32.000122006382774" fill="#74ff27" stroke="none" /><path d="M 95.35216902796893 120.47920084513623 l -3.425291013039125 15.092464212056846 a36.47627521454123,36.47627521454123 0 0,0 -0.6094453392436757,-0.1438274406278831 l 3.6838685060226886 -15.031440627782736" fill="#ffbc11" stroke="none" /><path d="M 94.6519064749342 120.30758222061772 l -5.904442239470451 22.42012890817181 a44.18457716712307,44.18457716712307 0 0,0 -0.7318198919315049,-0.1994607658044375 l 6.288443532336651 -22.31546764822323" fill="#e1ff1b" stroke="none" /><path d="M 94.30408787586889 120.21278271476187 l -4.432948048211519 15.73096875998514 a37.343635046273235,37.343635046273235 0 0,0 -0.6155297796448959,-0.17917174802750407 l 4.702337840238021 -15.652553317655121" fill="#ffc712" stroke="none" /><path d="M 93.95794788825049 120.11202640906438 l -4.776643783684909 15.89989363669145 a37.60189578013056,37.60189578013056 0 0,0 -0.6165983349367881,-0.19102374032205208 l 5.0488827514933305 -15.815553308562748" fill="#ffcb12" stroke="none" /><path d="M 93.27111125876986 119.89276391827306 l -10.883765201394622 32.17591789958445 a54.96683732171554,54.96683732171554 0 0,0 -0.8912328969992578,-0.31001706519672806 l 11.434503870438903 -31.98434240181913" fill="#68ff28" stroke="none" /><path d="M 92.93061703081489 119.77432235084164 l -6.2790806870193645 17.56370621216715 a39.652362589801285,39.652362589801285 0 0,0 -0.6389899839491968,-0.23464597303966742 l 6.57965982262268 -17.453329390118764" fill="#ffe515" stroke="none" /><path d="M 92.25597844496254 119.51999308798841 l -3.924565145287104 9.892467881824473 a31.64251532169586,31.64251532169586 0 0,0 -0.5031846108758787,-0.20464080069387255 l 4.093804217353424 -9.823639824551309" fill="#ff7b0b" stroke="none" /><path d="M 91.92203290615298 119.3841803445677 l -6.285377925754503 15.082618910318807 a37.339870527744964,37.339870527744964 0 0,0 -0.589551969746552,-0.2516446789576955 l 6.543364970671486 -14.972499581701708" fill="#ffc712" stroke="none" /><path d="M 91.59046798132341 119.24265499422711 l -6.570872706493135 15.035442664493088 a37.408561918772634,37.408561918772634 0 0,0 -0.5862217307577695,-0.26220952372856055 l 6.828007840106539 -14.920429389854673" fill="#ffc812" stroke="none" /><path d="M 90.93487009805054 118.94263497670748 l -14.049717379396633 29.358505694064057 a53.547141426388144,53.547141426388144 0 0,0 -0.8257472824881074,-0.4039143745889468 l 14.55162491114681 -29.11299756937789" fill="#77ff27" stroke="none" /><path d="M 90.6110303473126 118.78422872680471 l -7.30896608488241 14.622828252042776 a37.34772434679218,37.34772434679218 0 0,0 -0.5710160770809452,-0.2915648776081616 l 7.558909383676937 -14.495205422761778" fill="#ffc712" stroke="none" /><path d="M 89.97174638481275 118.45085714620012 l -11.510837802755868 21.17864506438919 a45.10465502106865,45.10465502106865 0 0,0 -0.6771192684098057,-0.37558664399656577 l 11.872701259321776 -20.977925504959476" fill="#d6ff1c" stroke="none" /><line stroke="#e1ed5e" stroke-width="0.3" x1="58.13341422392154" x2="55.67067388415222" y1="173.97424548756322" y2="178.32567169271397" /><path d="M 57.64086615596768 174.84453072859336 a86.0,86.0 0 0,1 -31.369924170532247,-30.572349798747897" fill="none" id="id92" stroke="none" /><text fill="#e1ed5e" style="font-size:6.75px; font-family:Arial;" text-anchor="middle"><textPath startOffset="22.145653131862474" xlink:href="#id92">August</textPath></text><path d="M 89.65649057296885 118.27599006163327 l -8.092796224681322 14.299195492254821 a37.43046994032541,37.43046994032541 0 0,0 -0.5564797450902137,-0.32128373062641163 l 8.337068437631936 -14.158164864352237" fill="#ffc812" stroke="none" /><path d="M 89.34428304082925 118.09573695890944 l -8.302940004070486 14.100207322976656 a37.36321054262025,37.36321054262025 0 0,0 -0.5498925946939102,-0.33019470341614654 l 8.543765355321822 -13.955598619024592" fill="#ffc812" stroke="none" /><path d="M 88.72937992617639 117.7192867562869 l -16.647112554793807 26.172025948036747 a52.01775779511927,52.01775779511927 0 0,0 -0.7493390052761197,-0.48571248996296307 l 17.093937192326937 -25.88239961636989" fill="#87ff25" stroke="none" /><path d="M 88.4268655584334 117.5232005979908 l -8.728262986898692 13.215702622628513 a36.8378461470686,36.8378461470686 0 0,0 -0.5246826914809352,-0.35302993067291333 l 8.95384196647663 -13.063923017898478" fill="#ffc111" stroke="none" /><path d="M 88.1277618465304 117.32195027204791 l -6.764982230628961 9.870311248431005 a32.96612003623686,32.96612003623686 0 0,0 -0.464045090841262,-0.32393951296513734 l 6.9334224126439885 -9.752726919660738" fill="#ff8d0d" stroke="none" /><path d="M 87.83215693770417 117.11559508785305 l -14.20137883412645 19.976017817594485 a45.50959911216883,45.50959911216883 0 0,0 -0.6328412929058069,-0.45812829273492944 l 14.542201137406211 -19.72928875348649" fill="#d2ff1c" stroke="none" /><path d="M 87.2517909369889 116.68781488649013 l -10.9328218736175 14.31141478086223 a39.009530453349726,39.009530453349726 0 0,0 -0.5286535443558354,-0.4110841936234732 l 11.176885362608564 -14.121629535617963" fill="#ffdd14" stroke="none" /><path d="M 86.96720088162412 116.46651593811092 l -9.68392815326554 12.235326872677197 a36.60389977405859,36.60389977405859 0 0,0 -0.4893579363600073,-0.3941921137008735 l 9.89253685998081 -12.067286465182914" fill="#ffbe11" stroke="none" /><path d="M 86.68645165197938 116.24036423190432 l -19.779692117314735 24.128008250172975 a52.19931092790637,52.19931092790637 0 0,0 -0.6881004287575272,-0.5740378508093307 l 20.190966880234154 -23.78490821545177" fill="#85ff25" stroke="none" /><path d="M 86.13680546590413 115.77377054828092 l -11.750065707060626 13.369417844823337 a38.799027434939326,38.799027434939326 0 0,0 -0.4965074093813198,-0.4439799870853908 l 11.977838143265318 -13.165742327854563" fill="#ffda14" stroke="none" /><path d="M 85.86807049272751 115.53346607816431 l -10.535509590153971 11.580370589211705 a36.6557320272067,36.6557320272067 0 0,0 -0.46181025738533393,-0.42744467980904677 l 10.732749618853271 -11.39780816327028" fill="#ffbe11" stroke="none" /><path d="M 85.34317274990678 115.03919595460226 l -10.956130158974771 11.241954725494999 a36.69771748091027,36.69771748091027 0 0,0 -0.44737677085242605,-0.4435530607445805 l 11.14749884995716 -11.052221654521759" fill="#ffbf11" stroke="none" /><path d="M 84.83555147118756 114.52719865689866 l -22.528175682948937 21.581482696314193 a52.197421287233354,52.197421287233354 0 0,0 -0.6142994364357547,-0.6523647136052217 l 22.895330953120943 -21.191576522764482" fill="#85ff25" stroke="none" /><path d="M 84.58840730492382 114.26474011684316 l -13.980699741514472 12.940326961017854 a40.05025005401316,40.05025005401316 0 0,0 -0.46268013071243896,-0.5085665132821211 l 14.200777573068793 -12.69842287217806" fill="#ffea16" stroke="none" /><path d="M 84.3458050057657 113.99807769240083 l -8.482724607864881 7.585304651428418 a32.37951947262528,32.37951947262528 0 0,0 -0.36695082803914886,-0.4175226820741358 l 8.611686499862623 -7.438569691542982" fill="#ff850c" stroke="none" /><path d="M 84.1078160697243 113.72728997021213 l -18.845300226845552 16.278121491960682 a45.9022605388944,45.9022605388944 0 0,0 -0.5099641395731914,-0.6007364741306287 l 19.121958929925857 -15.9522182353805" fill="#cdff1d" stroke="none" /><path d="M 83.8745106332314 113.45245675266167 l -15.98374681258628 13.334210072714157 a41.81541064769402,41.81541064769402 0 0,0 -0.4550973861130158,-0.5551448132579782 l 16.210291017937926 -13.057862977757683" fill="#feff18" stroke="none" /><path d="M 83.4222238831116 112.89097897827486 l -16.611856393312436 12.91748000735489 a42.04317140006346,42.04317140006346 0 0,0 -0.4381459488884924,-0.57354711176894 l 16.831154319555225 -12.630411982345079" fill="#fbff18" stroke="none" /><path d="M 83.20337586046588 112.60449989151573 l -24.970185002237965 18.738092341486773 a52.21900452679545,52.21900452679545 0 0,0 -0.5318828384583031,-0.7216012214255167 l 25.288169860280096 -18.306684810792376" fill="#85ff25" stroke="none" /><path d="M 82.98947788004972 112.3143062007846 l -14.434157141148129 10.44921663973353 a38.81940012344528,38.81940012344528 0 0,0 -0.38613269380532855,-0.5431439905592436 l 14.611404933483417 -10.199895422464783" fill="#ffda14" stroke="none" /><path d="M 82.576782715395 111.72311816256416 l -21.577354226061633 14.518206890017467 a47.00693266608522,47.00693266608522 0 0,0 -0.44472041533571915,-0.6733633906437773 l 21.82339908031808 -14.145663621034629" fill="#c0ff1e" stroke="none" /><path d="M 82.37810715431573 111.42229804090323 l -6.765602933682617 4.38538208191739 a29.062565290319014,29.062565290319014 0 0,0 -0.26776629617353387,-0.42097309238444364 l 6.839886921482041 -4.268595314854275" fill="#ff5808" stroke="none" /><path d="M 82.18462484594161 111.11811171558189 l -15.64951950405818 9.766457603990483 a39.44698226915288,39.44698226915288 0 0,0 -0.35358027469591463,-0.5775468061265339 l 15.814867743209499 -9.496373681739392" fill="#ffe215" stroke="none" /><line stroke="#e1ed5e" stroke-width="0.3" x1="26.387840678322732" x2="22.057713659400548" y1="142.50000000000003" y2="145.00000000000006" /><path d="M 25.521815274538298 143.00000000000003 a86.0,86.0 0 0,1 -11.493303480769221,-40.785679425670985" fill="none" id="id93" stroke="none" /><text fill="#e1ed5e" style="font-size:6.75px; font-family:Arial;" text-anchor="middle"><textPath startOffset="21.40746469413373" xlink:href="#id93">September</textPath></text><path d="M 81.81346652052679 110.50000000000001 l -20.17203160624026 11.646327877964467 a44.29265575592891,44.29265575592891 0 0,0 -0.3745189446117512,-0.6617390894168034 l 20.36898391587339 -11.29833201844854" fill="#e0ff1b" stroke="none" /><path d="M 81.63589988554817 110.18625677009913 l -16.62430190483656 9.221220030980435 a40.010479022973286,40.010479022973286 0 0,0 -0.3279995251391978,-0.603482182899677 l 16.78014677959109 -8.93448301460617" fill="#ffe915" stroke="none" /><path d="M 81.4637452351635 109.86951160357371 l -13.215303645531828 7.036404836307659 a35.971814968934815,35.971814968934815 0 0,0 -0.2855338714117891,-0.5475488474842711 l 13.334145585918566 -6.808509745718885" fill="#ffb510" stroke="none" /><path d="M 81.29705330413844 109.54985784667822 l -18.34147286106234 9.365286731026698 a41.59413077232033,41.59413077232033 0 0,0 -0.31924502894118817,-0.6387039116491556 l 18.49953780321526 -9.04905096321379" fill="#fffd17" stroke="none" /><path d="M 80.9802524753101 108.90220220490708 l -16.527303170500517 7.735612396253208 a39.248053299864694,39.248053299864694 0 0,0 -0.28037227234173734,-0.6126640142057517 l 16.65765990769731 -7.4507593998327675" fill="#ffe015" stroke="none" /><path d="M 80.68587082218212 108.24405325689762 l -6.8310727165654725 2.9157787420094614 a28.427336005012798,28.427336005012798 0 0,0 -0.18772080059870033,-0.4504615840789343 l 6.880119361700658 -2.7980846484892457" fill="#ff4f07" stroke="none" /><path d="M 80.5471966667186 107.91128576633889 l -15.07573363827727 6.131169626619607 a37.27479602706798,37.27479602706798 0 0,0 -0.23596956067646943,-0.5947974396305865 l 15.178761873919864 -5.871471169775455" fill="#ffc612" stroke="none" /><path d="M 80.41425534168474 107.57618678355246 l -14.802892629770973 5.726076871547652 a36.8717858650941,36.8717858650941 0 0,0 -0.223283799762122,-0.5922868065802576 l 14.899007113347531 -5.471121784773249" fill="#ffc112" stroke="none" /><path d="M 80.28708602549918 107.23885506374661 l -18.916180171422305 6.946283375343087 a41.15124623958226,41.15124623958226 0 0,0 -0.23781467838645348,-0.6652099809380587 l 19.032635019852698 -6.620538438024106" fill="#fff817" stroke="none" /><path d="M 80.16572619554312 106.89939002012753 l -15.561040562264493 5.41293767629458 a37.47561463702918,37.47561463702918 0 0,0 -0.20614189648156414,-0.6094218879331935 l 15.651667880318424 -5.145014113887225" fill="#ffc912" stroke="none" /><path d="M 79.94057633289273 106.21446072829308 l -18.47130609022809 5.722457843404076 a40.337416385040534,40.337416385040534 0 0,0 -0.19923548900010904,-0.6631901450503768 l 18.56681789923183 -5.4045300947629755" fill="#ffed16" stroke="none" /><path d="M 79.83685265289637 105.86919833188381 l -43.07016473837048 12.537097244033022 a65.85775181500642,65.85775181500642 0 0,0 -0.30665096576427237,-1.0881960966366826 l 43.279034196209324 -11.795893223493344" fill="#36ff6f" stroke="none" /><path d="M 79.73907114497094 105.5222062557868 l -17.688003143458523 4.8209439118058235 a39.333219995510234,39.333219995510234 0 0,0 -0.1719620642575937,-0.6529679674394463 l 17.768154688520852 -4.516595439993575" fill="#ffe115" stroke="none" /><path d="M 79.56144815229197 104.8234425847677 l -21.656039673303958 5.110766396560865 a43.25093228365793,43.25093228365793 0 0,0 -0.16433117255908467,-0.7240734674315368 l 21.74058170742071 -4.7382585951903025" fill="#edff1a" stroke="none" /><path d="M 79.48165901384964 104.47187691870673 l -16.770617235314464 3.655077970372435 a38.16430008543688,38.16430008543688 0 0,0 -0.1340153739564728,-0.6413120784932157 l 16.830890320095303 -3.36664944059381" fill="#ffd213" stroke="none" /><path d="M 79.34024301695615 103.76489593502545 l -13.110509730647223 2.3891716069814644 a34.32642511572409,34.32642511572409 0 0,0 -0.10066662645671523,-0.580618350287369 l 13.149591174596171 -2.1637602237735027" fill="#ffa00e" stroke="none" /><path d="M 79.2786578344484 103.40968896794605 l -20.53011244661553 3.3782221904665573 a41.806198649413076,41.806198649413076 0 0,0 -0.11044502478288633,-0.7091362870210662 l 20.585078963536684 -3.025297721514041" fill="#feff18" stroke="none" /><path d="M 79.22317932658666 103.0534771498775 l -17.62562651538322 2.590360125977629 a38.81495651530014,38.81495651530014 0 0,0 -0.09122528303338291,-0.6600607042056639 l 17.667496314971817 -2.2874111135718795" fill="#ffda14" stroke="none" /><path d="M 79.13060592940153 102.33845913500099 l -31.327256619513104 3.510284446620716 a52.52331048923978,52.52331048923978 0 0,0 -0.09271016470374915,-0.8968867436271838 l 31.38289917669852 -2.9719931807106006" fill="#82ff25" stroke="none" /><path d="M 79.0935383218832 101.97986365728391 l -26.847841721062085 2.5425185245803714 a47.96796257649132,47.96796257649132 0 0,0 -0.07059599760998524,-0.8204325027498853 l 26.88753134136981 -2.081264974454824" fill="#b5ff20" stroke="none" /><path d="M 79.03789590574601 101.26102812881392 l -16.393334079407083 0.9861822699775049 a37.42297042890438,37.42297042890438 0 0,0 -0.03307194518924515,-0.6415869014301943 l 16.4078476140529 -0.7046235751705798" fill="#ffc812" stroke="none" /><path d="M 79.00696218219943 100.54070618675478 l -12.30269196127072 0.31687370426955114 a33.30677205600123,33.30677205600123 0 0,0 -0.009815297004581072,-0.5716918431762585 l 12.306318689873967 -0.10563494512424021" fill="#ff920d" stroke="none" /><line stroke="#e1ed5e" stroke-width="0.3" x1="15.003131293944662" x2="10.003315487706104" y1="100.72959589197737" y2="100.7725132973878" /><path d="M 14.003168132696942 100.73817937305945 a86.0,86.0 0 0,1 10.791469493833604,-42.45332614584628" fill="none" id="id94" stroke="none" /><text fill="#e1ed5e" style="font-size:6.75px; font-family:Arial;" text-anchor="middle"><textPath startOffset="22.145653131862435" xlink:href="#id94">October</textPath></text><path d="M 79.03789590574601 98.7389718711861 l -18.665976809579828 -1.1228988131549487 a39.69972170916874,39.69972170916874 0 0,0 0.04676256466353141,-0.6799174272355162 l 18.643950283751234 1.44315966454479" fill="#ffe515" stroke="none" /><path d="M 79.06263194458094 98.37931529534042 l -22.355307407941655 -1.7304421782200463 a43.422180969649986,43.422180969649986 0 0,0 0.06390582420642288,-0.7426825467305969 l 22.322307961037488 2.113945772326324" fill="#ebff1a" stroke="none" /><path d="M 79.0935383218832 98.0201363427161 l -19.13880694392139 -1.8124649161319029 a40.22443654073905,40.22443654073905 0 0,0 0.07100112506373042,-0.6868714779631895 l 19.104873426376 2.140740916378005" fill="#ffec16" stroke="none" /><path d="M 79.17382384314186 97.30363454192245 l -24.899553203294758 -3.223745668588301 a46.107375128823165,46.107375128823165 0 0,0 0.10836437094540247,-0.784070606509914 l 24.840544315794148 3.6507045832982814" fill="#cbff1d" stroke="none" /><path d="M 79.22317932658666 96.9465228501225 l -17.605426521622505 -2.587391422519786 a38.79453953834091,38.79453953834091 0 0,0 0.10248872222714941,-0.6580511171468888 l 17.558416307257087 2.8892307215981248" fill="#ffda14" stroke="none" /><path d="M 79.2786578344484 96.59031103205396 l -8.811473889665166 -1.4499246753853359 a29.929969410504285,29.929969410504285 0 0,0 0.08777345850465477,-0.5062539837659363 l 8.785285613668277 1.6009716920718648" fill="#ff6409" stroke="none" /><path d="M 79.48165901384962 95.52812308129327 l -21.082534565200536 -4.594840283315 a42.57743777472315,42.57743777472315 0 0,0 0.16177224176797278,-0.7127983462114751 l 21.000551461874903 4.956072963465484" fill="#f5ff19" stroke="none" /><path d="M 79.56144815229197 95.17655741523228 l -18.7432041454812 -4.423345143234645 a40.258081002409384,40.258081002409384 0 0,0 0.16450692897733213,-0.671244408354678 l 18.66450968998757 4.74444537619744" fill="#ffec16" stroke="none" /><path d="M 79.64726062577567 94.8264132398404 l -17.855832881743112 -4.538882893847759 a39.42368654273086,39.42368654273086 0 0,0 0.17235757762285106,-0.6544697961091559 l 17.775285823315535 4.844733194329699" fill="#ffe215" stroke="none" /><path d="M 80.05021161711548 93.44210830539832 l -17.50995992782096 -5.755871620271414 a39.43173227840893,39.43173227840893 0 0,0 0.2169019014672274,-0.6412319307457048 l 17.40857260478137 6.055605225491281" fill="#ffe215" stroke="none" /><path d="M 80.16572619554312 93.10060997987247 l -18.245659962595923 -6.346787661481596 a40.31801804250661,40.31801804250661 0 0,0 0.2329994197049443,-0.6517408454016334 l 18.134020372847036 6.65906346326415" fill="#ffed16" stroke="none" /><path d="M 80.41425534168474 92.42381321644754 l -17.53881152412955 -6.784389074117424 a39.805261093320226,39.805261093320226 0 0,0 0.25198876919357555,-0.6351763096152074 l 17.419764079969845 7.084466400946214" fill="#ffe715" stroke="none" /><path d="M 80.5471966667186 92.08871423366112 l -17.06503063895481 -6.94019939867075 a39.422313600679374,39.422313600679374 0 0,0 0.26032647833296707,-0.6246887794722671 l 16.94337831608536 7.232120687584282" fill="#ffe215" stroke="none" /><path d="M 80.68587082218212 91.75594674310238 l -14.55714439013615 -6.2135793188367545 a36.82779266817544,36.82779266817544 0 0,0 0.2531754981613387,-0.5793150859394562 l 14.448335009957834 6.462556474552078" fill="#ffc111" stroke="none" /><path d="M 80.9802524753101 91.09779779509293 l -25.41273322945867 -11.894442315510737 a49.058595263994334,49.058595263994334 0 0,0 0.36354928563940425,-0.7596781831476134 l 25.20480468585936 12.328933000723437" fill="#a8ff21" stroke="none" /><path d="M 81.46374523516351 90.13048839642627 l -11.494543948262645 -6.120197219687223 a34.022340595546126,34.022340595546126 0 0,0 0.2789097214520813,-0.5131624732152127 l 11.387788877195213 6.316614526377056" fill="#ff9c0e" stroke="none" /><path d="M 81.63589988554816 89.8137432299009 l -7.133518211816578 -3.956842302474611 a29.157431157231507,29.157431157231507 0 0,0 0.24654223501003283,-0.43561650604203794 l 7.064542611785176 4.078715578615754" fill="#ff5908" stroke="none" /><line stroke="#e1ed5e" stroke-width="0.3" x1="26.387840678322718" x2="22.05771365940052" y1="57.49999999999999" y2="54.99999999999999" /><path d="M 25.521815274538284 56.99999999999999 a86.0,86.0 0 0,1 29.574782752854787,-30.34633250058573" fill="none" id="id95" stroke="none" /><text fill="#e1ed5e" style="font-size:6.75px; font-family:Arial;" text-anchor="middle"><textPath startOffset="21.40746469413373" xlink:href="#id95">November</textPath></text><path d="M 81.99639281039701 89.18935116829357 l -4.976463152056683 -2.988223137409944 a26.804710416784808,26.804710416784808 0 0,0 0.24026215256833977,-0.39245016981862657 l 4.9244330350329495 3.0732104233531135" fill="#ff3805" stroke="none" /><path d="M 82.18462484594161 88.88188828441811 l -53.44612546217515 -33.35433514674566 a84.0,84.0 0 0,0 0.7739292334964403,-1.2167453012853122 l 52.865678537052815 34.266894122709644" fill="#4dd2ff" stroke="none" /><path d="M 82.78059297857968 87.97951657250589 l -15.038242642534732 -10.497861293269658 a39.33995184040785,39.33995184040785 0 0,0 0.39131056971520134,-0.550427321469645 l 14.855816974289556 10.754465841448823" fill="#ffe115" stroke="none" /><path d="M 83.2033758604659 87.39550010848427 l -11.205808961135876 -8.409047952828747 a35.01007644327633,35.01007644327633 0 0,0 0.36485171439455194,-0.47760260603983967 l 11.059805269387017 8.600171472109471" fill="#ffa90f" stroke="none" /><path d="M 83.64595745247003 86.82634096563983 l -17.372141074911276 -13.993767140605199 a43.30732624749325,43.30732624749325 0 0,0 0.4713346268635692,-0.5749516068352424 l 17.129359628809077 14.289921029138933" fill="#ecff1a" stroke="none" /><path d="M 83.8745106332314 86.54754324733833 l -14.25585629417681 -11.89274234770113 a39.56520291375843,39.56520291375843 0 0,0 0.43956080646304735,-0.517801524753543 l 14.049600924206649 12.13571065490423" fill="#ffe415" stroke="none" /><path d="M 84.10781606972428 86.27271002978789 l -11.246931411099832 -9.714831481476303 a35.861743399731644,35.861743399731644 0 0,0 0.40641419791867145,-0.46242475280614154 l 11.078506149222568 9.906468512093744" fill="#ffb410" stroke="none" /><path d="M 84.58840730492382 85.73525988315684 l -13.37190348054601 -12.3768342306659 a39.22069779855924,39.22069779855924 0 0,0 0.46157936465269384,-0.4901812897222564 l 13.157468282157044 12.604556980332667" fill="#ffdf14" stroke="none" /><path d="M 84.83555147118756 85.47280134310135 l -13.3521392292021 -12.791047343966852 a39.49028161363691,39.49028161363691 0 0,0 0.47315600382203965,-0.48549974269028495 l 13.130596424229259 13.018369778724868" fill="#ffe315" stroke="none" /><path d="M 86.13680546590413 84.22622945171909 l -7.885523159334806 -8.972277829802124 a32.94500920684301,32.94500920684301 0 0,0 0.4280035500489835,-0.36969927264746116 l 7.730340129522974 9.106321234914295" fill="#ff8d0d" stroke="none" /><path d="M 86.40962598614128 83.9905735841838 l -12.449926365920305 -14.665981954159564 a40.23776736517446,40.23776736517446 0 0,0 0.5304212734620299,-0.4424962914083401 l 12.196330758296366 14.877540429479787" fill="#ffec16" stroke="none" /><path d="M 86.96720088162412 83.53348406188908 l -16.18768117481481 -20.452606354555986 a47.083522164613385,47.083522164613385 0 0,0 0.638071532361667,-0.4961682829055938 l 15.834199697817896 20.727475689082386" fill="#bfff1e" stroke="none" /><path d="M 87.25179093698888 83.31218511350988 l -4.624330255373598 -6.053396747279469 a28.61761396309483,28.61761396309483 0 0,0 0.3929430214649673,-0.29487176889132233 l 4.519734244997879 6.131887543434792" fill="#ff5107" stroke="none" /><path d="M 87.83215693770416 82.88440491214696 l -7.033785181461963 -9.893899722777078 a33.13933217699072,33.13933217699072 0 0,0 0.46648329841626873,-0.32564157121323867 l 6.862906791871929 10.013186109795443" fill="#ff900d" stroke="none" /><path d="M 88.12776184653039 82.6780497279521 l -9.01104600148552 -13.147385414539722 a36.939030499981484,36.939030499981484 0 0,0 0.526123863649666,-0.353999615625507 l 8.784025849738866 13.300134704222339" fill="#ffc212" stroke="none" /><path d="M 88.72937992617638 82.28071324371311 l -11.892645303016856 -18.697213732223073 a43.15898945466151,43.15898945466151 0 0,0 0.6285508162106007,-0.3922621967327866 l 11.569930358016556 18.898611725797398" fill="#eeff19" stroke="none" /><path d="M 89.03521579738668 82.08984904055464 l -16.949007580421192 -27.684930115248193 a53.46111848731265,53.46111848731265 0 0,0 0.7868133582014339,-0.47245881461596867 l 16.471261465662323 27.971802930400088" fill="#78ff26" stroke="none" /><line stroke="#e1ed5e" stroke-width="0.3" x1="56.869717070023135" x2="54.33264160355391" y1="26.7553504044142" y2="22.446841604673864" /><path d="M 56.362301976729285 25.89364864446614 a86.0,86.0 0 0,1 42.16139366436587,-11.88097634709845" fill="none" id="id96" stroke="none" /><text fill="#e1ed5e" style="font-size:6.75px; font-family:Arial;" text-anchor="middle"><textPath startOffset="22.145653131862474" xlink:href="#id96">December</textPath></text><path d="M 89.97174638481275 81.54914285379989 l -9.930969066464302 -18.271864533936956 a41.79627803587974,41.79627803587974 0 0,0 0.6333353871195907,-0.3372154208836331 l 9.615844863558149 18.439650422543163" fill="#feff18" stroke="none" /><path d="M 90.61103034731259 81.2157712731953 l -5.012831391667669 -10.029020745960151 a32.2120353051615,32.2120353051615 0 0,0 0.4967398801897831,-0.24298036735365586 l 4.839931262215833 10.113594863411022" fill="#ff830c" stroke="none" /><path d="M 90.93487009805054 81.0573650232925 l -6.633937684194386 -13.86237829674061 a36.367975183469014,36.367975183469014 0 0,0 0.5654549690972867,-0.26466147703270054 l 6.3949940012255775 13.974216005343854" fill="#ffbb11" stroke="none" /><path d="M 91.5904679813234 80.7573450057729 l -25.081273301532576 -57.39086168950242 a83.63211058147225,83.63211058147225 0 0,0 1.3204511646801922,-0.5636220833222064 l 24.092387061681954 57.81295842248404" fill="#4dd5ff" stroke="none" /><path d="M 93.27111125876988 80.10723608172694 l -4.933131051025347 -14.583925392413212 a36.395670229582905,36.395670229582905 0 0,0 0.5935566429382113,-0.19511385806676493 l 4.682051670439375 14.666460171882006" fill="#ffbb11" stroke="none" /><path d="M 93.95794788825049 79.88797359093562 l -3.471205503654419 -11.554514173260353 a33.06466184477108,33.06466184477108 0 0,0 0.5450000781692782,-0.15864157983883515 l 3.272345413103517 11.61239944740171" fill="#ff8f0d" stroke="none" /><path d="M 94.6519064749342 79.69241777938228 l -4.671028287037151 -17.736655230364715 a39.34141335936588,39.34141335936588 0 0,0 0.6545562659426112,-0.16638564318024607 l 4.365866727869162 17.81422610538022" fill="#ffe115" stroke="none" /><path d="M 95.00130118170881 79.60360301121753 l -4.367753768363868 -17.82192587455277 a39.349340992501894,39.349340992501894 0 0,0 0.6574485012282463,-0.15515605615040742 l 4.061173113395716 17.894278074349412" fill="#ffe115" stroke="none" /><path d="M 95.70440661134978 79.44403061299748 l -3.1068790513221103 -14.867540963453425 a36.18869552461665,36.18869552461665 0 0,0 0.6091824310476857,-0.12185354735854663 l 2.851200134743448 14.918683907474838" fill="#ffb811" stroke="none" /><path d="M 96.41257539226777 79.30868818359171 l -5.8845617302647035 -33.94058829874049 a55.446938918021374,55.446938918021374 0 0,0 0.9392249314277292,-0.1545491050494308 l 5.301059295783901 34.036603402285586" fill="#63ff29" stroke="none" /><path d="M 97.12497278360702 79.19773525538626 l -2.9145165166984266 -21.08798965005098 a42.288440854293796,42.288440854293796 0 0,0 0.719955023003307,-0.09321259172948938 l 2.5520836718043256 21.134913837980864" fill="#f8ff18" stroke="none" /><path d="M 97.48249496171623 79.15144685158666 l -2.1940050055117863 -18.16950880721188 a39.301494700148424,39.301494700148424 0 0,0 0.6704911697376019,-0.07512993407984637 l 1.8817779341733851 18.2044945017987" fill="#ffe015" stroke="none" /><path d="M 97.84075906011542 79.11130261209362 l -0.20535891281645355 -1.986661194911232 a22.997246851653365,22.997246851653365 0 0,0 0.39303437790480805,-0.03722076422388757 l 0.17122497152662994 1.9898937146403033" fill="#ff0000" stroke="none" /><path d="M 98.5590905019552 79.04949213459386 l -1.4090090998339044 -20.48668307659461 a41.535079501288585,41.535079501288585 0 0,0 0.7117444258649999,-0.0428167772427138 l 1.057120321836421 20.507851831662016" fill="#fffc17" stroke="none" /><path d="M 98.9189461498227 79.02784411241856 l -1.0815967231343253 -20.982687477918184 a42.010545572818415,42.010545572818415 0 0,0 0.7205293475444979,-0.030942630430532306 l 0.7212416149890073 20.998162676774545" fill="#fcff18" stroke="none" /><path d="M 99.27912038922189 79.0123766808444 l -0.6973184239712664 -20.301665072784054 a41.31363723491955,41.31363723491955 0 0,0 0.708994514608389,-0.01826118371962973 l 0.34871059529213344 20.31064397385373" fill="#fffa17" stroke="none" /></svg>