<?xml version="1.0" encoding="utf-8" ?>
<svg baseProfile="full" height="200mm" version="1.1" viewBox="0,0,200,200" width="200mm" xmlns="http://www.w3.org/2000/svg" xmlns:ev="http://www.w3.org/2001/xml-events" xmlns:xlink="http://www.w3.org/1999/xlink"><defs /><rect fill="#1a1a1a" height="200" width="200" x="0" y="0" /><rect fill="#1a1a1a" height="200" width="180" x="10" y="0" /><text alignment-baseline="middle" fill="#e1ed5e" style="dominant-baseline: central; font-size:9.0px; font-family:Arial;" text-anchor="middle" x="100.0" y="100.0">2026</text><line stroke="#e1ed5e" stroke-width="0.3" x1="100.0" x2="100.0" y1="15.0" y2="10.0" /><path d="M 100.0 14.0 a86.0,86.0 0 0,1 42.46469731375804,11.215312516191453" fill="none" id="id109" stroke="none" /><text fill="#e1ed5e" style="font-size:6.75px; font-family:Arial;" text-anchor="middle"><textPath startOffset="22.20632615414155" xlink:href="#id109">January</textPath></text><path d="M 101.08401301168833 79.027996857942 l 1.3444934217115039 -26.011422335875952 a47.04614663431679,47.04614663431679 0 0,0 0.8083826267389552,0.04876384764208987 l -1.792038097290071 25.98442521885356" fill="#ffec16" stroke="none" /><path d="M 101.44485096284872 79.0497635885617 l 1.8980976274039858 -27.522280877814854 a48.58765519794116,48.58765519794116 0 0,0 0.833879409962754,0.06472509119236633 l -2.371567226729081 27.485530524434026" fill="#fbff18" stroke="none" /><path d="M 101.80526077348638 79.07773832637324 l 1.4120351915038125 -16.364931982628825 a37.425737188269906,37.425737188269906 0 0,0 0.6413610673420264,0.060904961406055676 l -1.693521385936083 16.33820147670759" fill="#ff5507" stroke="none" /><path d="M 102.16513564639614 79.11191278185805 l 3.229987805629592 -31.161219441297707 a52.32817291661335,52.32817291661335 0 0,0 0.8951439074356251,0.10057984792402985 l -3.765898416574942 31.101003639903077" fill="#c6ff1e" stroke="none" /><path d="M 102.52436894288641 79.15227682838746 l 1.5411998736561816 -12.728134850751939 a33.821104235965166,33.821104235965166 0 0,0 0.577350844485448,0.07495670969439705 l -1.7600654466494756 12.699719817893405" fill="#ff1702" stroke="none" /><path d="M 103.2404852339499 79.25152402106235 l 4.13109697091415 -26.450966469362843 a47.771619102072506,47.771619102072506 0 0,0 0.8113686337698798,0.13388277664675138 l -4.585794810822906 26.375937429776467" fill="#fff717" stroke="none" /><path d="M 103.95276090670814 79.375362276772 l 7.065660631891334 -36.86706437536459 a58.53803398983937,58.53803398983937 0 0,0 0.9879926461787727,0.1981820302712139 l -7.699219687537232 36.739978389016166" fill="#74ff27" stroke="none" /><path d="M 104.307194497241 79.44645832069477 l 4.623140348528759 -22.061206640106526 a43.540414040111926,43.540414040111926 0 0,0 0.7322197148396863,0.16003486910541354 l -5.0022027875219734 21.978358272905243" fill="#ffb711" stroke="none" /><path d="M 104.66035177308747 79.52364482259891 l 6.327659615482488 -27.802065602974526 a49.51305188859143,49.51305188859143 0 0,0 0.8294056590762835,0.19629352248126286 l -6.805288961521295 27.68902616835239" fill="#eeff19" stroke="none" /><path d="M 105.01212808612495 79.60689891045804 l 3.3195231268545795 -13.50631299356028 a34.90826101530086,34.90826101530086 0 0,0 0.582288264053474,0.14843824369626105 l -3.5515202795930785 13.447171753695152" fill="#ff2a04" stroke="none" /><path d="M 105.71112130821622 79.79150937346287 l 14.09234574913935 -49.864995262436686 a72.81806597352046,72.81806597352046 0 0,0 1.2032657723463074,0.3512662746678914 l -14.948601739209085 49.61503065885009" fill="#3cffa7" stroke="none" /><path d="M 106.0581310904928 79.89281104454417 l 4.608774389121893 -15.296713806765998 a36.975927348856196,36.975927348856196 0 0,0 0.6078395704005215,0.18885871333485876 l -4.871399332233133 15.215114958548618" fill="#ff4d07" stroke="none" /><path d="M 106.40334571778207 80.00007090966166 l 7.123244328306401 -22.248428827395603 a44.36093309455847,44.36093309455847 0 0,0 0.7252319215579407,0.23909756215991756 l -7.50515907210676 22.12251754097645" fill="#ffc412" stroke="none" /><path d="M 106.74666289553966 80.11325718540242 l 8.79683831105782 -25.929924732012665 a48.3814784275564,48.3814784275564 0 0,0 0.7863556789214052,0.27434405587717453 l -9.241875994042498 25.774659822963283" fill="#feff18" stroke="none" /><path d="M 107.08798089147638 80.2323363322302 l 11.520798823915076 -32.130345696763634 a55.13338424672626,55.13338424672626 0 0,0 0.8905818274505406,0.3280088029792493 l -12.072162977138193 31.92727362597806" fill="#a0ff22" stroke="none" /><path d="M 107.4271985657038 80.35727306442388 l 4.062841503028013 -10.74500506759274 a32.487463383241774,32.487463383241774 0 0,0 0.521372480314731,0.20228442235464583 l -4.24719714834241 10.673477941347546" fill="#ff0000" stroke="none" /><path d="M 108.09893153111575 80.62456947434976 l 22.75941930484501 -54.44836097835447 a80.01368638140602,80.01368638140602 0 0,0 1.2661832182672894,0.5421135746563649 l -23.693286280902615 54.04852787573532" fill="#47ffff" stroke="none" /><path d="M 108.43124777332544 80.76684994638697 l 6.432551980267557 -14.673775553787918 a37.02177936378441,37.02177936378441 0 0,0 0.5814497543025546,0.2608795559020343 l -6.684183853036892 14.560875667369354" fill="#ff4e07" stroke="none" /><path d="M 109.08828744355905 81.06846463323043 l 12.243776796223495 -25.504639337173654 a49.29128307367919,49.29128307367919 0 0,0 0.7617351258729169,0.37378011808650996 l -12.680983189106843 25.290104058952313" fill="#f1ff19" stroke="none" /><path d="M 109.41281617654863 81.2277094730956 l 13.248883640946037 -26.42268670715554 a50.558269410705044,50.558269410705044 0 0,0 0.7745996642169798,0.3967800336261214 l -13.701743792751772 26.190714148216916" fill="#dfff1b" stroke="none" /><path d="M 109.73455568895987 81.39251694778311 l 7.300183059827838 -13.954209817494158 a36.74841720102842,36.74841720102842 0 0,0 0.5579721360377203,0.29804939127257163 l -7.53930024239387 13.826481699719833" fill="#ff4906" stroke="none" /><path d="M 110.36928655335952 81.73862282372117 l 24.73258793028578 -43.55662411452026 a71.08872537790242,71.08872537790242 0 0,0 1.0588945515753723,0.6133800711864952 l -25.47867921432648 43.124439885943715" fill="#3aff90" stroke="none" /><line stroke="#e1ed5e" stroke-width="0.3" x1="143.23703022742887" x2="145.7803849466894" y1="26.81831364943548" y2="22.513508569990506" /><path d="M 143.74570117128098 25.957352633546492 a86.0,86.0 0 0,1 28.547481713284135,27.462654790039103" fill="none" id="id110" stroke="none" /><text fill="#e1ed5e" style="font-size:6.75px; font-family:Arial;" text-anchor="middle"><textPath startOffset="19.985693538727396" xlink:href="#id110">February</textPath></text><path d="M 110.68208982089419 81.91981866633111 l 8.252689455864465 -13.968251938925972 a37.22402371436401,37.22402371436401 0 0,0 0.5488557042848254,0.33067942064321626 l -8.491907226366928 13.824125908824142" fill="#ff5107" stroke="none" /><path d="M 110.99172775467656 82.1063720568725 l 8.624286141332782 -14.039627884926679 a37.47693729413314,37.47693729413314 0 0,0 0.5467721816508595,0.3423886899887919 l -8.864677475355904 13.889094853614942" fill="#ff5507" stroke="none" /><path d="M 111.2981086023043 82.29822771554956 l 22.52040950217138 -35.28476976037434 a62.859094844347965,62.859094844347965 0 0,0 0.9070656412947993,0.5899807247704405 l -23.12444216925046 34.89189011144437" fill="#3fff2d" stroke="none" /><path d="M 111.60114157652 82.49532879139004 l 12.245111972158355 -18.476341967851667 a43.16569375687783,43.16569375687783 0 0,0 0.6158209148688306,0.4158050306847643 l -12.561337581433728 18.262825024868235" fill="#ffb110" stroke="none" /><path d="M 111.90073688211348 82.69761687909136 l 9.719308643297488 -14.13082261061021 a38.1506591172529,38.1506591172529 0 0,0 0.5378677223322696,0.3768107123554526 l -9.961107505213409 13.961427055490821" fill="#ff6108" stroke="none" /><path d="M 112.48926042617603 83.11751280151076 l 31.640615591238273 -42.77052999486156 a74.20194348925482,74.20194348925482 0 0,0 1.0202903133869259,0.7684615112065487 l -32.37215205838358 42.21955189414917" fill="#3effb9" stroke="none" /><path d="M 113.06298171725822 83.55741782278167 l 10.537336999883808 -13.263513131977216 a37.93978310520097,37.93978310520097 0 0,0 0.507844956670111,0.4106419700444556 l -10.764085355118409 13.08016506466863" fill="#ff5d08" stroke="none" /><path d="M 113.34407831869373 83.78471172551755 l 11.781778653322414 -14.316832731874154 a39.541359381349224,39.541359381349224 0 0,0 0.5218376062348493,0.4370239879755332 l -12.026473796516381 14.1119075865048" fill="#ff770b" stroke="none" /><path d="M 113.6212207817346 84.01681056812373 l 20.427673558118705 -23.969905588033704 a52.493590155717584,52.493590155717584 0 0,0 0.6826821429915069,0.5920152271406883 l -20.83724949975698 23.614725367473344" fill="#c4ff1e" stroke="none" /><path d="M 113.89432698308785 84.25364557470407 l 11.294938949351359 -12.800484120249223 a38.07126356138663,38.07126356138663 0 0,0 0.48765483744524574,0.43782132797524753 l -11.513604774392595 12.604163783504678" fill="#ff5f08" stroke="none" /><path d="M 114.42810811169701 84.74124197986012 l 38.86746804871941 -41.10513209490859 a77.57129976461658,77.57129976461658 0 0,0 0.9623154001641284,0.9257466525163992 l -39.56926669249595 40.430002355629895" fill="#43ffe2" stroke="none" /><path d="M 114.68862486808459 84.99185889309783 l 11.209070003221395 -11.452896768506564 a37.02535786580711,37.02535786580711 0 0,0 0.4516462462482385,0.44970673373414416 l -11.404552049636957 11.258254184122302" fill="#ff4e07" stroke="none" /><path d="M 114.94478906791727 85.2469230424477 l 22.44579859766936 -22.157863358273843 a52.54020899250781,52.54020899250781 0 0,0 0.6298213426629278,0.649086256473161 l -22.823884204035398 21.768212906250568" fill="#c3ff1e" stroke="none" /><path d="M 115.4437574822437 85.77008943001954 l 24.842009124301295 -22.889479365619334 a54.77948612636051,54.77948612636051 0 0,0 0.6329805082070011,0.6989528867792718 l -25.232333273124333 22.45847369157051" fill="#a5ff21" stroke="none" /><path d="M 116.15771136456269 86.58626213691792 l 35.97242957283359 -29.86343360771073 a67.75297162977579,67.75297162977579 0 0,0 0.737221723033717,0.9037466623615918 l -36.48114978794372 29.239802775741037" fill="#35ff63" stroke="none" /><path d="M 116.60985879189232 87.15038557335679 l 23.514097562718526 -18.190828173619952 a50.72909372704137,50.72909372704137 0 0,0 0.5283653966061879,0.6952669276381175 l -23.823738899548825 17.7833764701008" fill="#dcff1b" stroke="none" /><path d="M 116.82858285166822 87.43820079747576 l 13.975427511096052 -10.432043845356768 a38.43961332453637,38.43961332453637 0 0,0 0.39123726323679997,0.5336471873737154 l -14.152927386846478 10.189934214311558" fill="#ff6509" stroke="none" /><path d="M 117.04232023915458 87.72973835380427 l 21.81261935386377 -15.704818528516197 a47.87808936829733,47.87808936829733 0 0,0 0.4757882399555018,0.6729687236317852 l -22.079720213623155 15.32702330455262" fill="#fff817" stroke="none" /><path d="M 117.2510076193507 88.02491185347247 l 10.83209753101945 -7.519289632695869 a34.18613110437953,34.18613110437953 0 0,0 0.33140285268060937,0.4862927933446331 l -10.959924849368793 7.331718816080829" fill="#ff1e03" stroke="none" /><path d="M 117.65298651832404 88.62581576622439 l 49.59205765382016 -31.95318818722605 a79.99473211794512,79.99473211794512 0 0,0 0.7358464138516339,1.1639323128147654 l -50.134731663917755 31.09480822669708" fill="#47ffff" stroke="none" /><line stroke="#e1ed5e" stroke-width="0.3" x1="172.23445277983987" x2="176.4835382374775" y1="55.19839476539836" y2="52.563006222186495" /><path d="M 173.08426987136738 54.67131705675599 a86.0,86.0 0 0,1 12.851231095245387,41.99856678651699" fill="none" id="id111" stroke="none" /><text fill="#e1ed5e" style="font-size:6.75px; font-family:Arial;" text-anchor="middle"><textPath startOffset="22.20632615414155" xlink:href="#id111">March</textPath></text><path d="M 117.84615892207809 88.93136811851018 l 10.097896886051542 -6.262966944145753 a32.882435628472464,32.882435628472464 0 0,0 0.2941947699266751,0.48357884845314064 l -10.204207454264441 6.0882203224855305" fill="#ff0701" stroke="none" /><path d="M 118.03404312379186 89.2402003453031 l 21.236646046114064 -12.670595008860845 a45.729316876260484,45.729316876260484 0 0,0 0.3974973518496259,0.679451824970749 l -21.45160307243402 12.3031637715362" fill="#ffd814" stroke="none" /><path d="M 118.21658344932153 89.55222093294921 l 19.85319883782351 -11.386429063872288 a43.88668326605566,43.88668326605566 0 0,0 0.3701995518857624,0.6585436948287083 l -20.046256031001704 11.043001859108786" fill="#ffbc11" stroke="none" /><path d="M 118.3937258080291 89.86733742301442 l 20.671013788765148 -11.38716592993601 a44.59996523241537,44.59996523241537 0 0,0 0.364640609787799,0.6756236706258336 l -20.86396249777141 11.029661275977718" fill="#ffc712" stroke="none" /><path d="M 118.56541770881063 90.18545643968196 l 17.56341958707093 -9.284840735021302 a40.86660451778858,40.86660451778858 0 0,0 0.32341162712536353,0.6247283237527982 l -17.720640647356408 8.981139689008158" fill="#ff8d0d" stroke="none" /><path d="M 118.89224826269711 90.83032412892265 l 53.09278045685726 -25.769489216639563 a80.0161834679823,80.0161834679823 0 0,0 0.5907549336554945,1.2442805515698871 l -53.528493584354514 24.851766249429133" fill="#47ffff" stroke="none" /><path d="M 119.34039704204932 91.81776055985345 l 36.97444966148276 -15.642584774249318 a61.147233854763876,61.147233854763876 0 0,0 0.40176153232645334,0.9728974179673955 l -37.238232880695406 15.00381278582862" fill="#53ff2b" stroke="none" /><path d="M 119.47837535516314 92.15188598940014 l 21.598973504894772 -8.702533116213274 a44.286256442458395,44.286256442458395 0 0,0 0.2788061311088618,0.7095311928336003 l -21.745573185885338 8.32945291848389" fill="#ffc212" stroke="none" /><path d="M 119.61058180528143 92.48833698450437 l 21.67682885283406 -8.30312099884818 a44.21264154370572,44.21264154370572 0 0,0 0.2661083343498487,0.7130380353175634 l -21.816541775685533 7.928759826501283" fill="#ffc112" stroke="none" /><path d="M 119.85752413597 93.16781622104841 l 59.57257240790998 -20.496551336854747 a84.0,84.0 0 0,0 0.45865082491291975,1.371307588310744 l -59.91656052659467 19.46807064562169" fill="#4dd2ff" stroke="none" /><path d="M 120.08093135843002 93.85539295169968 l 13.250040188293983 -4.054408078889972 a34.856471046466844,34.856471046466844 0 0,0 0.1706209367177849,0.5752489784012305 l -13.31786702212347 3.825729713742212" fill="#ff2904" stroke="none" /><path d="M 120.18372546131832 94.20196356495316 l 35.270378882429625 -10.131872940411904 a57.696791083019626,57.696791083019626 0 0,0 0.2659910796526188,0.9569114363435212 l -35.43955673264861 9.52325020064943" fill="#7eff26" stroke="none" /><line stroke="#e1ed5e" stroke-width="0.3" x1="184.98032266829074" x2="189.97916517819016" y1="98.17113171792111" y2="98.06355123074" /><path d="M 185.9800911702706 98.14961562048488 a86.0,86.0 0 0,1 -9.607161424134198,41.387399972396054" fill="none" id="id112" stroke="none" /><text fill="#e1ed5e" style="font-size:6.75px; font-family:Arial;" text-anchor="middle"><textPath startOffset="21.466115282336823" xlink:href="#id112">April</textPath></text><line stroke="#e1ed5e" stroke-width="0.3" x1="174.80103733775053" x2="179.2010983576182" y1="140.37084112569926" y2="142.7455964860345" /><path d="M 175.68104954172406 140.8457921977663 a86.0,86.0 0 0,1 -30.038265399797805,32.042727171017184" fill="none" id="id113" stroke="none" /><text fill="#e1ed5e" style="font-size:6.75px; font-family:Arial;" text-anchor="middle"><textPath startOffset="22.206326154141568" xlink:href="#id113">May</textPath></text><line stroke="#e1ed5e" stroke-width="0.3" x1="143.8653032363475" x2="146.44561519142675" y1="172.8068346515853" y2="177.08958963109032" /><path d="M 144.38136562736335 173.6633856474863 a86.0,86.0 0 0,1 -40.68145358897372,12.25698825130547" fill="none" id="id114" stroke="none" /><text fill="#e1ed5e" style="font-size:6.75px; font-family:Arial;" text-anchor="middle"><textPath startOffset="21.466115282336833" xlink:href="#id114">June</textPath></text><line stroke="#e1ed5e" stroke-width="0.3" x1="102.19456741930631" x2="102.32365962044197" y1="184.97166512339345" y2="189.96999836594603" /><path d="M 102.22038585953345 185.97133177190398 a86.0,86.0 0 0,1 -42.740103519485714,-10.115201625700543" fill="none" id="id115" stroke="none" /><text fill="#e1ed5e" style="font-size:6.75px; font-family:Arial;" text-anchor="middle"><textPath startOffset="22.20632615414155" xlink:href="#id115">July</textPath></text><line stroke="#e1ed5e" stroke-width="0.3" x1="58.666819895761336" x2="56.23545636021788" y1="174.27360380694188" y2="178.64263932499728" /><path d="M 58.180547188652646 175.14741091055294 a86.0,86.0 0 0,1 -31.652253787137756,-30.449443065178592" fill="none" id="id116" stroke="none" /><text fill="#e1ed5e" style="font-size:6.75px; font-family:Arial;" text-anchor="middle"><textPath startOffset="22.20632615414155" xlink:href="#id116">August</textPath></text><line stroke="#e1ed5e" stroke-width="0.3" x1="26.63291911575756" x2="22.317208475507996" y1="142.92168965132927" y2="145.44649492493687" /><path d="M 25.769776987707644 143.4266507060508 a86.0,86.0 0 0,1 -11.730757126820373,-40.83630448921669" fill="none" id="id117" stroke="none" /><text fill="#e1ed5e" style="font-size:6.75px; font-family:Arial;" text-anchor="middle"><textPath startOffset="21.46611528233685" xlink:href="#id117">September</textPath></text><line stroke="#e1ed5e" stroke-width="0.3" x1="15.007084014347285" x2="10.007500721073583" y1="101.09737516637583" y2="101.16192664675087" /><path d="M 14.007167355692545 101.11028546245083 a86.0,86.0 0 0,1 10.666146001902534,-42.60595125391555" fill="none" id="id118" stroke="none" /><text fill="#e1ed5e" style="font-size:6.75px; font-family:Arial;" text-anchor="middle"><textPath startOffset="22.20632615414155" xlink:href="#id118">October</textPath></text><line stroke="#e1ed5e" stroke-width="0.3" x1="26.266209847984243" x2="21.928928074336255" y1="57.711370442889674" y2="55.22380399835377" /><path d="M 25.398753493254645 57.213857153982495 a86.0,86.0 0 0,1 29.58750427330803,-30.492523968695096" fill="none" id="id119" stroke="none" /><text fill="#e1ed5e" style="font-size:6.75px; font-family:Arial;" text-anchor="middle"><textPath startOffset="21.46611528233685" xlink:href="#id119">November</textPath></text><line stroke="#e1ed5e" stroke-width="0.3" x1="56.762969772571076" x2="54.21961505331055" y1="26.818313649435495" y2="22.513508569990535" /><path d="M 56.25429882871897 25.957352633546506 a86.0,86.0 0 0,1 42.265352541879196,-11.944610805530505" fill="none" id="id120" stroke="none" /><text fill="#e1ed5e" style="font-size:6.75px; font-family:Arial;" text-anchor="middle"><textPath startOffset="22.20632615414155" xlink:href="#id120">December</textPath></text></svg>