<?xml version="1.0" encoding="utf-8" ?>
<svg baseProfile="full" height="200mm" version="1.1" viewBox="0,0,200,200" width="200mm" xmlns="http://www.w3.org/2000/svg" xmlns:ev="http://www.w3.org/2001/xml-events" xmlns:xlink="http://www.w3.org/1999/xlink"><defs /><rect fill="#1a1a1a" height="200" width="200" x="0" y="0" /><rect fill="#1a1a1a" height="200" width="180" x="10" y="0" /><text alignment-baseline="middle" fill="#e1ed5e" style="dominant-baseline: central; font-size:9.0px; font-family:Arial;" text-anchor="middle" x="100.0" y="100.0">2017</text><line stroke="#e1ed5e" stroke-width="0.3" x1="100.0" x2="100.0" y1="15.0" y2="10.0" /><path d="M 100.0 14.0 a86.0,86.0 0 0,1 42.46469731375804,11.215312516191453" fill="none" id="id1" stroke="none" /><text fill="#e1ed5e" style="font-size:6.75px; font-family:Arial;" text-anchor="middle"><textPath startOffset="22.20632615414155" xlink:href="#id1">January</textPath></text><line stroke="#e1ed5e" stroke-width="0.3" x1="143.23703022742887" x2="145.7803849466894" y1="26.81831364943548" y2="22.513508569990506" /><path d="M 143.74570117128098 25.957352633546492 a86.0,86.0 0 0,1 28.547481713284135,27.462654790039103" fill="none" id="id2" stroke="none" /><text fill="#e1ed5e" style="font-size:6.75px; font-family:Arial;" text-anchor="middle"><textPath startOffset="19.985693538727396" xlink:href="#id2">February</textPath></text><line stroke="#e1ed5e" stroke-width="0.3" x1="172.23445277983987" x2="176.4835382374775" y1="55.19839476539836" y2="52.563006222186495" /><path d="M 173.08426987136738 54.67131705675599 a86.0,86.0 0 0,1 12.851231095245387,41.99856678651699" fill="none" id="id3" stroke="none" /><text fill="#e1ed5e" style="font-size:6.75px; font-family:Arial;" text-anchor="middle"><textPath startOffset="22.20632615414155" xlink:href="#id3">March</textPath></text><line stroke="#e1ed5e" stroke-width="0.3" x1="184.98032266829074" x2="189.97916517819016" y1="98.17113171792111" y2="98.06355123074" /><path d="M 185.9800911702706 98.14961562048488 a86.0,86.0 0 0,1 -9.607161424134198,41.387399972396054" fill="none" id="id4" stroke="none" /><text fill="#e1ed5e" style="font-size:6.75px; font-family:Arial;" text-anchor="middle"><textPath startOffset="21.466115282336823" xlink:href="#id4">April</textPath></text><line stroke="#e1ed5e" stroke-width="0.3" x1="174.80103733775053" x2="179.2010983576182" y1="140.37084112569926" y2="142.7455964860345" /><path d="M 175.68104954172406 140.8457921977663 a86.0,86.0 0 0,1 -30.038265399797805,32.042727171017184" fill="none" id="id5" stroke="none" /><text fill="#e1ed5e" style="font-size:6.75px; font-family:Arial;" text-anchor="middle"><textPath startOffset="22.206326154141568" xlink:href="#id5">May</textPath></text><path d="M 117.75023020441432 111.22182372390056 l 27.635345620789327 17.47126507849126 a53.69491445199678,53.69491445199678 0 0,0 -0.5006287195755383,0.7769868902870112 l -27.330512037836737 -17.944373568699724" fill="red" stroke="none" /><path d="M 117.14729908036423 112.12312394758627 l 25.50036573433502 18.028734033112723 a52.22985596222891,52.22985596222891 0 0,0 -0.5253333819302072,0.7296421205450397 l -25.18625256002921 -18.465009759108895" fill="red" stroke="none" /><path d="M 116.71984013943494 112.70617746262583 l 28.672878188607804 21.789842222798715 a57.01293056269099,57.01293056269099 0 0,0 -0.6005176938517562,0.7762500699031643 l -28.29355367753798 -22.28017028681513" fill="red" stroke="none" /><path d="M 116.27256486870786 113.27417163493432 l 24.155710956686487 19.704764171475166 a52.17332357764303,52.17332357764303 0 0,0 -0.5736680529964896,0.6910201253372434 l -23.812946903796455 -20.11764555392618" fill="red" stroke="none" /><path d="M 116.0416608686014 113.55231037782055 l 14.818196509029493 12.518703641402523 a40.39837335039922,40.39837335039922 0 0,0 -0.45334187053227665,0.5273390139031932 l -14.600512128926438 -12.771919754467243" fill="red" stroke="none" /><path d="M 115.56566222782051 114.09645910891815 l 27.697131778926465 25.082870220461047 a58.366850111773,58.366850111773 0 0,0 -0.6808175994692425,0.7388930411149249 l -27.2612677714615 -25.555914516377303" fill="red" stroke="none" /><path d="M 115.07121518719521 114.62390073753431 l 26.819956153493308 26.023938461640444 a58.37051539824615,58.37051539824615 0 0,0 -0.7058923621773727,0.7150652360688957 l -26.3680231662604 -26.481744191690005" fill="red" stroke="none" /><path d="M 114.55890576462653 115.13401014063108 l 4.330464371924233 4.5015259235743885 a27.246331508743143,27.246331508743143 0 0,0 -0.3407921396026412,0.3222402391671446 l -4.252336397930784 -4.575400799487454" fill="red" stroke="none" /><path d="M 113.48314897796784 116.09983520530334 l 20.002973437882854 23.884967561525237 a52.154624404280014,52.154624404280014 0 0,0 -0.6932339812269808,0.5704843714206497 l -19.588869328111183 -24.22574705180306" fill="red" stroke="none" /><path d="M 113.20401910651253 116.32954008644616 l 11.070145643868843 13.690557821534313 a38.60623463552734,38.60623463552734 0 0,0 -0.5203431165705666,0.413392041785275 l -10.832845034580926 -13.879083777324713" fill="red" stroke="none" /><path d="M 112.92097659922987 116.55440617244103 l 22.983258683705614 29.44624165939766 a58.353866300368104,58.353866300368104 0 0,0 -0.7971451344241555,0.6112168970641209 l -22.472984820787964 -29.837497898289154" fill="red" stroke="none" /><path d="M 112.34349029814194 116.9893568818739 l 36.583596936295095 50.353001408921166 a83.23973261256926,83.23973261256926 0 0,0 -1.1664370735735763,0.8322218811696092 l -35.711432534872635 -50.975267551935" fill="red" stroke="none" /><path d="M 111.7513745106137 117.40417183066458 l 35.25412353184112 52.21251549199374 a84.0,84.0 0 0,0 -1.2053012050401435,0.7988079156347263 l -34.35014762806101 -52.81162142871979" fill="red" stroke="none" /><path d="M 111.1453310114006 117.79835938074945 l 16.556225248112742 26.439201011896873 a52.195191049482844,52.195191049482844 0 0,0 -0.765581166987986,0.47028248203135065 l -16.098664881192448 -26.7202719607566" fill="red" stroke="none" /><line stroke="#e1ed5e" stroke-width="0.3" x1="143.8653032363475" x2="146.44561519142675" y1="172.8068346515853" y2="177.08958963109032" /><path d="M 144.38136562736335 173.6633856474863 a86.0,86.0 0 0,1 -40.68145358897372,12.25698825130547" fill="none" id="id6" stroke="none" /><text fill="#e1ed5e" style="font-size:6.75px; font-family:Arial;" text-anchor="middle"><textPath startOffset="21.466115282336833" xlink:href="#id6">June</textPath></text><path d="M 110.5260780823613 118.17145234162733 l 31.17445618823424 53.817304077376676 a83.194444581401,83.194444581401 0 0,0 -1.2453464875937796,0.707140237202586 l -30.243460933719263 -54.34594748037389" fill="red" stroke="none" /><path d="M 109.89434966115114 118.52300852407294 l 6.851042140651605 12.825695100339555 a35.54081267398278,35.54081267398278 0 0,0 -0.542097411003729,0.28359974433125085 l -6.62925382712138 -12.941724263615523" fill="red" stroke="none" /><path d="M 108.59647513512805 119.15986991738527 l 12.83183548306892 28.59966379152762 a52.34639964737518,52.34639964737518 0 0,0 -0.8252766990165985,0.361777052202324 l -12.337638109394568 -28.8163053970244" fill="red" stroke="none" /><path d="M 107.93186726928326 119.44442032107085 l 23.514567005030155 57.64432371232886 a83.25594684595049,83.25594684595049 0 0,0 -1.3316151352254013,0.5298771437105656 l -22.518830793762888 -58.0405477004455" fill="red" stroke="none" /><path d="M 107.2578585660854 119.70592522655815 l 10.773068570741055 29.25012684975884 a52.17096288466033,52.17096288466033 0 0,0 -0.8453694367981911,0.30311940323192293 l -10.267979573313127 -29.43123379403072" fill="red" stroke="none" /><path d="M 105.88484417918355 120.15858648285463 l 5.554086490882685 19.025573056931236 a40.81969492431287,40.81969492431287 0 0,0 -0.6761856948403367,0.19109683159822516 l -5.225769627937742 -19.11835868186798" fill="red" stroke="none" /><path d="M 104.48393922423573 120.51570834832081 l 5.321492374391039 24.347829011761004 a45.9225813004322,45.9225813004322 0 0,0 -0.773704827490309,0.16213736919172497 l -4.901596085471351 -24.435822361679268" fill="red" stroke="none" /><path d="M 103.41894727170886 120.7198165907248 l 6.119854560658643 37.08810168206525 a58.58962498114108,58.58962498114108 0 0,0 -0.9964815622804811,0.15562992634982598 l -5.480537134769645 -37.18794991576218" fill="red" stroke="none" /><path d="M 101.98527174616119 120.90594882070398 l 2.9470716756601223 31.034204632907926 a52.173820565639396,52.173820565639396 0 0,0 -0.8947951400880114,0.07720668978838535 l -2.412432217830569 -31.080335574974974" fill="red" stroke="none" /><path d="M 101.26447882468166 120.96189622390904 l 1.140130574395916 18.900513251544343 a39.93486992029456,39.93486992029456 0 0,0 -0.6865221203610462,0.03548535188757274 l -0.8146203856213902 -18.91733841019412" fill="red" stroke="none" /><line stroke="#e1ed5e" stroke-width="0.3" x1="102.19456741930631" x2="102.32365962044197" y1="184.97166512339345" y2="189.96999836594603" /><path d="M 102.22038585953345 185.97133177190398 a86.0,86.0 0 0,1 -42.740103519485714,-10.115201625700543" fill="none" id="id7" stroke="none" /><text fill="#e1ed5e" style="font-size:6.75px; font-family:Arial;" text-anchor="middle"><textPath startOffset="22.20632615414155" xlink:href="#id7">July</textPath></text><path d="M 98.73552117531835 120.96189622390904 l -1.8776165592396004 31.126186294960473 a52.18276634957386,52.18276634957386 0 0,0 -0.896145180534689,-0.06180341842065661 l 2.413124500553219 -31.08925453202353" fill="red" stroke="none" /><path d="M 96.93821686468263 120.77559828337769 l -4.536839396896528 30.784529347913445 a52.11703968705533,52.11703968705533 0 0,0 -0.8863970224337027,-0.1384369852286672 l 5.066072282938747 -30.701874055337672" fill="red" stroke="none" /><path d="M 96.22490169976321 120.6578951692458 l -5.357338479975215 29.316146999020585 a50.80163670769119,50.80163670769119 0 0,0 -0.8588679173330354,-0.16460408047974343 l 5.861174011879944 -29.219585720192374" fill="red" stroke="none" /><path d="M 95.51606077576429 120.51570834832081 l -6.651474160327231 30.432995884979928 a52.15139398230368,52.15139398230368 0 0,0 -0.8753483599922077,-0.19922643684463678 l 7.174342669712302 -30.313992714557603" fill="red" stroke="none" /><path d="M 94.81253420990036 120.34920634021253 l -7.211444439436454 28.288797815137393 a50.19350977064596,50.19350977064596 0 0,0 -0.8353862558893169,-0.2206331028878962 l 7.6973211381372595 -28.16047336294592" fill="red" stroke="none" /><path d="M 93.76903079525671 120.05430185196036 l -3.390204558113956 10.911333905574999 a32.425878283300904,32.425878283300904 0 0,0 -0.5315970361723678,-0.17020058370129043 l 3.577522939377264 -10.851360475214003" fill="red" stroke="none" /><path d="M 92.40401165467489 119.57807347666478 l -11.336558074807074 29.219103146418895 a52.34124339691296,52.34124339691296 0 0,0 -0.8371581195612535,-0.3331224927479785 l 11.837837270410187 -29.01963380926485" fill="red" stroke="none" /><path d="M 91.7346041902142 119.30500536409082 l -10.308383673099026 24.07669356483489 a47.19064617314312,47.19064617314312 0 0,0 -0.7439927284509226,-0.32614454822202743 l 10.721297076207692 -23.89568446331841" fill="red" stroke="none" /><path d="M 90.10565033884886 118.52300852407294 l -7.526185747356932 14.089617562174327 a36.97375331448592,36.97375331448592 0 0,0 -0.5587917076959082,-0.3046977928857205 l 7.76760026692148 -13.957979117528842" fill="red" stroke="none" /><line stroke="#e1ed5e" stroke-width="0.3" x1="58.666819895761336" x2="56.23545636021788" y1="174.27360380694188" y2="178.64263932499728" /><path d="M 58.180547188652646 175.14741091055294 a86.0,86.0 0 0,1 -31.652253787137756,-30.449443065178592" fill="none" id="id8" stroke="none" /><text fill="#e1ed5e" style="font-size:6.75px; font-family:Arial;" text-anchor="middle"><textPath startOffset="22.20632615414155" xlink:href="#id8">August</textPath></text><path d="M 85.97065885151581 115.62618273729859 l -18.946373377152202 21.10287927758155 a49.36012302425084,49.36012302425084 0 0,0 -0.627344717787811,-0.5730645254994691 l 19.306817644406866 -20.773621985495506" fill="red" stroke="none" /><path d="M 84.19399662182784 113.82643327865904 l -17.83529789565958 15.601575582344465 a44.69613917241638,44.69613917241638 0 0,0 -0.5015704756784216,-0.5834397774391779 l 18.101210880908777 -15.292258705743757" fill="red" stroke="none" /><path d="M 83.72743513129214 113.27417163493432 l -20.70596102984565 16.890667377518213 a47.72136722975538,47.72136722975538 0 0,0 -0.5137593496618968,-0.6409937828145023 l 20.99363829156241 -16.53174576112545" fill="red" stroke="none" /><path d="M 82.05923443525364 110.91462005526583 l -26.657165194588323 16.217414401819664 a52.20270799292778,52.20270799292778 0 0,0 -0.46042570764909496,-0.7716999696571081 l 26.932371777935654 -15.756152338276443" fill="red" stroke="none" /><line stroke="#e1ed5e" stroke-width="0.3" x1="26.63291911575756" x2="22.317208475507996" y1="142.92168965132927" y2="145.44649492493687" /><path d="M 25.769776987707644 143.4266507060508 a86.0,86.0 0 0,1 -11.730757126820373,-40.83630448921669" fill="none" id="id9" stroke="none" /><text fill="#e1ed5e" style="font-size:6.75px; font-family:Arial;" text-anchor="middle"><textPath startOffset="21.46611528233685" xlink:href="#id9">September</textPath></text><path d="M 81.35079622478065 109.6543875284942 l -10.77758466843695 5.579379166230602 a33.13613625359798,33.13613625359798 0 0,0 -0.25786435546221403,-0.5087908369246972 l 10.87202769368543 -5.39303411760322" fill="red" stroke="none" /><path d="M 81.18737489456691 109.33194174019688 l -27.891171247758486 13.83532514421754 a52.13412364943018,52.13412364943018 0 0,0 -0.39186674463371984,-0.8073615610412441 l 28.125191249006924 -13.353174627211011" fill="red" stroke="none" /><path d="M 79.86692584326677 105.97154293290107 l -27.009606457393367 8.011147393859163 a49.172634302624274,49.172634302624274 0 0,0 -0.2337043317670874,-0.8135554380091943 l 27.14350342604656 -7.545034480345373" fill="red" stroke="none" /><path d="M 79.58551787078972 104.9243191809786 l -27.347513704426234 6.596683934200333 a49.131881286922805,49.131881286922805 0 0,0 -0.1912386748171532,-0.8238512059311709 l 27.457012945173943 -6.124964070920588" fill="red" stroke="none" /><path d="M 79.4281124754447 104.21870165774334 l -30.476044704566245 6.24975905410474 a52.11026822560494,52.11026822560494 0 0,0 -0.17263404062434926,-0.8802572538971559 l 30.57910867816626 -5.724238073139629" fill="red" stroke="none" /><line stroke="#e1ed5e" stroke-width="0.3" x1="15.007084014347285" x2="10.007500721073583" y1="101.09737516637583" y2="101.16192664675087" /><path d="M 14.007167355692545 101.11028546245083 a86.0,86.0 0 0,1 10.666146001902534,-42.60595125391555" fill="none" id="id10" stroke="none" /><text fill="#e1ed5e" style="font-size:6.75px; font-family:Arial;" text-anchor="middle"><textPath startOffset="22.20632615414155" xlink:href="#id10">October</textPath></text><line stroke="#e1ed5e" stroke-width="0.3" x1="26.266209847984243" x2="21.928928074336255" y1="57.711370442889674" y2="55.22380399835377" /><path d="M 25.398753493254645 57.213857153982495 a86.0,86.0 0 0,1 29.58750427330803,-30.492523968695096" fill="none" id="id11" stroke="none" /><text fill="#e1ed5e" style="font-size:6.75px; font-family:Arial;" text-anchor="middle"><textPath startOffset="21.46611528233685" xlink:href="#id11">November</textPath></text><line stroke="#e1ed5e" stroke-width="0.3" x1="56.762969772571076" x2="54.21961505331055" y1="26.818313649435495" y2="22.513508569990535" /><path d="M 56.25429882871897 25.957352633546506 a86.0,86.0 0 0,1 42.265352541879196,-11.944610805530505" fill="none" id="id12" stroke="none" /><text fill="#e1ed5e" style="font-size:6.75px; font-family:Arial;" text-anchor="middle"><textPath startOffset="22.20632615414155" xlink:href="#id12">December</textPath></text></svg>