<?xml version="1.0" encoding="utf-8" ?>
<svg baseProfile="full" height="200mm" version="1.1" viewBox="0,0,200,200" width="200mm" xmlns="http://www.w3.org/2000/svg" xmlns:ev="http://www.w3.org/2001/xml-events" xmlns:xlink="http://www.w3.org/1999/xlink"><defs /><rect fill="#1a1a1a" height="200" width="200" x="0" y="0" /><rect fill="#1a1a1a" height="200" width="180" x="10" y="0" /><text alignment-baseline="middle" fill="#e1ed5e" style="dominant-baseline: central; font-size:9.0px; font-family:Arial;" text-anchor="middle" x="100.0" y="100.0">2023</text><line stroke="#e1ed5e" stroke-width="0.3" x1="100.0" x2="100.0" y1="15.0" y2="10.0" /><path d="M 100.0 14.0 a86.0,86.0 0 0,1 42.46469731375804,11.215312516191453" fill="none" id="id73" stroke="none" /><text fill="#e1ed5e" style="font-size:6.75px; font-family:Arial;" text-anchor="middle"><textPath startOffset="22.20632615414155" xlink:href="#id73">January</textPath></text><path d="M 100.0 79.0 l 0.0 -9.793164390861115 a30.793164390861115,30.793164390861115 0 0,0 0.5300537058250586,0.0045623395899634855 l -0.1685732265525302 9.79171342787971" fill="#ff5a08" stroke="none" /><path d="M 100.72285384407766 79.0124445844662 l 0.5555127633707155 -16.128924264289623 a37.13848792029347,37.13848792029347 0 0,0 0.6387097801720026,0.027504186695918725 l -0.8330633759320497 16.11697235106951" fill="#ffb310" stroke="none" /><path d="M 101.44485096284872 79.0497635885617 l 1.0794879679509535 -15.652498917456557 a36.68967866573212,36.68967866573212 0 0,0 0.6296819114415745,0.04887543528873061 l -1.348760068754869 15.631598219979361" fill="#ffad10" stroke="none" /><path d="M 103.2404852339499 79.25152402106235 l 2.7966727270302942 -17.90679256606517 a39.1238681949026,39.1238681949026 0 0,0 0.6644924346663773,0.10964694531083709 l -3.1044943678355468 17.85599935781471" fill="#ffcd13" stroke="none" /><path d="M 103.95276090670814 79.375362276772 l 3.780503177908065 -19.725834750981935 a41.084839080789756,41.084839080789756 0 0,0 0.6934212872318897,0.139093786849936 l -4.11949087460708 19.65783700805479" fill="#ffe715" stroke="none" /><path d="M 105.71112130821622 79.79150937346287 l 3.2597091278992445 -11.534302600370449 a32.98606858296006,32.98606858296006 0 0,0 0.5450708798634796,0.15912113665981467 l -3.457770225486151 11.47648313479193" fill="#ff790b" stroke="none" /><path d="M 106.0581310904928 79.89281104454417 l 4.52221769929615 -15.009428554649833 a36.6758858906591,36.6758858906591 0 0,0 0.6029072513451481,0.18732621779505534 l -4.779910323352016 14.929362201972257" fill="#ffad10" stroke="none" /><path d="M 106.74666289553966 80.11325718540242 l 5.7588406657384725 -16.974997121243646 a38.925255174741395,38.925255174741395 0 0,0 0.6326614327413533,0.22072315125058672 l -6.0501841025431 16.87335311682085" fill="#ffcb12" stroke="none" /><path d="M 107.4271985657038 80.35727306442388 l 9.818757762408826 -25.967688337317092 a48.76200355847715,48.76200355847715 0 0,0 0.7825531479787116,0.30361846372314316 l -10.264294075387204 25.794827169703403" fill="#b8ff1f" stroke="none" /><path d="M 108.43124777332544 80.76684994638697 l 7.680833489794634 -17.521323891513443 a40.13091722864512,40.13091722864512 0 0,0 0.6302806716350821,0.2827885651220641 l -7.981296279896497 17.386514995874848" fill="#ffdb14" stroke="none" /><path d="M 109.08828744355905 81.06846463323043 l 5.638262574576651 -11.744893413706816 a34.0281436190735,34.0281436190735 0 0,0 0.525862396889761,0.25803839435849035 l -5.839596238476845 11.646099859213493" fill="#ff880c" stroke="none" /><path d="M 109.73455568895987 81.39251694778311 l 7.4744227639817575 -14.2872668614581 a37.12429812504245,37.12429812504245 0 0,0 0.5636793500633103,0.30109798735170346 l -7.71924716057338 14.156490147604641" fill="#ffb310" stroke="none" /><path d="M 110.36928655335952 81.73862282372117 l 10.899303015218022 -19.194790528280283 a43.07339551682294,43.07339551682294 0 0,0 0.6415951838797854,0.3716533426067808 l -11.228094931563136 19.00433302828345" fill="#fdff18" stroke="none" /><line stroke="#e1ed5e" stroke-width="0.3" x1="143.23703022742887" x2="145.7803849466894" y1="26.81831364943548" y2="22.513508569990506" /><path d="M 143.74570117128098 25.957352633546492 a86.0,86.0 0 0,1 28.547481713284135,27.462654790039103" fill="none" id="id74" stroke="none" /><text fill="#e1ed5e" style="font-size:6.75px; font-family:Arial;" text-anchor="middle"><textPath startOffset="19.985693538727396" xlink:href="#id74">February</textPath></text><path d="M 110.68208982089419 81.91981866633111 l 9.730010332047534 -16.468720459342194 a40.12829983636047,40.12829983636047 0 0,0 0.5916782784537986,0.3564795424349699 l -10.012050676718971 16.29879430744861" fill="#ffdb14" stroke="none" /><path d="M 110.99172775467656 82.1063720568725 l 7.836077425844992 -12.756488981630216 a35.97104273463577,35.97104273463577 0 0,0 0.5248018363376786,0.32863086176924133 l -8.054498414554933 12.619713778538031" fill="#ffa30f" stroke="none" /><path d="M 111.60114157652 82.49532879139004 l 17.617145228934067 -26.58206805190355 a52.889969393735484,52.889969393735484 0 0,0 0.7545517401592776,0.5094767032019342 l -18.072101663499886 26.274879436402948" fill="#88ff25" stroke="none" /><path d="M 112.19680574252982 82.90503203632743 l 11.07364734071348 -15.520756050939632 a40.066188235178785,40.066188235178785 0 0,0 0.5579783050108935,0.40539496829475846 l -11.339170962078162 15.327841847828198" fill="#ffda14" stroke="none" /><path d="M 112.48926042617603 83.11751280151076 l 10.176025019712934 -13.755547267374158 a38.11042272495885,38.11042272495885 0 0,0 0.5240252925583713,0.394684986171329 l -10.41129646602969 13.578345691696983" fill="#ffc011" stroke="none" /><path d="M 113.06298171725822 83.55741782278167 l 9.34995274501167 -11.768933746561979 a36.030948668161855,36.030948668161855 0 0,0 0.4822941531960748,0.3899816639077294 l -9.551150296772235 11.60624598539012" fill="#ffa40f" stroke="none" /><path d="M 113.34407831869373 83.78471172551755 l 12.150656387596573 -14.765080910312525 a40.121873991257154,40.121873991257154 0 0,0 0.5294988085596636,0.44344002459818127 l -12.403012733115355 14.553739728320524" fill="#ffdb14" stroke="none" /><path d="M 114.42810811169701 84.74124197986012 l 13.274992181272182 -14.039255309506851 a40.32164866305031,40.32164866305031 0 0,0 0.5002126248522638,0.4812041487899345 l -13.514688049736865 13.808668073954616" fill="#ffdd14" stroke="none" /><path d="M 114.68862486808459 84.99185889309783 l 17.65119053772717 -18.035150374806367 a46.23551419014535,46.23551419014535 0 0,0 0.5639944522081423,0.5615724807935139 l -17.959020790102635 17.728642043362736" fill="#d6ff1c" stroke="none" /><path d="M 114.94478906791727 85.2469230424477 l 7.171764572352891 -7.079765005483253 a31.077563178374092,31.077563178374092 0 0,0 0.37253967852481656,0.3839348858820775 l -7.292568514580817 6.955265924051061" fill="#ff5e08" stroke="none" /><path d="M 115.68641384162765 86.03803664274999 l 28.94384497935519 -25.761968739296652 a59.74822828870299,59.74822828870299 0 0,0 0.6771697366437852,0.7741220696090978 l -29.383006579576826 25.259931113484605" fill="#3eff2d" stroke="none" /><path d="M 116.60985879189232 87.15038557335679 l 9.319422003297259 -7.209632599646062 a32.78263250285862,32.78263250285862 0 0,0 0.3414452605317223,0.4493019390961889 l -9.442143204053096 7.048145884668839" fill="#ff770a" stroke="none" /><path d="M 117.65298651832404 88.62581576622439 l 12.17911559275264 -7.847256010342745 a35.48828090262923,35.48828090262923 0 0,0 0.3264455489076016,0.5163584623036845 l -12.312388737906195 7.6364499003248545" fill="#ff9c0e" stroke="none" /><line stroke="#e1ed5e" stroke-width="0.3" x1="172.23445277983987" x2="176.4835382374775" y1="55.19839476539836" y2="52.563006222186495" /><path d="M 173.08426987136738 54.67131705675599 a86.0,86.0 0 0,1 12.851231095245387,41.99856678651699" fill="none" id="id75" stroke="none" /><text fill="#e1ed5e" style="font-size:6.75px; font-family:Arial;" text-anchor="middle"><textPath startOffset="22.20632615414155" xlink:href="#id75">March</textPath></text><path d="M 118.03404312379186 89.2402003453031 l 12.342393905372939 -7.36394411223088 a35.37227748839574,35.37227748839574 0 0,0 0.30746985940274624,0.5255656575385865 l -12.467323439246012 7.150399042338398" fill="#ff9b0e" stroke="none" /><path d="M 118.73160827565052 90.50648371742162 l 14.15162493330229 -7.172298275310902 a36.86538215117716,36.86538215117716 0 0,0 0.2820025957729885,0.568500025046699 l -14.272987542028687 6.927638661765253" fill="#ffaf10" stroke="none" /><path d="M 118.89224826269711 90.83032412892265 l 12.104148938141073 -5.874955744528904 a34.45457269915603,34.45457269915603 0 0,0 0.2543761515089366,0.5357810490844658 l -12.203483283491765 5.6657322798038985" fill="#ff8e0d" stroke="none" /><path d="M 119.61058180528143 92.48833698450437 l 7.427787347567198 -2.8451494228825216 a28.9540492907203,28.9540492907203 0 0,0 0.17426947498308654,0.4669555516228195 l -7.4756614110519095 2.716870734230369" fill="#ff3f05" stroke="none" /><path d="M 119.7369772167798 92.82701384747503 l 11.210645182696323 -4.074271443551447 a32.928044819166765,32.928044819166765 0 0,0 0.1890178265670031,0.5343788491191833 l -11.279116090073137 3.880694968005649" fill="#ff790b" stroke="none" /><path d="M 120.37134235888165 94.90015583598534 l 10.651320731504393 -2.666494672498989 a31.980019451888086,31.980019451888086 0 0,0 0.12908841412100366,0.5351548155815685 l -10.695641945886216 2.4827546252580146" fill="#ff6b09" stroke="none" /><path d="M 120.73433829027371 96.67025291283417 l 13.434166028712536 -2.1574054872824786 a34.606293224959195,34.606293224959195 0 0,0 0.08938987892216767,0.5889676150200138 l -13.469311801074003 1.9258387598703828" fill="#ff900d" stroke="none" /><path d="M 120.83666639777658 97.38593545837742 l 7.620444067109641 -0.9560230147647367 a28.680178890150046,28.680178890150046 0 0,0 0.05723696062286236,0.4903713245938928 l -7.6357713807360925 0.8247079518459911" fill="#ff3b05" stroke="none" /><path d="M 120.87857604477298 97.74499172005257 l 18.850583538192847 -2.035973232528357 a39.96021325655276,39.96021325655276 0 0,0 0.06797588932738924,0.684507928888145 l -18.882836553202463 1.711189772935777" fill="#ffd814" stroke="none" /><path d="M 120.94382443527127 98.46500227214037 l 19.04670100371454 -1.3959553019689424 a40.09778810045801,40.09778810045801 0 0,0 0.04452651050156482,0.6888054095591777 l -19.067908105220518 1.0678908281567294" fill="#ffda14" stroke="none" /><path d="M 120.98425023603335 99.18683210126433 l 18.756095512618618 -0.7268239086422861 a39.77017293134632,39.77017293134632 0 0,0 0.02062046640134918,0.684292891531698 l -18.76582767347561 0.403860869685589" fill="#ffd614" stroke="none" /><line stroke="#e1ed5e" stroke-width="0.3" x1="184.98032266829074" x2="189.97916517819016" y1="98.17113171792111" y2="98.06355123074" /><path d="M 185.9800911702706 98.14961562048488 a86.0,86.0 0 0,1 -9.607161424134198,41.387399972396054" fill="none" id="id76" stroke="none" /><text fill="#e1ed5e" style="font-size:6.75px; font-family:Arial;" text-anchor="middle"><textPath startOffset="21.466115282336823" xlink:href="#id76">April</textPath></text><path d="M 120.99980553446 99.90962569577887 l 13.531983958574129 -0.05823595047015172 a34.53210926947587,34.53210926947587 0 0,0 -0.002558175999509606,0.5944300094547718 l -13.530981485285116 -0.17470353718830478" fill="#ff8f0d" stroke="none" /><path d="M 120.99824983174949 100.27111621757518 l 18.917919855329433 0.2442563031044805 a39.919496631630395,39.919496631630395 0 0,0 -0.014785302021279869,0.6870148872001633 l -18.910912490623144 -0.5698610060947588" fill="#ffd814" stroke="none" /><path d="M 120.9764740272857 100.99374915477107 l 14.661201686344228 0.6945665303320729 a35.677644823087945,35.677644823087945 0 0,0 -0.03434168541015507,0.6131938624376906 l -14.647073650046543 -0.9468321091051868" fill="#ff9f0e" stroke="none" /><path d="M 120.89721153311464 102.0752229133903 l 17.57549285577837 1.7453556150609835 a38.661942570015945,38.661942570015945 0 0,0 -0.07146512524126315,0.6616783029877472 l -17.542845429036056 -2.0476302399335222" fill="#ffc712" stroke="none" /><path d="M 120.70491114924044 103.5080841355445 l 15.956090154520526 2.7034796881243657 a37.18349824491874,37.18349824491874 0 0,0 -0.11235358332926793,0.630138562262422 l -15.907190128852069 -2.9777370011200057" fill="#ffb310" stroke="none" /><path d="M 120.41448212921028 104.9243191809786 l 21.84175581310058 5.268601790432132 a43.46821002717523,43.46821002717523 0 0,0 -0.18171509658247478,0.7258614822741579 l -21.747829402223044 -5.643791112103685" fill="#f8ff18" stroke="none" /><path d="M 120.23288151984713 105.62410040840565 l 18.36938498994836 5.106107378861869 a40.06585003280493,40.06585003280493 0 0,0 -0.19042223060434513,0.6628847657834558 l -18.278770122457917 -5.421549620149906" fill="#ffda14" stroke="none" /><path d="M 120.13307415673323 105.97154293290107 l 18.214175747690366 5.402390693939955 a39.998474238151886,39.998474238151886 0 0,0 -0.20146512928569668,0.6583996992000244 l -18.118483845898535 -5.715117365692036" fill="#ffd914" stroke="none" /><path d="M 119.9155931802556 106.66101706037122 l 22.98042737214464 7.686088854849398 a45.23171484008209,45.23171484008209 0 0,0 -0.2533173522549901,0.7362588008771829 l -22.844719188946417 -8.080520358815882" fill="#e2ff1b" stroke="none" /><path d="M 119.79798401119884 107.00284435728193 l 10.493407435346938 3.7116758456675707 a32.130504803804115,32.130504803804115 0 0,0 -0.18892084880594406,0.5198290376379778 l -10.427962325535766 -3.8917526803116798" fill="#ff6d0a" stroke="none" /><path d="M 119.54520255179757 107.68017299344265 l 17.80579408838941 6.996682614162629 a40.13112309095963,40.13112309095963 0 0,0 -0.2581718960239733,0.6407614734084108 l -17.682719578108046 -7.302143455413854" fill="#ffdb14" stroke="none" /><path d="M 119.41010516605496 108.01547362559984 l 17.3961222037372 7.183792025795991 a39.821050331935474,39.821050331935474 0 0,0 -0.2670836127211806,0.6313067652491046 l -17.26988760982371 -7.482173316711259" fill="#ffd714" stroke="none" /><path d="M 119.26925614724726 108.34839909993367 l 12.894397684308991 5.586493697487648 a35.05255860949109,35.05255860949109 0 0,0 -0.24463166510478554,0.5515798239378045 l -12.796324934472931 -5.80762185791814" fill="#ff960d" stroke="none" /><path d="M 118.81262510543309 109.33194174019688 l 14.116605207012027 7.00249628230517 a36.757966136349474,36.757966136349474 0 0,0 -0.28604932009302414,0.5644024460495655 l -13.993977217132732 -7.24445294005743" fill="#ffae10" stroke="none" /><line stroke="#e1ed5e" stroke-width="0.3" x1="174.80103733775053" x2="179.2010983576182" y1="140.37084112569926" y2="142.7455964860345" /><path d="M 175.68104954172406 140.8457921977663 a86.0,86.0 0 0,1 -30.038265399797805,32.042727171017184" fill="none" id="id77" stroke="none" /><text fill="#e1ed5e" style="font-size:6.75px; font-family:Arial;" text-anchor="middle"><textPath startOffset="22.206326154141568" xlink:href="#id77">May</textPath></text><path d="M 118.12598468904814 110.60418214915192 l 22.840363511304798 13.362218890820346 a47.461880111109636,47.461880111109636 0 0,0 -0.418611803423593,0.7016174610438874 l -22.606970832182977 -13.753398445750337" fill="#c7ff1e" stroke="none" /><path d="M 117.75023020441432 111.22182372390056 l 9.207706877346014 5.821178784105412 a31.893483757533403,31.893483757533403 0 0,0 -0.29736138141371804,0.4615114674843037 l -9.106140632555247 -5.9788118515111695" fill="#ff6a09" stroke="none" /><path d="M 117.14729908036423 112.12312394758627 l 15.499973831333175 10.958466581875486 a39.98254931767846,39.98254931767846 0 0,0 -0.4021486842015593,0.5585493494380793 l -15.309045354756012 -11.223649536764697" fill="#ffd914" stroke="none" /><path d="M 116.0416608686014 113.55231037782055 l 5.151635163531093 4.352202634212321 a27.743961197054347,27.743961197054347 0 0,0 -0.3113367747744533,0.36215500590888305 l -5.075955879185861 -4.440234739282732" fill="#ff2e04" stroke="none" /><path d="M 115.07121518719521 114.62390073753431 l 6.783908919034756 6.582562149913855 a30.452594600385538,30.452594600385538 0 0,0 -0.3682724709595754,0.37305806875725056 l -6.6695958230196455 -6.698360712651771" fill="#ff5507" stroke="none" /><path d="M 114.55890576462653 115.13401014063108 l 10.186765864845746 10.589162426848416 a35.693555039110336,35.693555039110336 0 0,0 -0.44644846914160474,0.42214489348181355 l -10.002981561313335 -10.76294195707615" fill="#ff9f0e" stroke="none" /><path d="M 114.0293411484842 115.62618273729858 l 6.900005625973284 7.68537507632682 a31.32836229526678,31.32836229526678 0 0,0 -0.40437105576404697,0.3568104412953045 l -6.76669221730265 -7.803008659394413" fill="#ff6209" stroke="none" /><path d="M 112.04921762599082 117.19931262002967 l 12.720533336901905 18.15756311704049 a43.1700037601382,43.1700037601382 0 0,0 -0.6122804005124478,0.42113204254323 l -12.406096051766575 -18.373835948948816" fill="#fcff18" stroke="none" /><path d="M 111.1453310114006 117.79835938074945 l 10.214981552515926 16.312652585502434 a40.2470382784869,40.2470382784869 0 0,0 -0.5903297586140253,0.362628753251879 l -9.932672593969592 -16.48606980558269" fill="#ffdc14" stroke="none" /><line stroke="#e1ed5e" stroke-width="0.3" x1="143.8653032363475" x2="146.44561519142675" y1="172.8068346515853" y2="177.08958963109032" /><path d="M 144.38136562736335 173.6633856474863 a86.0,86.0 0 0,1 -40.68145358897372,12.25698825130547" fill="none" id="id78" stroke="none" /><text fill="#e1ed5e" style="font-size:6.75px; font-family:Arial;" text-anchor="middle"><textPath startOffset="21.466115282336833" xlink:href="#id78">June</textPath></text><path d="M 110.8373102113329 117.98757091392108 l 9.177875802627398 15.233271782354569 a38.784430647156896,38.784430647156896 0 0,0 -0.5748076629174621,0.3396064990558698 l -8.914300268681554 -15.388996853704189" fill="#ffc912" stroke="none" /><path d="M 110.21172684928248 118.3499491758327 l 7.7838748279742855 13.987223668679269 a37.00722128588323,37.00722128588323 0 0,0 -0.5592975158223005,0.3049735998055667 l -7.541954500283337 -14.119137920244606" fill="#ffb110" stroke="none" /><path d="M 105.53697534728816 120.25689768951611 l 2.0654668652628634 7.5564632938464 a28.83366395007769,28.83366395007769 0 0,0 -0.47988767234827345,0.1267426958983602 l -1.9350887501030924 -7.590897339048344" fill="#ff3e05" stroke="none" /><path d="M 104.13013068566511 120.58985236759428 l 2.9534934736763243 14.723987984863411 a36.01728823314818,36.01728823314818 0 0,0 -0.6089192265749086,0.11670081901305497 l -2.6996066325297114 -14.772646002224935" fill="#ffa40f" stroke="none" /><path d="M 103.41894727170886 120.7198165907248 l 3.147045324994376 19.072011573898884 a40.32991256453329,40.32991256453329 0 0,0 -0.6859237329455021,0.10712718035204254 l -2.818285728440357 -19.123357061598032" fill="#ffdd14" stroke="none" /><path d="M 101.98527174616119 120.90594882070398 l 1.7459961085296392 18.386251331411056 a39.46896695629768,39.46896695629768 0 0,0 -0.6769034629610446,0.05840607904550841 l -1.429248327827053 -18.41358166273523" fill="#ffd213" stroke="none" /><path d="M 101.62511606390274 120.93702456842531 l 1.464256611828797 18.864607480843684 a39.921349392461096,39.921349392461096 0 0,0 -0.6855773919465189,0.04728143088258577 l -1.1393164591033478 -18.887017256242558" fill="#ffd814" stroke="none" /><path d="M 100.90346689309514 120.98055641714683 l 0.6325803616325557 14.689954957999044 a35.703568770266756,35.703568770266756 0 0,0 -0.6142367985372306,0.0211555572912501 l -0.3796232114206729 -14.698667313716387" fill="#ff9f0e" stroke="none" /><line stroke="#e1ed5e" stroke-width="0.3" x1="102.19456741930631" x2="102.32365962044197" y1="184.97166512339345" y2="189.96999836594603" /><path d="M 102.22038585953345 185.97133177190398 a86.0,86.0 0 0,1 -42.740103519485714,-10.115201625700543" fill="none" id="id79" stroke="none" /><text fill="#e1ed5e" style="font-size:6.75px; font-family:Arial;" text-anchor="middle"><textPath startOffset="22.20632615414155" xlink:href="#id79">July</textPath></text><path d="M 100.54218724476979 120.99299961872073 l 0.5517839361095669 21.364574825589273 a42.371699113321604,42.371699113321604 0 0,0 -0.7292780984425489,0.012555183831107342 l -0.18394614777435003 -21.37090748669954" fill="#fff817" stroke="none" /><path d="M 99.81925306533755 120.99922214144158 l -0.08349746255385755 9.700755189512131 a30.701114527367434,30.701114527367434 0 0,0 -0.5284104931148763,-0.009097065842936443 l 0.2504676455614018 -9.697880646390034" fill="#ff5908" stroke="none" /><path d="M 99.09653310690486 120.98055641714683 l -0.6717628424398359 15.599861292612708 a36.6143183541658,36.6143183541658 0 0,0 -0.6294383710838496,-0.032534774083761514 l 0.9401892819371744 -15.585986711766745" fill="#ffac0f" stroke="none" /><path d="M 98.73552117531835 120.96189622390904 l -0.9002381192511296 14.923696359486453 a35.950824114459444,35.950824114459444 0 0,0 -0.6173907598267105,-0.04257888151097442 l 1.1569916398567701 -14.905989133459192" fill="#ffa30f" stroke="none" /><path d="M 98.37488393609728 120.93702456842531 l -1.3137363526181642 16.92539437776827 a37.97630342704737,37.97630342704737 0 0,0 -0.6513038795439273,-0.0561972392708502 l 1.604884549903633 -16.900272886218758" fill="#ffbe11" stroke="none" /><path d="M 97.65516085044442 120.86867818915974 l -2.750043085164877 24.474925779666766 a45.6289408804045,45.6289408804045 0 0,0 -0.77976074272317,-0.09441816670382402 l 3.1709312509394367 -24.423962084237594" fill="#ddff1b" stroke="none" /><path d="M 97.2962882734958 120.8252237178851 l -1.6696615780126316 12.860496758738368 a33.9684288434109,33.9684288434109 0 0,0 -0.5791963414823821,-0.08027133528037134 l 1.8907865106818447 -12.829850857965392" fill="#ff870c" stroke="none" /><path d="M 96.58105272829116 120.7198165907248 l -2.866003133049278 17.36881400792796 a38.60368353500604,38.60368353500604 0 0,0 -0.6547019807599949,-0.11382833137203825 l 3.1645540852813228 -17.316907098034918" fill="#ffc712" stroke="none" /><path d="M 96.22490169976321 120.6578951692458 l -2.733949282031378 14.960574049872145 a36.208328461025154,36.208328461025154 0 0,0 -0.6121490107566355,-0.11731981483843099 l 2.9910659073597086 -14.911297036685246" fill="#ffa60f" stroke="none" /><path d="M 95.16358092515715 120.4354850818985 l -5.344423934719254 22.581975196772074 a44.20578529120765,44.20578529120765 0 0,0 -0.738966462944064,-0.18161997762693138 l 5.732343682406529 -22.486633960831114" fill="#efff19" stroke="none" /><path d="M 94.81253420990036 120.34920634021253 l -3.7980104560195085 14.898700363350475 a36.37517986694572,36.37517986694572 0 0,0 -0.6054034765689824,-0.159892560588442 l 4.05390437539998 -14.831116453458451" fill="#ffa80f" stroke="none" /><path d="M 94.46302465271185 120.25689768951611 l -4.302679571745778 15.74125482034395 a37.318705672206974,37.318705672206974 0 0,0 -0.6181911690494457,-0.1747069993180588 l 4.573001908899838 -15.66485902768737" fill="#ffb510" stroke="none" /><path d="M 93.76903079525671 120.05430185196036 l -3.75090525016924 12.07224488410802 a33.641534192400044,33.641534192400044 0 0,0 -0.5515267686112678,-0.17658145466801925 l 3.958153363871448 -12.005890582780294" fill="#ff830c" stroke="none" /><path d="M 93.42475214034765 119.94407469862007 l -4.948704599612943 15.010435545969456 a36.80515271972826,36.80515271972826 0 0,0 -0.5999770361824175,-0.2035447858870316 l 5.2063513687325855 -14.923027773184302" fill="#ffae10" stroke="none" /><path d="M 92.7421414339146 119.70592522655815 l -10.168535607621706 27.608749953288854 a50.42179787821774,50.42179787821774 0 0,0 -0.8118624469253046,-0.30697690911903747 l 10.642268275307293 -27.429624794063184" fill="#a4ff21" stroke="none" /><path d="M 92.40401165467489 119.57807347666478 l -4.758609676530393 12.264949030789033 a34.1557341407244,34.1557341407244 0 0,0 -0.5462948204850896,-0.21738198331120295 l 4.9690255730573405 -12.181220203071764" fill="#ff8a0c" stroke="none" /><path d="M 91.7346041902142 119.30500536409082 l -7.444747354527319 17.38826438817278 a39.9149676607109,39.9149676607109 0 0,0 -0.6292866935317218,-0.2758607934130843 l 7.742954722716784 -17.257539041465243" fill="#ffd814" stroke="none" /><path d="M 91.40352486487194 119.15986991738527 l -6.216446382654314 13.855249060553783 a36.18591887764426,36.18591887764426 0 0,0 -0.5661063073271448,-0.25987163993290735 l 6.454020685748879 -13.7461903502868" fill="#ffa60f" stroke="none" /><path d="M 90.7491055286396 118.85261126421891 l -11.36981678627058 23.170811933976005 a46.81006120552691,46.81006120552691 0 0,0 -0.7203089695093728,-0.3611778706809163 l 11.766979663462713 -22.971666222385785" fill="#cfff1d" stroke="none" /><line stroke="#e1ed5e" stroke-width="0.3" x1="58.666819895761336" x2="56.23545636021788" y1="174.27360380694188" y2="178.64263932499728" /><path d="M 58.180547188652646 175.14741091055294 a86.0,86.0 0 0,1 -31.652253787137756,-30.449443065178592" fill="none" id="id80" stroke="none" /><text fill="#e1ed5e" style="font-size:6.75px; font-family:Arial;" text-anchor="middle"><textPath startOffset="22.20632615414155" xlink:href="#id80">August</textPath></text><path d="M 89.4739219176387 118.17145234162733 l -7.4177084055788525 12.805389977292222 a35.79866245512517,35.79866245512517 0 0,0 -0.5305568538211872,-0.31346234105821724 l 7.637033130428422 -12.675809063940255" fill="#ffa10e" stroke="none" /><path d="M 89.1626897886671 117.98757091392108 l -5.0092411906505205 8.314247667058208 a30.706658105408508,30.706658105408508 0 0,0 -0.4503947331920469,-0.2766692313667216 l 5.151615123774876 -8.226789968863107" fill="#ff5908" stroke="none" /><path d="M 87.65650970185807 116.9893568818739 l -7.784846873440141 10.714922490239555 a34.244372571577415,34.244372571577415 0 0,0 -0.47390139751841315,-0.3505809245018074 l 7.968133241377118 -10.579331616997981" fill="#ff8b0c" stroke="none" /><path d="M 87.36589467227662 116.77436683061367 l -9.532141634960794 12.655873630824845 a36.84401658381992,36.84401658381992 0 0,0 -0.5033090421336897,-0.38591591130954495 l 9.748579405587972 -12.489918377687934" fill="#ffaf10" stroke="none" /><path d="M 86.79598089348748 116.32954008644616 l -9.835916612042684 12.164174658310912 a36.64328612270934,36.64328612270934 0 0,0 -0.487058845006288,-0.4008162706428223 l 10.043845585593662 -11.993063268810909" fill="#ffac0f" stroke="none" /><path d="M 86.24171649860922 115.8653595955263 l -15.001321693180556 17.298768632469315 a43.89731531734657,43.89731531734657 0 0,0 -0.5666049049351223,-0.49996295058257784 l 15.296868951022265 -17.037982540114445" fill="#f3ff19" stroke="none" /><path d="M 85.97065885151581 115.62618273729859 l -9.83922017743414 10.959135632802916 a35.72796345453769,35.72796345453769 0 0,0 -0.4540861686975172,-0.41479694882603585 l 10.026405895598511 -10.788145917390302" fill="#ffa00e" stroke="none" /><path d="M 85.70375840098266 115.38237550388516 l -11.840490450795114 12.740052621719549 a38.392704071522445,38.392704071522445 0 0,0 -0.4802089324012727,-0.45406751871569784 l 12.058035217587204 -12.534350466257921" fill="#ffc412" stroke="none" /><path d="M 85.18274418774928 114.88116024355367 l -13.243874503137118 13.300993194957952 a39.77009940909113,39.77009940909113 0 0,0 -0.4809518851148614,-0.48720172039631643 l 13.470867013307512 -13.07105098058097" fill="#ffd614" stroke="none" /><path d="M 84.9287848128048 114.62390073753433 l -9.101758625040384 8.83161795623983 a33.682250817322405,33.682250817322405 0 0,0 -0.40016671017774735,-0.4195731957759433 l 9.252431886597089 -8.673637643881387" fill="#ff830c" stroke="none" /><path d="M 84.43433777217949 114.09645910891817 l -17.617938910403552 15.955026634847894 a44.76877460807387,44.76877460807387 0 0,0 -0.512370418530416,-0.5756535968204413 l 17.889968178582304 -15.649398868286589" fill="#e8ff1a" stroke="none" /><path d="M 83.95833913139862 113.55231037782056 l -13.481860921252819 11.389741073073683 a38.648987948652056,38.648987948652056 0 0,0 -0.42496218654334594,-0.5118943296125466 l 13.675919107689701 -11.155985486347374" fill="#ffc712" stroke="none" /><path d="M 83.72743513129214 113.27417163493432 l -16.91708030578958 13.799928244431063 a42.83175727292652,42.83175727292652 0 0,0 -0.4611187197439344,-0.5753165031249771 l 17.152116937588374 -13.506683907727826" fill="#fffe18" stroke="none" /><path d="M 83.28015986056508 112.70617746262583 l -15.316154172454238 11.639451773294162 a40.236980433977365,40.236980433977365 0 0,0 -0.41432350862180534,-0.5550540475790103 l 15.514238947771128 -11.374084846205843" fill="#ffdc14" stroke="none" /><path d="M 82.85270091963577 112.12312394758628 l -30.023175041243775 21.22635586043245 a57.76886213456813,57.76886213456813 0 0,0 -0.56706765879503,-0.816903256398754 l 30.384103607200938 -20.70641134184668" fill="#53ff2b" stroke="none" /><path d="M 82.44556493220864 111.52570212397912 l -16.802802243563207 11.032203130408321 a41.100837523518365,41.100837523518365 0 0,0 -0.3832068618207203,-0.5947455594540602 l 16.990213968760973 -10.741335971032813" fill="#ffe715" stroke="none" /><path d="M 82.24976979558568 111.22182372390057 l -13.992916951491976 8.846423150826071 a37.554785633611296,37.554785633611296 0 0,0 -0.3407387910901334,-0.5493794248303077 l 14.143120382250064 -8.6042473946305" fill="#ffb811" stroke="none" /><path d="M 82.05923443525364 110.91462005526583 l -11.558921726290121 7.032098961201585 a34.529933010722345,34.529933010722345 0 0,0 -0.3045525692592718,-0.5104476239095951 l 11.678255171247626 -6.832089243405879" fill="#ff8f0d" stroke="none" /><line stroke="#e1ed5e" stroke-width="0.3" x1="26.63291911575756" x2="22.317208475507996" y1="142.92168965132927" y2="145.44649492493687" /><path d="M 25.769776987707644 143.4266507060508 a86.0,86.0 0 0,1 -11.730757126820373,-40.83630448921669" fill="none" id="id81" stroke="none" /><text fill="#e1ed5e" style="font-size:6.75px; font-family:Arial;" text-anchor="middle"><textPath startOffset="21.46611528233685" xlink:href="#id81">September</textPath></text><path d="M 81.51974371655577 109.97397251340807 l -13.385002758822228 7.224015054811938 a36.210019472894444,36.210019472894444 0 0,0 -0.29131390319397854,-0.5510561203321928 l 13.507369170241093 -6.9925439193936185" fill="#ffa60f" stroke="none" /><path d="M 81.35079622478065 109.6543875284942 l -18.10098621874113 9.37058427319395 a41.38267773655086,41.38267773655086 0 0,0 -0.32203867826254223,-0.6354128640293281 l 18.25960356678994 -9.057617197461937" fill="#ffeb16" stroke="none" /><path d="M 81.18737489456691 109.33194174019688 l -12.063989271743264 5.984302797048515 a34.466689166810795,34.466689166810795 0 0,0 -0.2590692685835157,-0.5337594270646928 l 12.165211796941499 -5.775754414018538" fill="#ff8e0d" stroke="none" /><path d="M 80.87730276802145 108.67885076344099 l -19.769391221998333 8.972353325391834 a42.710180871749884,42.710180871749884 0 0,0 -0.29807417997592867,-0.6720785865603615 l 19.92090648670554 -8.630726402338777" fill="#fffc17" stroke="none" /><path d="M 80.73074385275274 108.34839909993369 l -17.59064632195782 7.621141926771446 a40.170619246445895,40.170619246445895 0 0,0 -0.26942820503615944,-0.6368486889003395 l 17.719225508186284 -7.317218712204948" fill="#ffdb14" stroke="none" /><path d="M 80.45479744820244 107.68017299344265 l -46.0182313186451 18.082594766814033 a70.44348134180217,70.44348134180217 0 0,0 -0.4337497668020443,-1.1323837700581225 l 46.32267536504065 -17.287787429922755" fill="#3bff9f" stroke="none" /><path d="M 80.20201598880116 107.00284435728193 l -19.010716446909935 6.724375993173084 a41.16493422559009,41.16493422559009 0 0,0 -0.23054160516896693,-0.6700618187543023 l 19.12364888302213 -6.396141471329485" fill="#ffe815" stroke="none" /><path d="M 80.0844068197444 106.66101706037122 l -19.057744168306062 6.374098822380526 a41.095440989987665,41.095440989987665 0 0,0 -0.21860377173743242,-0.6727932294407156 l 19.164640191059743 -6.045106692962007" fill="#ffe715" stroke="none" /><path d="M 79.97269907076064 106.31721596034903 l -15.628202349268827 4.929607322583678 a37.387243118491966,37.387243118491966 0 0,0 -0.18831282722575537,-0.615417215081035 l 15.710741949000713 -4.659863134950595" fill="#ffb610" stroke="none" /><path d="M 79.76711848015287 105.62410040840567 l -14.429074811127867 4.010825915160769 a35.97614517914573,35.97614517914573 0 0,0 -0.16071387547920202,-0.598076117687281 l 14.495976762948844 -3.761858864297949" fill="#ffa30f" stroke="none" /><path d="M 79.67330655649465 105.27499134158121 l -30.05158567667259 7.798703448045739 a52.04702203356956,52.04702203356956 0 0,0 -0.2175780790087239,-0.8691162699734948 l 30.181375069976372 -7.280259338674853" fill="#91ff23" stroke="none" /><path d="M 79.35854240842038 103.8639653848113 l -19.00987160332284 3.55854161553547 a40.34007334020008,40.34007334020008 0 0,0 -0.12189148427303532,-0.6836321759916278 l 19.068309529935064 -3.230790688810629" fill="#ffdd14" stroke="none" /><path d="M 79.29508885075956 103.50808413554451 l -20.120300801660843 3.4090321632353033 a41.407057716370744,41.407057716370744 0 0,0 -0.11301809073157854,-0.7037637588697432 l 20.17600064675371 -3.0621891746723464" fill="#ffeb16" stroke="none" /><path d="M 79.18660465613746 102.79330883721812 l -37.18993202629167 4.991159014101698 a58.52336222174452,58.52336222174452 0 0,0 -0.12540299875135852,-0.9995852851593693 l 37.27033653428988 -4.35025597465492" fill="#4bff2c" stroke="none" /><path d="M 79.1416061653843 102.43462659150553 l -14.696828102010539 1.7154383406338576 a35.79660383197994,35.79660383197994 0 0,0 -0.06616865594457562,-0.6126395752974712 l 14.724179059456167 -1.4622024434516045" fill="#ffa10e" stroke="none" /><path d="M 79.07016306316243 101.71520430193888 l -22.179437624345155 1.8176093269463347 a43.253789722148895,43.253789722148895 0 0,0 -0.05442447501277981,-0.7425787211026187 l 22.20743865802227 -1.4355574693469555" fill="#fbff18" stroke="none" /><path d="M 79.04373962182676 101.35467743843564 l -17.67272812234725 1.1424197653072787 a38.709614400278966,38.709614400278966 0 0,0 -0.03726012203648532,-0.6653045088957008 l 17.689774595271267 -0.8380435400761403" fill="#ffc812" stroke="none" /><path d="M 79.0095281055655 100.63252640178507 l -52.80913588045357 1.591349297330427 a73.83310728157414,73.83310728157414 0 0,0 -0.027346156200343013,-1.2706684239724235 l 52.82870409933892 -0.6820910575678747" fill="#40ffc5" stroke="none" /><line stroke="#e1ed5e" stroke-width="0.3" x1="15.007084014347285" x2="10.007500721073583" y1="101.09737516637583" y2="101.16192664675087" /><path d="M 14.007167355692545 101.11028546245083 a86.0,86.0 0 0,1 10.666146001902534,-42.60595125391555" fill="none" id="id82" stroke="none" /><text fill="#e1ed5e" style="font-size:6.75px; font-family:Arial;" text-anchor="middle"><textPath startOffset="22.20632615414155" xlink:href="#id82">October</textPath></text><path d="M 79.00175016825051 100.2711162175752 l -14.721913348270474 0.1900801016481886 a35.72314039459744,35.72314039459744 0 0,0 -0.0026464088733018877,-0.6149322219736377 l 14.72300405443328 0.06336159852912446" fill="#ffa00e" stroke="none" /><path d="M 79.00486145842228 99.54816195383935 l -23.271757378880842 -0.5008333412029964 a44.2771459920918,44.2771459920918 0 0,0 0.022957290199709816,-0.76184069684593 l 23.25968839422549 0.9013441854739208" fill="#eeff19" stroke="none" /><path d="M 79.01574976396665 99.18683210126434 l -17.699976357399567 -0.6858978719907829 a38.71326110413622,38.71326110413622 0 0,0 0.03153543861934318,-0.665663267195574 l 17.685547310546728 0.9904722458093659" fill="#ffc812" stroke="none" /><path d="M 79.08570108090925 98.10471618934814 l -25.775946168315688 -2.3358532679500534 a46.88156895092145,46.88156895092145 0 0,0 0.07974973311684273,-0.8030689290768512 l 25.731919309516616 2.779197727731335" fill="#ceff1d" stroke="none" /><path d="M 79.12142395522702 97.74499172005258 l -16.13272943802779 -1.7424290997092169 a37.22655287755603,37.22655287755603 0 0,0 0.07429293761864784,-0.636496519584149 l 16.100346147405553 2.0198693576182274" fill="#ffb410" stroke="none" /><path d="M 79.16333360222342 97.38593545837743 l -14.028671096760561 -1.7599673085921381 a35.138638465863615,35.138638465863615 0 0,0 0.08045744405233435,-0.5995014117685785 l 13.996297653650393 2.001187062425376" fill="#ff980e" stroke="none" /><path d="M 79.26566170972629 96.67025291283419 l -28.749572341669463 -4.616921139308417 a50.117930397531325,50.117930397531325 0 0,0 0.14412040576980692,-0.8506067930418252 l 28.66584007437943 5.11111372066607" fill="#a8ff21" stroke="none" /><path d="M 79.3925641242962 95.95851677861259 l -15.630503012193493 -3.065418524004891 a36.92825838381278,36.92825838381278 0 0,0 0.12770267259359472,-0.6227235842474301 l 15.575421043684905 3.3340177644157234" fill="#ffb010" stroke="none" /><path d="M 79.54389044137918 95.25157060432595 l -30.52424836674972 -7.085523169015627 a52.33583215639374,52.33583215639374 0 0,0 0.21125533037702388,-0.8757897301500857 l 30.397760236111882 7.609898130825109" fill="#8eff24" stroke="none" /><path d="M 79.62865764111835 94.90015583598534 l -11.706818725178541 -2.930732305362759 a33.068090010846284,33.068090010846284 0 0,0 0.1429858986203662,-0.5509829950031917 l 11.654636494687868 3.1318117259148144" fill="#ff7b0b" stroke="none" /><path d="M 79.81627453868168 94.20196356495316 l -24.11974830272424 -6.928709951558181 a46.095204318347164,46.095204318347164 0 0,0 0.2256340559693842,-0.7607258680311024 l 23.996908349643146 7.342865206335822" fill="#d8ff1c" stroke="none" /><path d="M 79.91906864156998 93.8553929516997 l -12.68381096171178 -3.881146389254736 a34.26432651163507,34.26432651163507 0 0,0 0.1774313147864792,-0.5625057553522469 l 12.615124163157097 4.098902311033398" fill="#ff8b0c" stroke="none" /><path d="M 80.02781315780177 93.51064311812611 l -13.768419678861383 -4.4736307396628066 a35.47697317978152,35.47697317978152 0 0,0 0.19370884540857133,-0.5791647920444045 l 13.68937353968104 4.709968634629534" fill="#ff9c0e" stroke="none" /><path d="M 80.2630227832202 92.82701384747504 l -28.252336117358702 -10.267712908641576 a51.060279846709605,51.060279846709605 0 0,0 0.3073230991641387,-0.8234731143279785 l 28.071408429692934 10.752509159998896" fill="#9dff22" stroke="none" /><path d="M 80.38941819471856 92.48833698450439 l -14.383057852935194 -5.509305373822722 a36.402103716795075,36.402103716795075 0 0,0 0.2291710909159988,-0.5832154294953968 l 14.286093212137505 5.756069808213882" fill="#ffa90f" stroke="none" /><path d="M 80.65960295795068 91.81776055985345 l -9.168189369149216 -3.878737364485676 a30.95491335227173,30.95491335227173 0 0,0 0.21183374403506164,-0.488941487533154 l 9.100064915271474 4.035977996605429" fill="#ff5d08" stroke="none" /><path d="M 80.95270993114464 91.15688171328213 l -12.13003565240741 -5.631632621153751 a34.37359528729346,34.37359528729346 0 0,0 0.25377829988069694,-0.5345218210842162 l 12.031299158684961 5.839596857878499" fill="#ff8d0d" stroke="none" /><path d="M 81.26839172434947 90.50648371742162 l -56.19482482695157 -28.480548847735136 a84.0,84.0 0 0,0 0.6647622673595439,-1.284109110958658 l 55.69625312643191 29.44363068095413" fill="#4dd2ff" stroke="none" /><line stroke="#e1ed5e" stroke-width="0.3" x1="26.266209847984243" x2="21.928928074336255" y1="57.711370442889674" y2="55.22380399835377" /><path d="M 25.398753493254645 57.213857153982495 a86.0,86.0 0 0,1 29.58750427330803,-30.492523968695096" fill="none" id="id83" stroke="none" /><text fill="#e1ed5e" style="font-size:6.75px; font-family:Arial;" text-anchor="middle"><textPath startOffset="21.46611528233685" xlink:href="#id83">November</textPath></text><path d="M 82.54541684631803 88.32363383020206 l -13.529651911421743 -9.050755808759734 a37.2778272983232,37.2778272983232 0 0,0 0.361373981474503,-0.5302717266066268 l 13.371853464278498 9.282305558636775" fill="#ffb510" stroke="none" /><path d="M 82.95767976084542 87.72973835380427 l -12.457821428353837 -8.969478704917728 a36.35085870492998,36.35085870492998 0 0,0 0.3699779796417992,-0.5046495484418021 l 12.301580836198404 9.182590697031031" fill="#ffa80f" stroke="none" /><path d="M 83.17141714833178 87.43820079747576 l -19.698119007489357 -14.70378212001245 a45.58082791661036,45.58082791661036 0 0,0 0.47474398713653776,-0.6247074382070272 l 19.44209908012871 15.040674334100505" fill="#deff1b" stroke="none" /><path d="M 83.6137871275137 86.86637796730984 l -9.5157111246739 -7.626884519093233 a33.19500412774947,33.19500412774947 0 0,0 0.36119564279624417,-0.4427831498146515 l 9.383016989801263 7.789551838515966" fill="#ff7c0b" stroke="none" /><path d="M 84.07557802195018 86.31012108654704 l -22.839631650897562 -19.634734130987077 a51.1192888087224,51.1192888087224 0 0,0 0.579371745932858,-0.6623220601343975 l 22.49826804138686 20.024971747324418" fill="#9cff22" stroke="none" /><path d="M 84.31358615837235 86.03803664274999 l -12.09244383768293 -10.763088330188683 a37.18861539387973,37.18861539387973 0 0,0 0.42971685819090294,-0.47450408762355023 l 11.905383338875984 10.96964520508179" fill="#ffb410" stroke="none" /><path d="M 84.80347519578584 85.50635884689758 l -17.53251834778292 -16.721588173401475 a45.228097545126914,45.228097545126914 0 0,0 0.5421680208014147,-0.5587518033503561 l 17.242086063278386 17.020904172301954" fill="#e2ff1b" stroke="none" /><path d="M 85.31137513191541 84.99185889309783 l -9.642308232307618 -9.852053806694293 a34.785393438593864,34.785393438593864 0 0,0 0.4315322794422866,-0.41513371092089835 l 9.471292709252904 10.016570604377506" fill="#ff930d" stroke="none" /><path d="M 85.83668400450813 84.49514656593479 l -25.30940542421647 -27.70669112591408 a58.52634722530511,58.52634722530511 0 0,0 0.7496640161785754,-0.6730557556202169 l 24.828730420441925 28.138245890303576" fill="#4bff2c" stroke="none" /><path d="M 86.37877921826538 84.01681056812374 l -9.88639376658079 -11.600729986057724 a36.24197224499856,36.24197224499856 0 0,0 0.4782947358780219,-0.4005580862776067 l 9.685241493743659 11.769189229729143" fill="#ffa70f" stroke="none" /><path d="M 86.65592168130627 83.78471172551755 l -13.015750636275856 -15.816315195057378 a41.483300294999296,41.483300294999296 0 0,0 0.5552768918691694,-0.4489952963054418 l 12.741570345842185 16.038016588626952" fill="#ffec16" stroke="none" /><path d="M 87.80319425747018 82.90503203632743 l -17.092424266366333 -23.956636796809875 a50.42909128593225,50.42909128593225 0 0,0 0.7109754089932158,-0.498083709444911 l 16.677517717789456 24.24730534901873" fill="#a4ff21" stroke="none" /><path d="M 88.09926311788651 82.69761687909137 l -2.1105835893878835 -3.068560059266372 a24.724328654283653,24.724328654283653 0 0,0 0.3527282285130125,-0.23816367443687383 l 2.0574506664683314 3.104435646001911" fill="#ff0000" stroke="none" /><path d="M 88.39885842347998 82.49532879139004 l -9.243341568250756 -13.94704598283525 a37.731988973062144,37.731988973062144 0 0,0 0.5444779448372143,-0.35414360096148145 l 9.001896597629253 14.104088507956266" fill="#ffbb11" stroke="none" /><path d="M 88.70189139769569 82.29822771554957 l -11.268758529997243 -17.655786862040348 a41.94544648665151,41.94544648665151 0 0,0 0.6119657832716687,-0.38321291734287183 l 10.963173594353332 17.847144120706147" fill="#fff216" stroke="none" /><line stroke="#e1ed5e" stroke-width="0.3" x1="56.762969772571076" x2="54.21961505331055" y1="26.818313649435495" y2="22.513508569990535" /><path d="M 56.25429882871897 25.957352633546506 a86.0,86.0 0 0,1 42.265352541879196,-11.944610805530505" fill="none" id="id84" stroke="none" /><text fill="#e1ed5e" style="font-size:6.75px; font-family:Arial;" text-anchor="middle"><textPath startOffset="22.20632615414155" xlink:href="#id84">December</textPath></text><path d="M 89.3179101791058 81.91981866633112 l -9.056139288518992 -15.328146763858602 a38.803531729054384,38.803531729054384 0 0,0 0.5779938817492303,-0.33481136323276417 l 8.790948674304442 15.481762284481414" fill="#ffc912" stroke="none" /><path d="M 89.94658935756843 81.56283822128135 l -21.44212639489159 -39.32316775700037 a65.78924320391783,65.78924320391783 0 0,0 0.998915527653487,-0.5335860802370196 l 20.7620658207098 39.68643256373913" fill="#35ff68" stroke="none" /><path d="M 91.90106846888425 80.62456947434976 l -2.9298946234840546 -7.009315921080613 a28.597025219533954,28.597025219533954 0 0,0 0.4558040772745666,-0.1859339276790984 l 2.8088066766211073 7.058710734943288" fill="#ff3a05" stroke="none" /><path d="M 92.23578459929587 80.48803036053334 l -3.265654748518849 -8.20679914422534 a29.832669649102783,29.832669649102783 0 0,0 0.47876723355956363,-0.18575424852586145 l 3.1239043499596093 8.261796096641753" fill="#ff4c07" stroke="none" /><path d="M 92.91201910852362 80.23233633223022 l -6.008821719224977 -16.757997602401595 a38.80270827979629,38.80270827979629 0 0,0 0.6306696489036684,-0.22002825697932252 l 5.7194700662580225 16.858946712553127" fill="#ffc912" stroke="none" /><path d="M 93.25333710446033 80.11325718540243 l -7.563846125600778 -22.295505929080633 a44.543605349339245,44.543605349339245 0 0,0 0.7282183274134795,-0.24008213321705602 l 7.178944975944889 22.42240178655692" fill="#ebff1a" stroke="none" /><path d="M 93.94186890950719 79.89281104454417 l -5.090370971306972 -16.895152885361284 a38.6453412447948,38.6453412447948 0 0,0 0.6385862595885872,-0.18642084036213546 l 4.798794493994963 16.98027205464212" fill="#ffc712" stroke="none" /><path d="M 94.63758080256005 79.69619591428918 l -4.076911835163071 -15.436469274051703 a36.965769438409005,36.965769438409005 0 0,0 0.6166085931997322,-0.15718725976964423 l 3.8105943532783395 15.504359529990209" fill="#ffb110" stroke="none" /><path d="M 94.98787191387505 79.60689891045804 l -3.865883835512782 -15.729318665315727 a37.19742336005109,37.19742336005109 0 0,0 0.6231034497186896,-0.14746845488337676 l 3.5945566988315583 15.793533032339974" fill="#ffb410" stroke="none" /><path d="M 95.692805502759 79.44645832069477 l -5.158135481145973 -24.614154913864976 a46.14881674682927,46.14881674682927 0 0,0 0.7788900389724687,-0.15623801440082524 l 4.733679032706369 24.699296884343013" fill="#d7ff1c" stroke="none" /><path d="M 96.04723909329186 79.375362276772 l -3.0002852978308687 -15.654829319191585 a36.939742560072936,36.939742560072936 0 0,0 0.6255215561697636,-0.11431006615686017 l 2.730368620558212 15.704154866699183" fill="#ffb010" stroke="none" /><path d="M 96.75951476605007 79.25152402106235 l -8.160826083545762 -52.25288552120397 a73.88632268987823,73.88632268987823 0 0,0 1.2582876626647148,-0.18543889289614934 l 7.260169440452398 52.38561889826109" fill="#40ffc5" stroke="none" /><path d="M 97.11714578562143 79.19881850522333 l -5.269762443549796 -38.02387386636073 a59.38730753799175,59.38730753799175 0 0,0 1.0137845269497294,-0.13161832740882098 l 4.614463188092209 38.10895051693369" fill="#42ff2d" stroke="none" /><path d="M 97.83486435360386 79.11191278185805 l -1.9752620286138793 -19.05628665855038 a40.15838514318284,40.15838514318284 0 0,0 0.6881901785554413,-0.06535194978180651 l 1.6469467229682018 19.087464152847367" fill="#ffdb14" stroke="none" /><path d="M 98.91598698831166 79.02799685794201 l -0.9124580826164815 -17.652992694086624 a38.676558794347045,38.676558794347045 0 0,0 0.6651616085815116,-0.028643258070135017 l 0.6084556416456458 17.666083678680952" fill="#ffc712" stroke="none" /><path d="M 99.63851952072746 79.00311137660856 l -0.5406092752949274 -31.40173091776194 a52.406384112470846,52.406384112470846 0 0,0 0.9020897545674554,-0.007764571317461568 l 7.692345555225942e-15 31.406384112470846" fill="#8dff24" stroke="none" /></svg>