<?xml version="1.0" encoding="utf-8" ?>
<svg baseProfile="full" height="200mm" version="1.1" viewBox="0,0,200,200" width="200mm" xmlns="http://www.w3.org/2000/svg" xmlns:ev="http://www.w3.org/2001/xml-events" xmlns:xlink="http://www.w3.org/1999/xlink"><defs /><rect fill="#1a1a1a" height="200" width="200" x="0" y="0" /><rect fill="#1a1a1a" height="200" width="180" x="10" y="0" /><text alignment-baseline="middle" fill="#e1ed5e" style="dominant-baseline: central; font-size:9.0px; font-family:Arial;" text-anchor="middle" x="100.0" y="100.0">2022</text><line stroke="#e1ed5e" stroke-width="0.3" x1="100.0" x2="100.0" y1="15.0" y2="10.0" /><path d="M 100.0 14.0 a86.0,86.0 0 0,1 42.46469731375804,11.215312516191453" fill="none" id="id61" stroke="none" /><text fill="#e1ed5e" style="font-size:6.75px; font-family:Arial;" text-anchor="middle"><textPath startOffset="22.20632615414155" xlink:href="#id61">January</textPath></text><path d="M 101.08401301168833 79.027996857942 l 0.7106773432447194 -13.74921455260439 a34.767569251678005,34.767569251678005 0 0,0 0.5974027836001142,0.036036967342995135 l -0.9472421756844456 13.734944315881089" fill="#ffa10e" stroke="none" /><line stroke="#e1ed5e" stroke-width="0.3" x1="143.23703022742887" x2="145.7803849466894" y1="26.81831364943548" y2="22.513508569990506" /><path d="M 143.74570117128098 25.957352633546492 a86.0,86.0 0 0,1 28.547481713284135,27.462654790039103" fill="none" id="id62" stroke="none" /><text fill="#e1ed5e" style="font-size:6.75px; font-family:Arial;" text-anchor="middle"><textPath startOffset="19.985693538727396" xlink:href="#id62">February</textPath></text><path d="M 117.65298651832404 88.62581576622439 l 13.852365482523107 -8.925365512983484 a37.47877965753995,37.47877965753995 0 0,0 0.34475552172453194,0.5453204421505853 l -14.003948600493594 8.685597423118693" fill="#ffc512" stroke="none" /><line stroke="#e1ed5e" stroke-width="0.3" x1="172.23445277983987" x2="176.4835382374775" y1="55.19839476539836" y2="52.563006222186495" /><path d="M 173.08426987136738 54.67131705675599 a86.0,86.0 0 0,1 12.851231095245387,41.99856678651699" fill="none" id="id63" stroke="none" /><text fill="#e1ed5e" style="font-size:6.75px; font-family:Arial;" text-anchor="middle"><textPath startOffset="22.20632615414155" xlink:href="#id63">March</textPath></text><path d="M 117.84615892207809 88.93136811851018 l 13.955238879791086 -8.655386442152967 a37.421461769740176,37.421461769740176 0 0,0 0.3348048319795344,0.5503311127711871 l -14.102159510056845 8.413887556174698" fill="#ffc412" stroke="none" /><path d="M 118.21658344932153 89.55222093294921 l 4.227764581663169 -2.4247549173862417 a25.87374904640712,25.87374904640712 0 0,0 0.2182541397470581,0.3882497611586564 l -4.26887636270266 2.3516216462927915" fill="#ff2503" stroke="none" /><path d="M 118.56541770881063 90.18545643968196 l 21.490000923278615 -11.36061431425261 a45.308099417266604,45.308099417266604 0 0,0 0.35856089164730187,0.6926255150229883 l -21.68237124808603 10.989016076969277" fill="#d7ff1c" stroke="none" /><path d="M 118.89224826269711 90.83032412892265 l 15.978373698452952 -7.755377005661037 a38.76103314977338,38.76103314977338 0 0,0 0.28617050419525847,0.6027480644127111 l -16.109502396489965 7.479186525607785" fill="#ffd614" stroke="none" /><path d="M 119.04729006885535 91.15688171328212 l 15.914019461045594 -7.388429325243834 a38.545509491053856,38.545509491053856 0 0,0 0.27421951473479833,0.6042063515440148 l -16.03884129274374 7.113400964857756" fill="#ffd313" stroke="none" /><path d="M 119.61058180528143 92.48833698450437 l 19.932499634063436 -7.634970843509142 a42.34472584605325,42.34472584605325 0 0,0 0.25486566895703644,0.6829132815663917 l -20.060969891522095 7.290734424913417" fill="#fbff18" stroke="none" /><path d="M 119.85752413597 93.16781622104841 l 16.420504438094618 -5.649642085084259 a38.365236010231484,38.365236010231484 0 0,0 0.20947913266751814,0.6263159436686077 l -16.515320864533905 5.366153038493337" fill="#ffd113" stroke="none" /><path d="M 119.97218684219823 93.5106431181261 l 15.384661731094473 -4.998779616313236 a37.176390642929945,37.176390642929945 0 0,0 0.19251088646236206,0.6103121184293584 l -15.46842810132504 4.733217331457458" fill="#ffc112" stroke="none" /><path d="M 120.37134235888165 94.90015583598534 l 22.13380190918467 -5.541065409702758 a43.81684888036977,43.81684888036977 0 0,0 0.17686817052303783,0.7332327523195216 l -22.225902879968526 5.15924742572383" fill="#e9ff1a" stroke="none" /><path d="M 120.45610955862082 95.25157060432595 l 18.883673914040997 -4.383423546632641 a40.38575617511491,40.38575617511491 0 0,0 0.15136122362612692,0.6785226865625187 l -18.95632952466916 4.057722690520158" fill="#ffea16" stroke="none" /><path d="M 120.6074358757038 95.95851677861258 l 17.459438639441785 -3.4241051988103046 a38.792034566539954,38.792034566539954 0 0,0 0.12286781415510098,0.6563647762534142 l -17.515792177506746 3.1230623450943273" fill="#ffd614" stroke="none" /><path d="M 120.67395015179393 96.31383870115 l 17.79549863987493 -3.1729339530381226 a39.07615229278987,39.07615229278987 0 0,0 0.11236838551970711,0.6632045721469032 l -17.847478886914857 2.8661435925753818" fill="#ffda14" stroke="none" /><path d="M 120.78858239683441 97.02765380044208 l 17.905669036759008 -2.560147983926831 a39.08776772721153,39.08776772721153 0 0,0 0.08949982191534853,0.6668776298236502 l -17.947084857732193 2.251552012038516" fill="#ffda14" stroke="none" /><path d="M 120.87857604477298 97.74499172005257 l 23.377109400329758 -2.524864490084705 a44.5130641263166,44.5130641263166 0 0,0 0.07572069501349063,0.7624970652170806 l -23.417107221025475 2.1220918941631894" fill="#e1ff1b" stroke="none" /><path d="M 120.94382443527127 98.46500227214037 l 18.49686006709874 -1.3556568077279345 a39.54647237946266,39.54647237946266 0 0,0 0.043914303035679766,0.679334831031374 l -18.51745496113884 1.037062912443525" fill="#ffe015" stroke="none" /><path d="M 120.96714384426684 98.82574320788733 l 18.61186215107184 -1.0423501506494772 a39.64102750834995,39.64102750834995 0 0,0 0.03229118793259892,0.6816159407293956 l -18.627046947237936 0.7218231032970819" fill="#ffe115" stroke="none" /><line stroke="#e1ed5e" stroke-width="0.3" x1="184.98032266829074" x2="189.97916517819016" y1="98.17113171792111" y2="98.06355123074" /><path d="M 185.9800911702706 98.14961562048488 a86.0,86.0 0 0,1 -9.607161424134198,41.387399972396054" fill="none" id="id64" stroke="none" /><text fill="#e1ed5e" style="font-size:6.75px; font-family:Arial;" text-anchor="middle"><textPath startOffset="21.466115282336823" xlink:href="#id64">April</textPath></text><path d="M 120.99513854157772 99.54816195383933 l 24.246120445037626 -0.5218026862345609 a45.251734673598776,45.251734673598776 0 0,0 0.010056643982509994,0.7788981592559104 l -24.251510096137853 0.10436826891818782" fill="#d8ff1c" stroke="none" /><path d="M 120.9904718944345 100.63252640178507 l 19.404653712259584 0.58473939281733 a40.41346197488284,40.41346197488284 0 0,0 -0.026938203416541018,0.6951553329648552 l -19.391713375991838 -0.9186719727961914" fill="#ffeb16" stroke="none" /><path d="M 120.95626037817324 101.35467743843564 l 16.059447238906408 1.0381323029825076 a37.092966298905694,37.092966298905694 0 0,0 -0.04667256280784925,0.6368100379893082 l -16.03919811743422 -1.3144154774685861" fill="#ffc011" stroke="none" /><path d="M 120.92983693683757 101.71520430193887 l 18.031440475710248 1.477680135178633 a39.09188724845983,39.09188724845983 0 0,0 -0.06073279065581202,0.6701812841050642 l -18.00333308877736 -1.7878428078322677" fill="#ffda14" stroke="none" /><path d="M 120.8583938346157 102.4346265915055 l 23.467861286420074 2.73920799399527 a44.627182942386966,44.627182942386966 0 0,0 -0.09562647042724844,0.7622370570286962 l -23.417233306745977 -3.1427628053113614" fill="#dfff1b" stroke="none" /><path d="M 120.81339534386255 102.79330883721812 l 18.837210896504857 2.5280905299895915 a40.00609786587516,40.00609786587516 0 0,0 -0.0974738077347725,0.6817315842713481 l -18.790903037753484 -2.851967586241349" fill="#ffe615" stroke="none" /><path d="M 120.70491114924044 103.5080841355445 l 15.952650294528931 2.7028968641664153 a37.18000935963433,37.18000935963433 0 0,0 -0.1123430413205267,0.6300794370789191 l -15.903760810869215 -2.977095051978553" fill="#ffc112" stroke="none" /><path d="M 120.64145759157962 103.86396538481128 l 18.305849584501484 3.426752632184766 a39.623822449018846,39.623822449018846 0 0,0 -0.13126818969231552,0.6693336711850686 l -18.244151461833503 -3.741350030437779" fill="#ffe115" stroke="none" /><path d="M 120.49622156327973 104.57218783832717 l 18.608601929015688 4.151107713460063 a40.06598439633564,40.06598439633564 0 0,0 -0.15595099476151314,0.6718328038158626 l -18.53439036832362 -4.470809174624491" fill="#ffe615" stroke="none" /><path d="M 120.13307415673323 105.97154293290107 l 22.072764183760434 6.546862041286682 a44.02321266243132,44.02321266243132 0 0,0 -0.22173701371210702,0.7246493904289165 l -21.956800397542196 -6.9258384042676555" fill="#e7ff1a" stroke="none" /><path d="M 120.02730092923936 106.31721596034902 l 17.759044022605504 5.60173918275493 a39.62157690606389,39.62157690606389 0 0,0 -0.21076367463633577,0.6486638916628167 l -17.65998809695292 -5.906601974395542" fill="#ffe115" stroke="none" /><path d="M 119.79798401119884 107.00284435728193 l 18.424191329569627 6.516913248176045 a40.54279878709396,40.54279878709396 0 0,0 -0.23838343053108685,0.6559288192120156 l -18.309283638033314 -6.833089864394191" fill="#ffec16" stroke="none" /><path d="M 119.26925614724726 108.34839909993367 l 17.9983393250669 7.7977747907593455 a40.614930796402305,40.614930796402305 0 0,0 -0.2834514381540543,0.6391081640431195 l -17.86144680218157 -8.106431291295152" fill="#ffed16" stroke="none" /><line stroke="#e1ed5e" stroke-width="0.3" x1="174.80103733775053" x2="179.2010983576182" y1="140.37084112569926" y2="142.7455964860345" /><path d="M 175.68104954172406 140.8457921977663 a86.0,86.0 0 0,1 -30.038265399797805,32.042727171017184" fill="none" id="id65" stroke="none" /><text fill="#e1ed5e" style="font-size:6.75px; font-family:Arial;" text-anchor="middle"><textPath startOffset="22.206326154141568" xlink:href="#id65">May</textPath></text><path d="M 118.48025628344425 109.97397251340804 l 17.826103855422627 9.62092014029178 a41.25665527697466,41.25665527697466 0 0,0 -0.3426730451157736,0.6220511129994737 l -17.657854400855342 -9.92634177168906" fill="#fff517" stroke="none" /><path d="M 118.30583269289576 110.29060199501025 l 12.454336171348041 7.001190210874184 a35.28730743834501,35.28730743834501 0 0,0 -0.3022072287592209,0.5269237764648215 l -12.331976946436441 -7.21453383319732" fill="#ffa80f" stroke="none" /><path d="M 117.75023020441432 111.22182372390056 l 16.36384857045241 10.345343242734465 a40.359795113758025,40.359795113758025 0 0,0 -0.3762976951605957,0.5840223793650833 l -16.183346011914765 -10.625487222021002" fill="#ffea16" stroke="none" /><path d="M 117.55443506779139 111.5257021239791 l 20.377774406111175 13.379419892891633 a45.37750123406138,45.37750123406138 0 0,0 -0.43432080153654806,0.649250668876947 l -20.144450499163906 -13.728207475974388" fill="#d6ff1c" stroke="none" /><path d="M 116.93607887273984 112.41649034213515 l 15.768966121882032 11.560835127719834 a40.55283103295746,40.55283103295746 0 0,0 -0.4175758483092706,0.5594110880801303 l -15.56762900687767 -11.83055909530928" fill="#ffed16" stroke="none" /><path d="M 116.71984013943494 112.70617746262583 l 15.785400988287206 11.996054065303097 a40.82635108885883,40.82635108885883 0 0,0 -0.43002431136748864,0.555864390303005 l -15.576569859701648 -12.265996449719355" fill="#fff016" stroke="none" /><path d="M 116.27256486870786 113.27417163493432 l 7.525728214426395 6.1390327094819135 a30.712070210078917,30.712070210078917 0 0,0 -0.3376923744313126,0.4067722190316652 l -7.4189398401015385 -6.267666185627349" fill="#ff6a09" stroke="none" /><path d="M 115.56566222782051 114.09645910891815 l 20.296324718496866 18.380606444373306 a48.38224772259583,48.38224772259583 0 0,0 -0.5643526366138404,0.6124933260449085 l -19.976925673887305 -18.72725102521955" fill="#b3ff20" stroke="none" /><path d="M 115.07121518719521 114.62390073753431 l 12.827714339836927 12.44698711186885 a38.87394034194719,38.87394034194719 0 0,0 -0.47011436146996705,0.4762233661616403 l -12.611559353311424 -12.665950972011156" fill="#ffd714" stroke="none" /><path d="M 114.81725581225074 114.88116024355365 l 12.663856556062855 12.718473724151956 a38.94805941444589,38.94805941444589 0 0,0 -0.4791539525996425,0.4689529911575331 l -12.443052651087418 -12.93457681823206" fill="#ffd814" stroke="none" /><path d="M 114.29624159901734 115.38237550388516 l 19.38609183358733 20.858918903380808 a49.476570270980645,49.476570270980645 0 0,0 -0.6288247093409095,0.5744164626929671 l -19.024167574779558 -21.18952813266036" fill="#a6ff21" stroke="none" /><path d="M 112.92097659922987 116.55440617244103 l 7.964335940236613 10.203938613765867 a33.944149651577995,33.944149651577995 0 0,0 -0.46369530336930054,0.3555417856414903 l -7.787511908373819 -10.33951974123473" fill="#ff960d" stroke="none" /><path d="M 111.7513745106137 117.40417183066458 l 7.697232042531867 11.39985360586774 a34.75514606799197,34.75514606799197 0 0,0 -0.49869546948924914,0.33050816414468004 l -7.499861874302654 -11.530659791103739" fill="#ffa10e" stroke="none" /><path d="M 111.1453310114006 117.79835938074945 l 10.114226595672795 16.151753557070563 a40.05719608433928,40.05719608433928 0 0,0 -0.5875452183984083,0.3609182612225773 l -9.834702177342077 -16.323460285121516" fill="#ffe615" stroke="none" /><line stroke="#e1ed5e" stroke-width="0.3" x1="143.8653032363475" x2="146.44561519142675" y1="172.8068346515853" y2="177.08958963109032" /><path d="M 144.38136562736335 173.6633856474863 a86.0,86.0 0 0,1 -40.68145358897372,12.25698825130547" fill="none" id="id66" stroke="none" /><text fill="#e1ed5e" style="font-size:6.75px; font-family:Arial;" text-anchor="middle"><textPath startOffset="21.466115282336833" xlink:href="#id66">June</textPath></text><path d="M 110.8373102113329 117.98757091392108 l 9.555079856931197 15.85934822969229 a39.515357877799076,39.515357877799076 0 0,0 -0.5856404266372761,0.3460066868044346 l -9.280671559265539 -16.021473488790473" fill="#ffdf14" stroke="none" /><path d="M 109.89434966115114 118.52300852407294 l 7.620769696997977 14.2666862291854 a37.174500509651324,37.174500509651324 0 0,0 -0.5670157479654641,0.296635840516295 l -7.374063046506017 -14.395751488646411" fill="#ffc112" stroke="none" /><path d="M 109.2508944713604 118.85261126421891 l 8.659049299112835 17.64647633364207 a40.65648141856157,40.65648141856157 0 0,0 -0.630925345618721,0.30288250716709797 l -8.354011285493883 -17.79291311730873" fill="#ffee16" stroke="none" /><path d="M 108.92500713936063 119.00905698771935 l 8.434740234800259 17.96485485068347 a40.8464317355711,40.8464317355711 0 0,0 -0.6390171468493552,0.29334143030670085 l -8.124255092183484 -18.107383351324245" fill="#fff016" stroke="none" /><path d="M 108.2653958097858 119.30500536409082 l 7.792344448067294 18.20012674900331 a40.79811217457642,40.79811217457642 0 0,0 -0.6479683242307303,0.2708508120802324 l -7.4779046643391025 -18.331562604103514" fill="#fff016" stroke="none" /><path d="M 107.59598834532513 119.57807347666477 l 8.358829337343307 21.544237234924797 a44.10896332433697,44.10896332433697 0 0,0 -0.7102168586357712,0.26854324509518673 l -7.986742257947261 -21.684928730126614" fill="#e5ff1a" stroke="none" /><path d="M 106.91757812671514 119.82793768551818 l 6.651060523344499 19.064015061888046 a41.19092064184013,41.19092064184013 0 0,0 -0.671471374470601,0.22779954715522674 l -6.32191941593667 -19.175677595941394" fill="#fff517" stroke="none" /><path d="M 105.88484417918355 120.15858648285463 l 5.084737159483256 17.417812715348493 a39.144827135246715,39.144827135246715 0 0,0 -0.6484412042993051,0.18325596143910416 l -4.784164787079345 -17.502757470126117" fill="#ffdb14" stroke="none" /><path d="M 104.83641907484287 120.43548508189849 l 3.51841186140175 14.866464628685266 a36.277139541890776,36.277139541890776 0 0,0 -0.608902891722855,0.13858431573850588 l -3.261988820286033 -14.924825678001456" fill="#ffb510" stroke="none" /><path d="M 104.13013068566511 120.58985236759428 l 3.498051158119632 17.43875978790651 a38.78613799691004,38.78613799691004 0 0,0 -0.6557302425997157,0.12567226164536638 l -3.197353300948212 -17.496389247900343" fill="#ffd614" stroke="none" /><path d="M 103.41894727170886 120.7198165907248 l 2.9786443580802446 18.0514526500938 a39.29555314797838,39.29555314797838 0 0,0 -0.6683315382915864,0.10437964134885716 l -2.667476956180141 -18.10005059878976" fill="#ffdd14" stroke="none" /><path d="M 103.06178313531738 120.77559828337769 l 2.5020583462063564 16.977609708130846 a38.16098853124259,38.16098853124259 0 0,0 -0.6506837583373923,0.0901788398616535 l -2.209445996682134 -17.0181631134851" fill="#ffce13" stroke="none" /><path d="M 101.26447882468166 120.96189622390904 l 1.1018073920558 18.265210741527465 a39.29841258037426,39.29841258037426 0 0,0 -0.675580753996425,0.0349198082232619 l -0.7872385696458953 -18.281470356512926" fill="#ffdd14" stroke="none" /><path d="M 100.90346689309514 120.98055641714683 l 0.4413316083924111 10.248723865050408 a31.258221797690865,31.258221797690865 0 0,0 -0.5377599703974035,0.01852154069859698 l -0.26485128632035526 -10.2548022041751" fill="#ff710a" stroke="none" /><line stroke="#e1ed5e" stroke-width="0.3" x1="102.19456741930631" x2="102.32365962044197" y1="184.97166512339345" y2="189.96999836594603" /><path d="M 102.22038585953345 185.97133177190398 a86.0,86.0 0 0,1 -42.740103519485714,-10.115201625700543" fill="none" id="id67" stroke="none" /><text fill="#e1ed5e" style="font-size:6.75px; font-family:Arial;" text-anchor="middle"><textPath startOffset="22.20632615414155" xlink:href="#id67">July</textPath></text><path d="M 100.54218724476979 120.99299961872073 l 0.4798562014879122 18.5795980116678 a39.58579361365224,39.58579361365224 0 0,0 -0.6813286437887291,0.011729690484926072 l -0.15996786780651512 -18.585105179431885" fill="#ffe015" stroke="none" /><path d="M 99.45781275523022 120.99299961872073 l -0.4699622548892157 18.19651335009115 a39.20258120764926,39.20258120764926 0 0,0 -0.674433083435513,-0.023228839056390834 l 0.7831156899993718 -18.185727712608664" fill="#ffdb14" stroke="none" /><path d="M 98.73552117531835 120.96189622390904 l -1.1016352162598253 18.262356497473096 a39.29555314797838,39.29555314797838 0 0,0 -0.674830466711988,-0.04654025999707259 l 1.4158284437507433 -18.240687892959738" fill="#ffdd14" stroke="none" /><path d="M 98.37488393609728 120.93702456842531 l -1.3607393751452344 17.53095324171562 a38.58368372128804,38.58368372128804 0 0,0 -0.6617206159373841,-0.0570960391182185 l 1.66230430882416 -17.504932950318736" fill="#ffd313" stroke="none" /><path d="M 96.93821686468263 120.77559828337769 l -2.990239920183085 20.290144862334877 a41.50930309188469,41.50930309188469 0 0,0 -0.705982590048824,-0.11025996130034972 l 3.3390583738404263 -20.23566659368742" fill="#fff917" stroke="none" /><path d="M 96.58105272829116 120.7198165907248 l -3.0360183389007176 18.399155690008204 a39.64795799703825,39.64795799703825 0 0,0 -0.6724124295084826,-0.11690751990076424 l 3.35227973988125 -18.344169591586436" fill="#ffe115" stroke="none" /><path d="M 95.86986931433489 120.58985236759428 l -3.4438377816203833 17.168490998993242 a38.51048548295072,38.51048548295072 0 0,0 -0.6488256470651244,-0.13596772275610258 l 3.7388548901148946 -17.106667295510597" fill="#ffd213" stroke="none" /><path d="M 94.81253420990036 120.34920634021253 l -4.477006884998005 17.562243410500958 a39.1239064292995,39.1239064292995 0 0,0 -0.651151391028057,-0.1719750005934078 l 4.778648718837551 -17.48257706060397" fill="#ffda14" stroke="none" /><path d="M 92.7421414339146 119.70592522655815 l -6.377477795548012 17.315589636915128 a39.45269268986915,39.45269268986915 0 0,0 -0.6352442985541835,-0.24019503801928624 l 6.674592314862479 -17.203246348789207" fill="#ffdf14" stroke="none" /><path d="M 92.40401165467489 119.57807347666478 l -2.9252636175382536 7.539641115698275 a29.087234099840373,29.087234099840373 0 0,0 -0.46522804239871224,-0.18512383928300627 l 3.054612735978824 -7.488170432009203" fill="#ff5307" stroke="none" /><line stroke="#e1ed5e" stroke-width="0.3" x1="58.666819895761336" x2="56.23545636021788" y1="174.27360380694188" y2="178.64263932499728" /><path d="M 58.180547188652646 175.14741091055294 a86.0,86.0 0 0,1 -31.652253787137756,-30.449443065178592" fill="none" id="id68" stroke="none" /><text fill="#e1ed5e" style="font-size:6.75px; font-family:Arial;" text-anchor="middle"><textPath startOffset="22.20632615414155" xlink:href="#id68">August</textPath></text><path d="M 86.24171649860922 115.8653595955263 l -3.7002972670160577 4.266996442224678 a26.647960561321632,26.647960561321632 0 0,0 -0.34395873759951845,-0.3035035945348982 l 3.773198357522164 -4.202669705917491" fill="#ff3004" stroke="none" /><path d="M 85.44109423537348 115.13401014063109 l -14.331755885508652 14.897887410695892 a41.67235535839066,41.67235535839066 0 0,0 -0.5126692853072883,-0.5017547982544371 l 14.586075123191735 -14.648982509518884" fill="#fffb17" stroke="none" /><path d="M 84.67929136418377 114.36230785411682 l -14.198914031176265 13.310688125296878 a40.46236311534788,40.46236311534788 0 0,0 -0.4719714850516947,-0.5122318315232195 l 14.42593192422369 -13.064305038972313" fill="#ffeb16" stroke="none" /><path d="M 84.43433777217949 114.09645910891817 l -18.056998411465596 16.35264443051361 a45.36112007897992,45.36112007897992 0 0,0 -0.5191497038581855,-0.5832701957529005 l 18.335806964972118 -16.039400065019848" fill="#d6ff1c" stroke="none" /><path d="M 83.95833913139862 113.55231037782056 l -14.138093089188384 11.94413890585546 a39.50805582444916,39.50805582444916 0 0,0 -0.43440800601403706,-0.5232724276615065 l 14.341597095095958 -11.699005221080192" fill="#ffdf14" stroke="none" /><path d="M 83.28015986056508 112.70617746262583 l -15.632467974350668 11.879833216373541 a40.63426831379136,40.63426831379136 0 0,0 -0.4184144147117279,-0.5605344848127802 l 15.83464365575748 -11.608985852051454" fill="#ffee16" stroke="none" /><path d="M 83.06392112726016 112.41649034213515 l -16.115854505027016 11.815152333696679 a40.98295751623512,40.98295751623512 0 0,0 -0.41221089503051617,-0.5725248802136702 l 16.31684519243314 -11.53599384803187" fill="#fff216" stroke="none" /><path d="M 82.6465618267979 111.8261652097733 l -13.378241617320619 9.117115236968885 a37.189476181012765,37.189476181012765 0 0,0 -0.35595091541834173,-0.5320983224960104 l 13.533195638149692 -8.885480000267055" fill="#ffc112" stroke="none" /><path d="M 82.44556493220864 111.52570212397912 l -16.229679484185944 10.655908354783485 a40.41522286827917,40.41522286827917 0 0,0 -0.37681448014961283,-0.5848244411443224 l 16.4106988277126 -10.374962313717715" fill="#ffeb16" stroke="none" /><path d="M 82.05923443525364 110.91462005526583 l -17.12125181085959 10.416052632295035 a41.040743898608234,41.040743898608234 0 0,0 -0.3619776497901595,-0.6066953619638239 l 17.298010336347982 -10.1197951764451" fill="#fff316" stroke="none" /><line stroke="#e1ed5e" stroke-width="0.3" x1="26.63291911575756" x2="22.317208475507996" y1="142.92168965132927" y2="145.44649492493687" /><path d="M 25.769776987707644 143.4266507060508 a86.0,86.0 0 0,1 -11.730757126820373,-40.83630448921669" fill="none" id="id69" stroke="none" /><text fill="#e1ed5e" style="font-size:6.75px; font-family:Arial;" text-anchor="middle"><textPath startOffset="21.46611528233685" xlink:href="#id69">September</textPath></text><path d="M 81.87401531095188 110.60418214915194 l -16.18286295528606 9.4674043599023 a39.74878126021707,39.74878126021707 0 0,0 -0.3404161411917065,-0.5935442359296814 l 16.34343109263014 -9.18744027811431" fill="#ffe215" stroke="none" /><path d="M 81.18737489456691 109.33194174019688 l -17.44211073141868 8.652102524737726 a40.47013366327113,40.47013366327113 0 0,0 -0.30419422871973245,-0.6267302105169942 l 17.588458216753132 -8.350583358255447" fill="#ffeb16" stroke="none" /><path d="M 80.87730276802145 108.67885076344099 l -18.266861860691673 8.290429225654384 a41.06014603593843,41.06014603593843 0 0,0 -0.2865585935143988,-0.6461139791156522 l 18.406861538937353 -7.974766910046036" fill="#fff316" stroke="none" /><path d="M 80.73074385275274 108.34839909993369 l -17.78038866972609 7.703347738621335 a40.37740404772131,40.37740404772131 0 0,0 -0.27081513057730167,-0.640126971188418 l 17.9103547814957 -7.3961462417667585" fill="#ffea16" stroke="none" /><path d="M 80.20201598880116 107.00284435728193 l -19.41612504335614 6.867775103931582 a41.594956823878604,41.594956823878604 0 0,0 -0.23294991947660248,-0.67706150743923 l 19.53146579377597 -6.5325408934030555" fill="#fffa17" stroke="none" /><path d="M 79.86692584326677 105.97154293290107 l -18.633962995000726 5.5269011164657575 a40.43633743404983,40.43633743404983 0 0,0 -0.19218305777505879,-0.6690144361635372 l 18.726338689661887 -5.205329204797625" fill="#ffeb16" stroke="none" /><path d="M 79.4281124754447 104.21870165774334 l -15.04806754547343 3.085925266903522 a36.361226240311815,36.361226240311815 0 0,0 -0.12045966412502136,-0.6142212321774807 l 15.098957142574116 -2.8264403076580864" fill="#ffb610" stroke="none" /><path d="M 79.29508885075956 103.50808413554451 l -19.141590741244606 3.243206905087795 a40.414398964029516,40.414398964029516 0 0,0 -0.11030868796004953,-0.6868923052251048 l 19.194581183565944 -2.9132353701694766" fill="#ffeb16" stroke="none" /><line stroke="#e1ed5e" stroke-width="0.3" x1="15.007084014347285" x2="10.007500721073583" y1="101.09737516637583" y2="101.16192664675087" /><path d="M 14.007167355692545 101.11028546245083 a86.0,86.0 0 0,1 10.666146001902534,-42.60595125391555" fill="none" id="id70" stroke="none" /><text fill="#e1ed5e" style="font-size:6.75px; font-family:Arial;" text-anchor="middle"><textPath startOffset="22.20632615414155" xlink:href="#id70">October</textPath></text><path d="M 79.21141760316559 97.0276538004421 l -19.222798562202435 -2.7484708269444122 a40.41829231548378,40.41829231548378 0 0,0 0.10440257882678736,-0.6878825499595137 l 19.172640089936344 3.078952489296018" fill="#ffeb16" stroke="none" /><path d="M 79.26566170972629 96.67025291283419 l -19.750514946690345 -3.1717539616210644 a41.00357127746187,41.00357127746187 0 0,0 0.11791092097470349,-0.6959169301472539 l 19.692992164195417 3.5112566800841463" fill="#fff216" stroke="none" /><path d="M 79.54389044137918 95.25157060432595 l -33.22279705335464 -7.7119310337375016 a55.1061303040599,55.1061303040599 0 0,0 0.22243773115894352,-0.922148000711824 l 33.08512652193488 8.282664266108721" fill="#68ff28" stroke="none" /><path d="M 79.71946130924805 94.55025226153421 l -18.48367586406224 -4.966898181291504 a40.13939264948169,40.13939264948169 0 0,0 0.18504877285243826,-0.6657188927353932 l 18.39544032064344 5.284328377445839" fill="#ffe715" stroke="none" /><path d="M 79.81627453868168 94.20196356495316 l -27.63823547087922 -7.93944094055742 a49.75598689651193,49.75598689651193 0 0,0 0.24355343030231466,-0.8211410900835856 l 27.4974761434652 8.414011417387545" fill="#a3ff21" stroke="none" /><path d="M 79.91906864156998 93.8553929516997 l -14.13579442236077 -4.325441907578583 a35.78276468212502,35.78276468212502 0 0,0 0.18529425879970887,-0.5874334366173988 l 14.059244679792856 4.568125510622396" fill="#ffaf10" stroke="none" /><path d="M 80.02781315780177 93.51064311812611 l -19.783569524512668 -6.428071400307235 a41.801676015616486,41.801676015616486 0 0,0 0.22824253794410385,-0.6824161371942946 l 19.66998969279679 6.767660640423851" fill="#fffc17" stroke="none" /><path d="M 80.2630227832202 92.82701384747504 l -15.083029140258343 -5.481607339001395 a37.04823314464481,37.04823314464481 0 0,0 0.22298698445738194,-0.5974942561920896 l 14.986437567299335 5.740424732222826" fill="#ffbf11" stroke="none" /><path d="M 80.65960295795068 91.81776055985345 l -18.93479535688256 -8.010643681375617 a41.559593561084434,41.559593561084434 0 0,0 0.2844047471376257,-0.6564453683259508 l 18.794099899902253 8.335388194288168" fill="#fff917" stroke="none" /><path d="M 80.803312248108 91.48605970444005 l -18.72653756168745 -8.305423560741811 a41.48568450339447,41.48568450339447 0 0,0 0.2951364354284058,-0.650294013649477 l 18.580798809295693 8.62653958323336" fill="#fff817" stroke="none" /><path d="M 81.10775173730289 90.83032412892265 l -13.335873928824183 -6.472794539034426 a35.823717569828645,35.823717569828645 0 0,0 0.2740343583989463,-0.5524365447290615 l 13.222479557471825 6.701390672262449" fill="#ffaf10" stroke="none" /><path d="M 81.26839172434947 90.50648371742162 l -2.1386520656436074 -1.083907367118607 a23.39764214143305,23.39764214143305 0 0,0 0.18516511477150296,-0.35768006486624315 l 2.1196775177119904 1.1205601542451857" fill="#ff0000" stroke="none" /><path d="M 81.43458229118936 90.18545643968196 l -14.283468697595868 -7.550906094532178 a37.156536166011705,37.156536166011705 0 0,0 0.3037845867047688,-0.562866702281098 l 14.151376011672628 7.795653780145749" fill="#ffc111" stroke="none" /><line stroke="#e1ed5e" stroke-width="0.3" x1="26.266209847984243" x2="21.928928074336255" y1="57.711370442889674" y2="55.22380399835377" /><path d="M 25.398753493254645 57.213857153982495 a86.0,86.0 0 0,1 29.58750427330803,-30.492523968695096" fill="none" id="id71" stroke="none" /><text fill="#e1ed5e" style="font-size:6.75px; font-family:Arial;" text-anchor="middle"><textPath startOffset="21.46611528233685" xlink:href="#id71">November</textPath></text><path d="M 82.54541684631803 88.32363383020206 l -11.165114613685672 -7.468981952150225 a34.43299950637545,34.43299950637545 0 0,0 0.3337960130065896,-0.4898044608225368 l 11.034894135010342 7.660064436243177" fill="#ff9d0e" stroke="none" /><path d="M 82.95767976084542 87.72973835380427 l -15.74455654995603 -11.335887699577043 a40.40086108635865,40.40086108635865 0 0,0 0.4111987857522814,-0.5608746816516268 l 15.547095151690115 11.60522482490017" fill="#ffeb16" stroke="none" /><path d="M 83.17141714833178 87.43820079747576 l -16.854988328585016 -12.581509733220694 a42.03295078499125,42.03295078499125 0 0,0 0.43779131619302464,-0.5760820547887636 l 16.635921072167882 12.869776563890483" fill="#ffff18" stroke="none" /><path d="M 83.6137871275137 86.86637796730984 l -20.221243650045036 -16.20741614900863 a46.91484194398323,46.91484194398323 0 0,0 0.5104815299141845,-0.6257899956592589 l 19.93926362805446 16.55309031427597" fill="#c4ff1e" stroke="none" /><path d="M 84.31358615837235 86.03803664274999 l -28.960839301742073 -25.777094829226613 a59.77097923571534,59.77097923571534 0 0,0 0.6906575341977454,-0.762641299446627 l 28.512838126928283 26.271788915942796" fill="#38ff2e" stroke="none" /><path d="M 85.05521093208273 85.24692304244772 l -15.277203776272406 -15.081227442105696 a42.46709985960548,42.46709985960548 0 0,0 0.5180262216547926,-0.5158016524308159 l 15.0153417544503 15.341964945186621" fill="#faff18" stroke="none" /><path d="M 85.31137513191541 84.99185889309783 l -15.243280089209039 -15.574861538465713 a42.79297822282341,42.79297822282341 0 0,0 0.5308708515606656,-0.5106973385929304 l 14.972925994035945 15.834941963820958" fill="#f6ff19" stroke="none" /><path d="M 85.83668400450813 84.49514656593479 l -24.095776594919567 -26.378108389527057 a56.72689535800601,56.72689535800601 0 0,0 0.7266148361474625,-0.6523619742095167 l 23.638150771176132 26.788969372505854" fill="#57ff2a" stroke="none" /><path d="M 87.22198572758235 83.33499621200491 l -12.919345799541286 -16.849327453994004 a42.232270993467495,42.232270993467495 0 0,0 0.5807014611848439,-0.4373723013605853 l 12.627398184598054 17.069216344860443" fill="#fcff18" stroke="none" /><path d="M 87.80319425747018 82.90503203632743 l -20.794599480042145 -29.14558282166995 a56.80335690337139,56.80335690337139 0 0,0 0.8008431022001805,-0.5610417716023173 l 20.289825238258302 29.49920943603621" fill="#56ff2a" stroke="none" /><path d="M 88.39885842347998 82.49532879139004 l -11.603744580290664 -17.508598815635466 a42.00471187070883,42.00471187070883 0 0,0 0.6061339413930932,-0.3942463761945458 l 11.300643613113284 17.705744115989546" fill="#ffff18" stroke="none" /><path d="M 88.70189139769569 82.29822771554957 l -11.596492411718703 -18.169277283167034 a42.55461141490746,42.55461141490746 0 0,0 0.6208532340842478,-0.38877823822637253 l 11.282020025262213 18.366199862716336" fill="#f8ff18" stroke="none" /><line stroke="#e1ed5e" stroke-width="0.3" x1="56.762969772571076" x2="54.21961505331055" y1="26.818313649435495" y2="22.513508569990535" /><path d="M 56.25429882871897 25.957352633546506 a86.0,86.0 0 0,1 42.265352541879196,-11.944610805530505" fill="none" id="id72" stroke="none" /><text fill="#e1ed5e" style="font-size:6.75px; font-family:Arial;" text-anchor="middle"><textPath startOffset="22.20632615414155" xlink:href="#id72">December</textPath></text><path d="M 89.3179101791058 81.91981866633112 l -10.641459407643701 -18.011411528176872 a41.92012436774388,41.92012436774388 0 0,0 0.6244167560804972,-0.36170248843463654 l 10.329845919097883 18.191918174001557" fill="#fffe18" stroke="none" /><path d="M 89.94658935756843 81.56283822128135 l -15.49338281532304 -28.41364146214169 a53.36324971632615,53.36324971632615 0 0,0 0.8102445954951237,-0.43280460236618223 l 15.00199317329961 28.676124791009624" fill="#7bff26" stroke="none" /><path d="M 90.58718382345135 81.22770947309562 l -9.574674929965099 -19.095090790551996 a42.3611070011347,42.3611070011347 0 0,0 0.6546379230054293,-0.3212279857574782 l 9.244565739949245 19.257073936444304" fill="#fbff18" stroke="none" /><path d="M 90.91171255644093 81.06846463323043 l -7.991908663123287 -16.647702049866094 a39.46663444217221,39.46663444217221 0 0,0 0.6149687007691461,-0.28873605084112386 l 7.704161751054533 16.782803083347225" fill="#ffdf14" stroke="none" /><path d="M 91.23893434514133 80.91482961587045 l -9.016891085963616 -19.64246240014401 a42.61320554654495,42.61320554654495 0 0,0 0.669266532319112,-0.3002803844004256 l 8.67744243517773 19.794763115060963" fill="#f8ff18" stroke="none" /><path d="M 91.56875222667455 80.76684994638697 l -8.639071066560462 -19.707231315472143 a42.51763265358455,42.51763265358455 0 0,0 0.672823805290062,-0.2880680401836603 l 8.298563503480091 19.85301888361859" fill="#f9ff18" stroke="none" /><path d="M 92.23578459929587 80.48803036053334 l -11.914694212565404 -29.94238821839252 a53.225867721441894,53.225867721441894 0 0,0 0.8541911180774397,-0.3314128831588055 l 11.397519929488288 30.143043805441874" fill="#7dff26" stroke="none" /><path d="M 92.57280143429618 80.3572730644239 l -22.28159569711144 -58.92818080672833 a84.0,84.0 0 0,0 1.3568706969097222,-0.4997469287747105 l 21.26394267442915 59.30299100330936" fill="#4dd2ff" stroke="none" /><path d="M 92.91201910852362 80.23233633223022 l -5.959989136904617 -16.621808456562 a38.65802896358076,38.65802896358076 0 0,0 0.6283181415577551,-0.21920786223939046 l 5.672988991283576 16.7219371719736" fill="#ffd413" stroke="none" /><path d="M 93.25333710446033 80.11325718540243 l -6.835738966074268 -20.149307127219103 a42.27726262749296,42.27726262749296 0 0,0 0.6911671661232069,-0.22786694787239067 l 6.487888977708651 20.263987799350726" fill="#fcff18" stroke="none" /><path d="M 93.94186890950719 79.89281104454417 l -5.596406809238033 -18.574706869836813 a40.399471757623935,40.399471757623935 0 0,0 0.6675719951762796,-0.19488257142138743 l 5.275844596338332 18.6682877701769" fill="#ffeb16" stroke="none" /><path d="M 94.98787191387505 79.60689891045804 l -6.916187313761606 -28.140243948313174 a49.97769791459655,49.97769791459655 0 0,0 0.8371890622141441,-0.19813560253232526 l 6.430774564584928 28.255125462986367" fill="#a1ff22" stroke="none" /><path d="M 95.33964822691252 79.52364482259891 l -4.837779096141936 -21.255923987210384 a42.79950483687952,42.79950483687952 0 0,0 0.719759835036694,-0.1573116219803666 l 4.47117653695172 21.33604910728662" fill="#f5ff19" stroke="none" /><path d="M 95.692805502759 79.44645832069477 l -4.233515292241561 -20.201951192313246 a41.64077236215374,41.64077236215374 0 0,0 0.7028042124228467,-0.1409759133732645 l 3.8851446703515786 20.27183106176372" fill="#fffa17" stroke="none" /><path d="M 99.63851952072746 79.00311137660856 l -0.18680125799998412 -10.850503509424282 a31.85211136682715,31.85211136682715 0 0,0 0.5482817372725172,-0.004719234011426574 l 2.6580006898750954e-15 10.852111366827149" fill="#ff7a0b" stroke="none" /></svg>