<?xml version="1.0" encoding="utf-8" ?>
<svg baseProfile="full" height="200mm" version="1.1" viewBox="0,0,200,200" width="200mm" xmlns="http://www.w3.org/2000/svg" xmlns:ev="http://www.w3.org/2001/xml-events" xmlns:xlink="http://www.w3.org/1999/xlink"><defs /><rect fill="#1a1a1a" height="200" width="200" x="0" y="0" /><rect fill="#1a1a1a" height="200" width="180" x="10" y="0" /><text alignment-baseline="middle" fill="#e1ed5e" style="dominant-baseline: central; font-size:9.0px; font-family:Arial;" text-anchor="middle" x="100.0" y="100.0">2025</text><line stroke="#e1ed5e" stroke-width="0.3" x1="100.0" x2="100.0" y1="15.0" y2="10.0" /><path d="M 100.0 14.0 a86.0,86.0 0 0,1 42.46469731375804,11.215312516191453" fill="none" id="id97" stroke="none" /><text fill="#e1ed5e" style="font-size:6.75px; font-family:Arial;" text-anchor="middle"><textPath startOffset="22.20632615414155" xlink:href="#id97">January</textPath></text><path d="M 100.0 79.0 l 0.0 -20.49546322620887 a41.49546322620887,41.49546322620887 0 0,0 0.7142761873640742,0.006148000649682905 l -0.35279570809154587 20.492426602167747" fill="#ffef16" stroke="none" /><path d="M 100.36148047927253 79.00311137660856 l 0.3701069413115943 -21.497963710523944 a42.501149337814745,42.501149337814745 0 0,0 0.7313706354424538,0.01888914575992566 l -0.740104211948916 21.48840777262166" fill="#fffc17" stroke="none" /><path d="M 101.08401301168833 79.027996857942 l 1.673486718446359 -32.376335282901685 a53.419556507572416,53.419556507572416 0 0,0 0.9178953962899528,0.05536995696780728 l -2.2305441635759236 32.34273205655358" fill="#80ff25" stroke="none" /><path d="M 101.80526077348638 79.07773832637324 l 1.3023200107016717 -15.093376229562448 a36.149456868726176,36.149456868726176 0 0,0 0.6194895807804539,0.058828000217179426 l -1.56193471857237 15.06872268483009" fill="#ffa80f" stroke="none" /><path d="M 102.16513564639614 79.11191278185805 l 1.7952784628307772 -17.319900106434304 a38.41269549656133,38.41269549656133 0 0,0 0.657100915728898,0.07383294420680207 l -2.0931460820694 17.286431208756902" fill="#ffc712" stroke="none" /><path d="M 102.88285421437855 79.19881850522331 l 2.819838543623523 -20.34649308290595 a41.540965658528435,41.540965658528435 0 0,0 0.7074446620208439,0.10425895349924834 l -3.1696521860730225 20.294939645245734" fill="#fff016" stroke="none" /><path d="M 103.2404852339499 79.25152402106235 l 2.2179765482388354 -14.201463611326533 a35.37362127900861,35.37362127900861 0 0,0 0.6007970277774657,0.0991366574108605 l -2.462102782155176 14.161180690976048" fill="#ff9e0e" stroke="none" /><path d="M 103.59715602781102 79.31037775812273 l 7.569662268275213 -43.538131684688054 a65.19127399667255,65.19127399667255 0 0,0 1.1039207187968738,0.20173445527647055 l -8.317978108174987 43.40138174806085" fill="#35ff62" stroke="none" /><path d="M 103.95276090670814 79.375362276772 l 1.8223340305383378 -9.508538481742887 a30.68159105610454,30.68159105610454 0 0,0 0.5178374514893556,0.10387332120694956 l -1.9857378914948185 9.47576120445873" fill="#ff5c08" stroke="none" /><path d="M 104.307194497241 79.44645832069477 l 4.38143523515458 -20.907811750458613 a42.3619654271902,42.3619654271902 0 0,0 0.7124017290366154,0.15570342500516585 l -4.7406796883447235 20.82929482735758" fill="#fffa17" stroke="none" /><path d="M 105.01212808612495 79.60689891045804 l 7.508063789745953 -30.54844194322963 a52.457563908061374,52.457563908061374 0 0,0 0.8750199218205305,0.2230620612033341 l -8.032792600251508 30.41467688585743" fill="#8bff24" stroke="none" /><path d="M 105.36241919743992 79.69619591428918 l 5.38625594930123 -20.394057518352323 a42.09334812715245,42.09334812715245 0 0,0 0.6989542543609152,0.19105060086675976 l -5.736508092885856 20.29832037665927" fill="#fff717" stroke="none" /><path d="M 106.0581310904928 79.89281104454417 l 14.431023301970095 -47.89716630738929 a71.02392401461236,71.02392401461236 0 0,0 1.167547497967937,0.3627626909486395 l -15.25335617264875 47.641663481558126" fill="#3cffa6" stroke="none" /><path d="M 106.40334571778207 80.00007090966166 l 3.2553336419370478 -10.167566280754365 a31.675982446307238,31.675982446307238 0 0,0 0.5178528045792822,0.17072792778701545 l -3.4298692687587473 10.110024628708112" fill="#ff6a09" stroke="none" /><path d="M 106.74666289553966 80.11325718540242 l 6.202210853247414 -18.281893438307215 a40.3053113716863,40.3053113716863 0 0,0 0.6550918144280816,0.22854867098899662 l -6.515984671738769 18.172423914146012" fill="#ffe014" stroke="none" /><path d="M 108.09893153111575 80.62456947434976 l 5.277110299315026 -12.624663338336147 a34.68320201990256,34.68320201990256 0 0,0 0.5488472077644461,0.23498773119779157 l -5.493641264869787 12.531956079175563" fill="#ff940d" stroke="none" /><path d="M 109.08828744355905 81.06846463323043 l 7.638127416460106 -15.910751086893386 a38.64916401927181,38.64916401927181 0 0,0 0.5972744871562041,0.2930799969129311 l -7.910873170626743 15.776915929845623" fill="#ffca12" stroke="none" /><path d="M 109.41281617654863 81.2277094730956 l 6.9281503153781605 -13.817039246806045 a36.45670858689692,36.45670858689692 0 0,0 0.5585506497555736,0.2861113370297409 l -7.16496145272249 13.695735384463804" fill="#ffad10" stroke="none" /><path d="M 109.73455568895987 81.39251694778311 l 7.453086981588197 -14.246483776746363 a37.07827122411538,37.07827122411538 0 0,0 0.5629804974274272,0.3007246844764141 l -7.697212525543935 14.116080365768195" fill="#ffb510" stroke="none" /><path d="M 110.05341064243156 81.56283822128135 l 8.684407433881855 -15.926517925667904 a39.140366746961966,39.140366746961966 0 0,0 0.5887380476310113,0.32763208609349825 l -8.9572695705849 15.774670442014225" fill="#ffd013" stroke="none" /><line stroke="#e1ed5e" stroke-width="0.3" x1="143.23703022742887" x2="145.7803849466894" y1="26.81831364943548" y2="22.513508569990506" /><path d="M 143.74570117128098 25.957352633546492 a86.0,86.0 0 0,1 28.547481713284135,27.462654790039103" fill="none" id="id98" stroke="none" /><text fill="#e1ed5e" style="font-size:6.75px; font-family:Arial;" text-anchor="middle"><textPath startOffset="19.985693538727396" xlink:href="#id98">February</textPath></text><path d="M 111.2981086023043 82.29822771554956 l 6.082465688870951 -9.529951104419085 a32.30558963119177,32.30558963119177 0 0,0 0.4661742337967887,0.3032126891413664 l -6.24560694845202 9.42383949111819" fill="#ff730a" stroke="none" /><path d="M 111.60114157652 82.49532879139004 l 10.443990417823574 -15.75867488246917 a39.90536352199966,39.90536352199966 0 0,0 0.5693075990091203,0.3843990321853199 l -10.713702711239238 15.576563937985181" fill="#ffda14" stroke="none" /><path d="M 111.90073688211348 82.69761687909136 l 16.39355799863055 -23.83445865721624 a49.928016927142,49.928016927142 0 0,0 0.7039110035460532,0.4931346419727639 l -16.801400141760254 23.54873917247954" fill="#a8ff21" stroke="none" /><path d="M 112.19680574252982 82.90503203632743 l 6.537060067255483 -9.162303211624062 a32.25526341160627,32.25526341160627 0 0,0 0.44920013604602504,0.32636300242322913 l -6.693805519655297 9.048420974384157" fill="#ff720a" stroke="none" /><path d="M 112.77801427241765 83.33499621200491 l 19.69904207 -25.691363596693815 a53.374348208622735,53.374348208622735 0 0,0 0.7242834109067647,0.5653146906058282 l -20.138358036066194 25.34847051686476" fill="#81ff25" stroke="none" /><path d="M 113.06298171725822 83.55741782278167 l 7.486577298656196 -9.423473531821552 a33.035393348523996,33.035393348523996 0 0,0 0.44219699035025284,0.35755921345717295 l -7.6476776875709405 9.29320822110025" fill="#ff7d0b" stroke="none" /><path d="M 113.34407831869373 83.78471172551755 l 20.16670896628769 -24.50592627126879 a52.73699060944201,52.73699060944201 0 0,0 0.6959837843268885,0.5828664039516432 l -20.585550287573696 24.155158709923327" fill="#88ff25" stroke="none" /><path d="M 113.89432698308785 84.25364557470407 l 17.057463063282086 -19.33111688804825 a46.78078986948648,46.78078986948648 0 0,0 0.5992151650701277,0.5379812916207711 l -17.387689215948203 19.03463658765818" fill="#cdff1d" stroke="none" /><path d="M 114.16331599549186 84.49514656593476 l 13.987061893112513 -15.311904690606129 a41.73866740308948,41.73866740308948 0 0,0 0.526289050916529,0.4891283157741055 l -14.248558827823887 15.068871788757383" fill="#fff216" stroke="none" /><path d="M 114.68862486808459 84.99185889309783 l 27.432689356934482 -28.029422529896372 a60.219905312398815,60.219905312398815 0 0,0 0.734580183730964,0.7314256629732097 l -27.91110534083277 27.553061016273045" fill="#38ff2e" stroke="none" /><path d="M 114.94478906791727 85.2469230424477 l 17.634977460832534 -17.408755549643928 a45.78017755851095,45.78017755851095 0 0,0 0.5487860335949598,0.565572247273852 l -17.932027758130605 17.10261910681996" fill="#d9ff1c" stroke="none" /><path d="M 115.68641384162765 86.03803664274999 l 8.62909835213813 -7.680477910058623 a32.55210280848346,32.55210280848346 0 0,0 0.36893644409854487,0.4217581327176516 l -8.760026659814523 7.530804221138024" fill="#ff770a" stroke="none" /><path d="M 115.9244219780498 86.31012108654704 l 12.403791633524952 -10.663269647383014 a37.35724201877271,37.35724201877271 0 0,0 0.41500228916060816,0.49123181190588433 l -12.585504536172678 10.448178885848023" fill="#ffb911" stroke="none" /><path d="M 116.38621287248628 86.86637796730983 l 12.554598601712957 -10.062566261658732 a37.089536532181576,37.089536532181576 0 0,0 0.3949963570515956,0.5016052609474388 l -12.725949039358516 9.844968606758254" fill="#ffb510" stroke="none" /><path d="M 116.82858285166822 87.43820079747576 l 24.098734640172797 -17.988648732519817 a51.07225456262718,51.07225456262718 0 0,0 0.5198119172978551,0.7090228710178921 l -24.40480916998428 17.57116341783043" fill="#9bff22" stroke="none" /><path d="M 117.04232023915458 87.72973835380427 l 15.168105853290662 -10.920850264828855 a39.69054321531193,39.69054321531193 0 0,0 0.39442454676972466,0.5578855497426584 l -15.35384301986427 10.658138214754404" fill="#ffd814" stroke="none" /><path d="M 117.2510076193507 88.02491185347247 l 18.979539034649573 -13.174978409112965 a44.10417620362993,44.10417620362993 0 0,0 0.4275491065187761,0.627375557027554 l -19.203512606837084 12.846324828815003" fill="#eeff19" stroke="none" /><path d="M 117.45458315368197 88.32363383020206 l 15.510155178380439 -10.375627399326058 a39.66061514492722,39.66061514492722 0 0,0 0.37470473754895245,0.5707010223014519 l -15.686456551287316 10.107108313046933" fill="#ffd714" stroke="none" /><line stroke="#e1ed5e" stroke-width="0.3" x1="172.23445277983987" x2="176.4835382374775" y1="55.19839476539836" y2="52.563006222186495" /><path d="M 173.08426987136738 54.67131705675599 a86.0,86.0 0 0,1 12.851231095245387,41.99856678651699" fill="none" id="id99" stroke="none" /><text fill="#e1ed5e" style="font-size:6.75px; font-family:Arial;" text-anchor="middle"><textPath startOffset="22.20632615414155" xlink:href="#id99">March</textPath></text><path d="M 117.84615892207809 88.93136811851018 l 42.5032743926626 -26.36158851125783 a71.01461469345584,71.01461469345584 0 0,0 0.6353582948424449,1.0443619805057658 l -42.950748485791266 25.62605875754498" fill="#3cffa6" stroke="none" /><path d="M 118.03404312379186 89.2402003453031 l 16.686258915419852 -9.955660063796449 a40.4305533605788,40.4305533605788 0 0,0 0.35143839865642174,0.6007221437345233 l -16.8551569885466 9.66695850770803" fill="#ffe115" stroke="none" /><path d="M 118.21658344932153 89.55222093294921 l 22.27863094803886 -12.77749006607161 a46.68271109730189,46.68271109730189 0 0,0 0.39378502641142715,0.7004996222718961 l -22.49527361574272 12.39210693386492" fill="#cfff1d" stroke="none" /><path d="M 118.56541770881063 90.18545643968196 l 25.01524731720136 -13.224223570810803 a49.29563018191215,49.29563018191215 0 0,0 0.39011755822196464,0.7535829505600019 l -25.23917430858344 12.791667897990456" fill="#afff20" stroke="none" /><path d="M 118.73160827565052 90.50648371742162 l 16.68599331231991 -8.45676179377619 a39.70666172398104,39.70666172398104 0 0,0 0.30373702976208194,0.6123153177155722 l -16.8290903550354 8.168286887561667" fill="#ffd814" stroke="none" /><path d="M 119.04729006885535 91.15688171328212 l 30.691986908015586 -14.249421818055453 a54.83850000385175,54.83850000385175 0 0,0 0.39013070675147327,0.8596012985420215 l -30.932719931730407 13.71899851067137" fill="#71ff27" stroke="none" /><path d="M 119.34039704204932 91.81776055985345 l 24.74597934764939 -10.469150543454099 a47.869436298065416,47.869436298065416 0 0,0 0.3145211461959856,0.761637903107112 l -24.922522180731573 10.041638069893684" fill="#c0ff1e" stroke="none" /><path d="M 119.47837535516314 92.15188598940014 l 17.737468426319218 -7.146677889245477 a40.12309574904914,40.12309574904914 0 0,0 0.2525967646065916,0.642831213877586 l -17.85785874080751 6.840297670472106" fill="#ffdd14" stroke="none" /><path d="M 119.61058180528143 92.48833698450437 l 23.18237512274703 -8.879807419787355 a45.82485641739486,45.82485641739486 0 0,0 0.2758119801776458,0.7390389817868818 l -23.3317916914263 8.47944530097114" fill="#d9ff1c" stroke="none" /><path d="M 119.85752413597 93.16781622104841 l 12.21097201492758 -4.201309506379944 a33.91351381761537,33.91351381761537 0 0,0 0.18517215581124988,0.5536411767187764 l -12.2814814645106 3.990495226738854" fill="#ff8a0c" stroke="none" /><path d="M 119.97218684219823 93.5106431181261 l 42.775340071609264 -13.898550502326549 a65.97665421424256,65.97665421424256 0 0,0 0.3416475878628642,1.0831162171477053 l -43.008243143240335 13.160184118752424" fill="#36ff6c" stroke="none" /><path d="M 120.08093135843002 93.85539295169968 l 22.29892879034175 -6.823296816716633 a44.31951124371494,44.31951124371494 0 0,0 0.21694211422597623,0.7314209614680167 l -22.41307680167943 6.438446468502086" fill="#ebff1a" stroke="none" /><path d="M 120.18372546131832 94.20196356495316 l 25.52334596675044 -7.331911551370221 a47.5555665790725,47.5555665790725 0 0,0 0.21923847514601624,0.7887174428094482 l -25.645771212462822 6.8914828051418215" fill="#c4ff1e" stroke="none" /><path d="M 120.53481517161879 95.60439243477599 l 20.613008871767438 -4.412345423201005 a42.07996505882318,42.07996505882318 0 0,0 0.14551793764019372,0.7095971435772531 l -20.68590610532263 4.0568726234603405" fill="#fff617" stroke="none" /><path d="M 120.6074358757038 95.95851677861258 l 30.690384134007996 -6.018927987143 a52.27502473871736,52.27502473871736 0 0,0 0.1655731156233325,0.8844982043263403 l -30.78944297354119 5.489751705354097" fill="#8dff24" stroke="none" /><path d="M 120.67395015179393 96.31383870115 l 9.709370837349947 -1.7311789355222227 a30.862497785245758,30.862497785245758 0 0,0 0.08874899000415386,0.5238015627967889 l -9.737731688874325 1.563791584409596" fill="#ff5f08" stroke="none" /><path d="M 120.73433829027371 96.67025291283417 l 21.03873890717768 -3.378631071466546 a42.30830079385663,42.30830079385663 0 0,0 0.10928457031733868,0.720048774138435 l -21.09377937093432 3.015983184936029" fill="#fff917" stroke="none" /><path d="M 120.83666639777658 97.38593545837742 l 18.067099705198938 -2.266608477945392 a39.20872334212076,39.20872334212076 0 0,0 0.07824875021182022,0.670387506108427 l -18.10343880841435 1.955277233512112" fill="#ffd113" stroke="none" /><path d="M 120.87857604477298 97.74499172005257 l 25.595724481255992 -2.7644878900127576 a46.74458205165496,46.74458205165496 0 0,0 0.07951670617466759,0.8007223795702179 l -25.63951831311289 2.3234899797381052" fill="#ceff1d" stroke="none" /><path d="M 120.94382443527127 98.46500227214037 l 44.02100680412632 -3.226351788388268 a65.13908003018835,65.13908003018835 0 0,0 0.07233356422952725,1.1189682230374558 l -44.070020959360264 2.468124501097777" fill="#35ff62" stroke="none" /><path d="M 120.96714384426684 98.82574320788733 l 7.3570416461263335 -0.41202827561951577 a28.368570355418157,28.368570355418157 0 0,0 0.02310875611216196,0.4877893179202627 l -7.3630440104719925 0.2853278510762533" fill="#ff3b05" stroke="none" /><path d="M 120.98425023603335 99.18683210126433 l 30.699189155821127 -1.189634838411398 a51.72223048337551,51.72223048337551 0 0,0 0.026817497568501977,0.8899421864480139 l -30.715118347845273 0.6610225045383851" fill="#93ff23" stroke="none" /><line stroke="#e1ed5e" stroke-width="0.3" x1="184.98032266829074" x2="189.97916517819016" y1="98.17113171792111" y2="98.06355123074" /><path d="M 185.9800911702706 98.14961562048488 a86.0,86.0 0 0,1 -9.607161424134198,41.387399972396054" fill="none" id="id100" stroke="none" /><text fill="#e1ed5e" style="font-size:6.75px; font-family:Arial;" text-anchor="middle"><textPath startOffset="21.466115282336823" xlink:href="#id100">April</textPath></text><path d="M 120.99980553446 99.90962569577887 l 27.868878720035468 -0.11993589748311112 a48.86913679559435,48.86913679559435 0 0,0 -0.00362027850345496,0.8412252266654721 l -27.86681414424251 -0.35979880738604564" fill="#b4ff20" stroke="none" /><path d="M 120.99824983174949 100.27111621757518 l 18.289438638872376 0.23614174824451992 a39.29096303233763,39.29096303233763 0 0,0 -0.014552507024343403,0.6761978184429015 l -18.282664069163022 -0.5509293824775362" fill="#ffd213" stroke="none" /><path d="M 120.9764740272857 100.99374915477107 l 24.676101159976778 1.1690169967972095 a45.703776415686086,45.703776415686086 0 0,0 -0.043992385694356775,0.7855135989858637 l -24.652322423394892 -1.5936023121184963" fill="#daff1b" stroke="none" /><path d="M 120.92983693683757 101.71520430193887 l 14.671222204363806 1.202309579169999 a35.72040452209047,35.72040452209047 0 0,0 -0.055494886603780255,0.6123814493583987 l -14.64835272148295 -1.454672417076968" fill="#ffa30f" stroke="none" /><path d="M 120.8583938346157 102.4346265915055 l 19.3966116502091 2.2640049316901143 a40.528293879388045,40.528293879388045 0 0,0 -0.08684343130346023,0.6922275935028253 l -19.354766709658794 -2.5975502794803345" fill="#ffe215" stroke="none" /><path d="M 120.81339534386255 102.79330883721812 l 25.318371036962407 3.397909297983365 a46.54536552023906,46.54536552023906 0 0,0 -0.11340656179153308,0.7931652290354513 l -25.25613042415427 -3.8332199989992257" fill="#d0ff1d" stroke="none" /><path d="M 120.64145759157962 103.86396538481128 l 27.485266449432117 5.145088116075878 a48.96268591388288,48.96268591388288 0 0,0 -0.16220654003430182,0.8270876530396973 l -27.39262997642215 -5.617439496183521" fill="#b3ff20" stroke="none" /><path d="M 120.5718875245553 104.21870165774334 l 23.064926345245645 4.7299521199632455 a44.54492035171815,44.54492035171815 0 0,0 -0.16050162944551774,0.7498101790257051 l -22.980090677075683 -5.12627611840512" fill="#e9ff1a" stroke="none" /><path d="M 120.49622156327973 104.57218783832717 l 7.189448376332242 1.603783815912619 a28.36615846178519,28.36615846178519 0 0,0 -0.11041113044717055,0.4756482602386565 l -7.160776679954519 -1.7273007334998403" fill="#ff3a05" stroke="none" /><path d="M 120.41448212921028 104.9243191809786 l 17.70043084021764 4.269643998137547 a39.20810566204403,39.20810566204403 0 0,0 -0.16390609833577274,0.6547233869354367 l -17.624313427586806 -4.57369522447038" fill="#ffd113" stroke="none" /><path d="M 120.32669344350535 105.2749913415812 l 8.563746401522353 2.2223825161273942 a29.8474141124724,29.8474141124724 0 0,0 -0.13333539686260104,0.4961906137108672 l -8.524222928317975 -2.36946406301381" fill="#ff5007" stroke="none" /><path d="M 120.13307415673323 105.97154293290107 l 60.081094433804836 17.820270867435394 a83.66817343877625,83.66817343877625 0 0,0 -0.4214215591969536,1.3772300387438736 l -59.765446102101755 -18.851827878731324" fill="#4dd5ff" stroke="none" /><path d="M 119.79798401119884 107.00284435728193 l 11.10726276585056 3.928805697624877 a32.781629783664904,32.781629783664904 0 0,0 -0.19274933157100443,0.5303633779395036 l -11.03798917327433 -4.119416872570512" fill="#ff7a0b" stroke="none" /><path d="M 119.54520255179757 107.68017299344265 l 11.478684346628928 4.510481857918862 a33.33307102550533,33.33307102550533 0 0,0 -0.21443860734849662,0.5322190374567778 l -11.399343125023039 -4.707400263218453" fill="#ff820b" stroke="none" /><path d="M 119.26925614724726 108.34839909993367 l 27.0052010009068 11.69999474845868 a50.43077909626822,50.43077909626822 0 0,0 -0.35195620383361276,0.7935683259205536 l -26.799803712341916 -12.163111410871922" fill="#a2ff22" stroke="none" /><path d="M 119.12269723197855 108.67885076344098 l 14.127969176562555 6.4119896156089595 a36.514932287463544,36.514932287463544 0 0,0 -0.26469045516794054,0.5701196924634097 l -14.015504104554783 -6.6542293753512" fill="#ffad10" stroke="none" /><path d="M 118.81262510543309 109.33194174019688 l 22.42392437051393 11.123315041864252 a46.031190976361714,46.031190976361714 0 0,0 -0.3582132600323486,0.7067887457446085 l -22.229132440695313 -11.507657999311556" fill="#d6ff1c" stroke="none" /><line stroke="#e1ed5e" stroke-width="0.3" x1="174.80103733775053" x2="179.2010983576182" y1="140.37084112569926" y2="142.7455964860345" /><path d="M 175.68104954172406 140.8457921977663 a86.0,86.0 0 0,1 -30.038265399797805,32.042727171017184" fill="none" id="id101" stroke="none" /><text fill="#e1ed5e" style="font-size:6.75px; font-family:Arial;" text-anchor="middle"><textPath startOffset="22.206326154141568" xlink:href="#id101">May</textPath></text><path d="M 118.48025628344425 109.97397251340804 l 17.879697813471292 9.649845316234336 a41.31755665744038,41.31755665744038 0 0,0 -0.34317888499435406,0.6229693593102221 l -17.710942519025426 -9.956185193942362" fill="#ffed16" stroke="none" /><path d="M 118.30583269289576 110.29060199501025 l 10.789134610728881 6.065099141471375 a33.377029257633055,33.377029257633055 0 0,0 -0.2858472422070919,0.49839876092381424 l -10.68313537236941 -6.249917748253504" fill="#ff820c" stroke="none" /><path d="M 117.94076556474637 110.91462005526583 l 27.907887792388458 16.97831626524671 a53.666702071609336,53.666702071609336 0 0,0 -0.4869240198593413,0.7850765599964411 l -27.61149913286115 -17.456189156608424" fill="#7eff26" stroke="none" /><path d="M 117.75023020441432 111.22182372390056 l 6.781049858240906 4.287028691787666 a29.02254648999678,29.02254648999678 0 0,0 -0.2705939740549918,0.4199678568374035 l -6.706251020808864 -4.403118148546522" fill="#ff4406" stroke="none" /><path d="M 117.55443506779139 111.5257021239791 l 15.237781430609477 10.004658601730862 a39.22863617126126,39.22863617126126 0 0,0 -0.37546828806648447,0.5612741464530885 l -15.063310037132272 -10.265469662389757" fill="#ffd213" stroke="none" /><path d="M 117.35343817320211 111.8261652097733 l 20.28733874426179 13.825584144286239 a45.5504152766336,45.5504152766336 0 0,0 -0.44712958492920113,0.6441235155907722 l -20.04634825217045 -14.17274892206403" fill="#dcff1b" stroke="none" /><path d="M 116.71984013943494 112.70617746262583 l 33.531242299769445 25.48193712679691 a63.11500124539804,63.11500124539804 0 0,0 -0.6647908574645318,0.8593317979823221 l -33.087644625086845 -26.055346918892486" fill="#32ff49" stroke="none" /><path d="M 116.27256486870786 113.27417163493432 l 11.580691273106996 9.446825675651155 a35.945063590000494,35.945063590000494 0 0,0 -0.39523137938152686,0.47608165713753897 l -11.416363893831926 -9.644768589902466" fill="#ffa60f" stroke="none" /><path d="M 115.56566222782051 114.09645910891815 l 11.293339023973541 10.227389585138335 a36.23610855949116,36.23610855949116 0 0,0 -0.4226745215192535,0.4587297138773017 l -11.115618094458565 -10.420270553816971" fill="#ffaa0f" stroke="none" /><path d="M 114.81725581225074 114.88116024355365 l 10.375466396847019 10.420214107758833 a35.704800746818634,35.704800746818634 0 0,0 -0.4392541415882558,0.42990262828586506 l -10.194562302882968 -10.59726683896727" fill="#ffa20f" stroke="none" /><path d="M 114.55890576462653 115.13401014063108 l 14.339545296087936 14.905984517758874 a41.683590929580504,41.683590929580504 0 0,0 -0.521370744338722,0.4929885810933179 l -14.080838717358406 -15.150607735598113" fill="#fff116" stroke="none" /><path d="M 114.29624159901734 115.38237550388516 l 13.041622602284933 14.0324388517673 a40.157068153269634,40.157068153269634 0 0,0 -0.5103780753427388,0.4662182708782241 l -12.798144977475332 -14.254849889232107" fill="#ffde14" stroke="none" /><path d="M 114.0293411484842 115.62618273729858 l 12.522210027062355 13.94750759046518 a39.74403136862358,39.74403136862358 0 0,0 -0.512996363275518,0.4526596455262375 l -12.28027131088025 -14.160990377763707" fill="#ffd814" stroke="none" /><path d="M 112.92097659922987 116.55440617244103 l 13.588870557460627 17.4101145455473 a43.085504103744114,43.085504103744114 0 0,0 -0.5885711117018985,0.4512912304932878 l -13.287170717265235 -17.641445117867963" fill="#fbff18" stroke="none" /><path d="M 112.63410532772338 116.77436683061366 l 12.226105725777657 16.232663653993473 a41.32183629797204,41.32183629797204 0 0,0 -0.5718450799092566,0.4230373192318039 l -11.944875675449836 -16.440710921965046" fill="#ffed16" stroke="none" /><path d="M 112.34349029814194 116.9893568818739 l 13.113679976528331 18.049432030538433 a43.310324945007565,43.310324945007565 0 0,0 -0.6069069073000232,0.43301196398075176 l -12.801045741379424 -18.272488256363403" fill="#f8ff18" stroke="none" /><path d="M 111.7513745106137 117.40417183066458 l 12.704877804299842 18.81634154318883 a43.703934220573416,43.703934220573416 0 0,0 -0.6271000545363369,0.41560772142587427 l -12.379103051023542 -19.032247285706024" fill="#f3ff19" stroke="none" /><path d="M 111.45004920935366 117.60387380957326 l 5.622860061823232 8.644864067166129 a31.312624787832963,31.312624787832963 0 0,0 -0.45435840945376554,0.28999303413749783 l -5.473219850322536 -8.740371530127437" fill="#ff6509" stroke="none" /><path d="M 111.1453310114006 117.79835938074945 l 16.672987422583077 26.625662512338177 a52.41519399613098,52.41519399613098 0 0,0 -0.7688080947805482,0.47226472464266345 l -16.21220012787022 -26.90871570380922" fill="#8cff24" stroke="none" /><line stroke="#e1ed5e" stroke-width="0.3" x1="143.8653032363475" x2="146.44561519142675" y1="172.8068346515853" y2="177.08958963109032" /><path d="M 144.38136562736335 173.6633856474863 a86.0,86.0 0 0,1 -40.68145358897372,12.25698825130547" fill="none" id="id102" stroke="none" /><text fill="#e1ed5e" style="font-size:6.75px; font-family:Arial;" text-anchor="middle"><textPath startOffset="21.466115282336833" xlink:href="#id102">June</textPath></text><path d="M 110.5260780823613 118.17145234162733 l 8.704676820569194 15.027118244477034 a38.366222424121176,38.366222424121176 0 0,0 -0.574308063218954,0.326107106815465 l -8.444719990429041 -15.174728517087127" fill="#ffc612" stroke="none" /><path d="M 110.21172684928248 118.3499491758327 l 10.998431806917564 19.763617618207213 a43.6178266765427,43.6178266765427 0 0,0 -0.6592049134762745,0.3594510788713226 l -10.65660408157264 -19.950009348838307" fill="#f4ff19" stroke="none" /><path d="M 109.89434966115114 118.52300852407294 l 6.700946206738745 12.544703589173057 a35.22224554020278,35.22224554020278 0 0,0 -0.537238365712977,0.28105772148779223 l -6.4840169384992725 -12.658190729605566" fill="#ff9c0e" stroke="none" /><path d="M 109.57404056367764 118.69057910512821 l 4.803823800042291 9.378093621456188 a31.53685736235667,31.53685736235667 0 0,0 -0.48528629621960584,0.24333262330276303 l -4.641683596139924 -9.459394085668253" fill="#ff6809" stroke="none" /><path d="M 108.92500713936063 119.00905698771935 l 10.73531369015208 22.864764871410923 a46.25954141806366,46.25954141806366 0 0,0 -0.7237018979503108,0.3322160460124004 l -10.340143796434349 -23.046167987757396" fill="#d4ff1c" stroke="none" /><path d="M 108.59647513512805 119.15986991738527 l 3.9058800107040663 8.705446330229 a30.541524745370374,30.541524745370374 0 0,0 -0.4815079717914639,0.21107894461846666 l -3.755451364254849 -8.771389828141922" fill="#ff5a08" stroke="none" /><path d="M 108.2653958097858 119.30500536409082 l 9.52080366973843 22.23718865310083 a45.18963128514573,45.18963128514573 0 0,0 -0.717715798494406,0.30000526197913646 l -9.136616411746564 -22.397778958099938" fill="#e1ff1b" stroke="none" /><path d="M 107.93186726928326 119.44442032107085 l 6.832585753277672 16.749608226676315 a39.08959932732165,39.08959932732165 0 0,0 -0.6252082171435898,0.24878325242852117 l -6.543256460092216 -16.864738323510906" fill="#ffd013" stroke="none" /><path d="M 107.59598834532513 119.57807347666477 l 7.706361260813555 19.862551144484794 a42.305138860130484,42.305138860130484 0 0,0 -0.6811727268324685,0.25756123965474537 l -7.3633183132208115 -19.99226063424617" fill="#fff917" stroke="none" /><path d="M 107.2578585660854 119.70592522655815 l 3.1238161471546433 8.481522043566923 a30.03849785621127,30.03849785621127 0 0,0 -0.48673872612068286,0.1745271898524868 l -2.9773578604042257 -8.534036774459368" fill="#ff5307" stroke="none" /><path d="M 106.57524785965236 119.94407469862006 l 8.305028034802504 25.190852578596505 a47.524564921887745,47.524564921887745 0 0,0 -0.7791282517355138,0.24945226214645955 l -7.87017843797605 -25.33007768740267" fill="#c4ff1e" stroke="none" /><path d="M 106.2309692047433 120.05430185196036 l 3.5612372630964684 11.461800675602587 a33.002303344413136,33.002303344413136 0 0,0 -0.5439487185055122,0.16388728680633344 l -3.36341357015071 -11.521403331514646" fill="#ff7d0b" stroke="none" /><path d="M 105.88484417918355 120.15858648285463 l 5.436143409422132 18.621557974240165 a40.39881636996936,40.39881636996936 0 0,0 -0.6692137647894177,0.1891264945251085 l -5.114798476528109 -18.712373262103792" fill="#ffe115" stroke="none" /><path d="M 105.18746579009965 120.34920634021253 l 4.209602856928168 16.51328039781325 a38.04139623710044,38.04139623710044 0 0,0 -0.635919390134099,0.15629351425306773 l -3.924730182050858 -16.583295170380346" fill="#ffc212" stroke="none" /><path d="M 104.83641907484287 120.43548508189849 l 3.7236930671906343 15.733846249999623 a37.16848192865585,37.16848192865585 0 0,0 -0.6238638551193676,0.14198938229883717 l -3.4523090626784048 -15.795612365876146" fill="#ffb610" stroke="none" /><path d="M 104.13013068566511 120.58985236759428 l 5.455693909358233 27.19815441829769 a48.73993871287705,48.73993871287705 0 0,0 -0.8240122241362701,0.1579239039213387 l -4.986714070650259 -27.288035520567497" fill="#b6ff1f" stroke="none" /><path d="M 103.7750983002368 120.6578951692458 l 2.018439879988985 11.045200980229287 a32.22811490156687,32.22811490156687 0 0,0 -0.5465750604623807,0.09502908029968397 l -1.8280158480545545 -11.078308639049979" fill="#ff720a" stroke="none" /><path d="M 103.41894727170886 120.7198165907248 l 2.483545442383706 15.051008971893502 a36.254536015113786,36.254536015113786 0 0,0 -0.616610478386287,0.09630187548896962 l -2.224099100388902 -15.091529154729578" fill="#ffaa0f" stroke="none" /><path d="M 103.06178313531738 120.77559828337769 l 2.471467093266595 16.770034071982533 a37.95117082589149,37.95117082589149 0 0,0 -0.6471061525588678,0.0896830162999681 l -2.182432349520897 -16.810091653775103" fill="#ffc111" stroke="none" /><path d="M 102.34483914955558 120.86867818915974 l 1.6531112966422694 14.712415419637836 a35.80499727926633,35.80499727926633 0 0,0 -0.6130623762023455,0.06354642195419563 l -1.3996163238343213 -14.73869121004779" fill="#ffa40f" stroke="none" /><path d="M 101.62511606390274 120.93702456842531 l 3.738594988632265 48.16582450142494 a69.31070008177375,69.31070008177375 0 0,0 -1.190286644093831,0.08208913589376012 l -2.9089455837595035 -48.22304198183499" fill="#3aff93" stroke="none" /><path d="M 101.26447882468166 120.96189622390904 l 0.5584141355627847 9.257109673289978 a30.27393691212719,30.27393691212719 0 0,0 -0.5204405924464522,0.026900833945200108 l -0.39898547470285295 -9.26535031399738" fill="#ff5608" stroke="none" /><line stroke="#e1ed5e" stroke-width="0.3" x1="102.19456741930631" x2="102.32365962044197" y1="184.97166512339345" y2="189.96999836594603" /><path d="M 102.22038585953345 185.97133177190398 a86.0,86.0 0 0,1 -42.740103519485714,-10.115201625700543" fill="none" id="id103" stroke="none" /><text fill="#e1ed5e" style="font-size:6.75px; font-family:Arial;" text-anchor="middle"><textPath startOffset="22.20632615414155" xlink:href="#id103">July</textPath></text><path d="M 100.54218724476979 120.99299961872073 l 0.37953085617368615 14.69509140210378 a35.69999166622119,35.69999166622119 0 0,0 -0.6144483837461027,0.01057828615604153 l -0.12652278253491556 -14.699447165538981" fill="#ffa20f" stroke="none" /><path d="M 100.18074693466247 120.99922214144158 l 0.10404440858502692 12.087904298526613 a33.088352061769875,33.088352061769875 0 0,0 -0.5695826864949564,0.0 l 0.1040444085850186 -12.087904298526613" fill="#ff7e0b" stroke="none" /><path d="M 99.81925306533755 120.99922214144158 l -0.11532802522770091 13.398837581467545 a34.399333904636826,34.399333904636826 0 0,0 -0.5920621863798855,-0.010192887466827434 l 0.34594990150025434 -13.394867216721558" fill="#ff900d" stroke="none" /><path d="M 99.09653310690486 120.98055641714683 l -1.5741031520982338 36.55425587966507 a57.588132278779604,57.588132278779604 0 0,0 -0.9900001366867491,-0.051171698882186 l 2.203091357198472 -36.521744374020685" fill="#53ff2b" stroke="none" /><path d="M 98.73552117531835 120.96189622390904 l -0.8180747515633428 13.561633228605725 a34.58628507452896,34.58628507452896 0 0,0 -0.5939572554376676,-0.0409627698492968 l 1.0513947677799405 -13.545542114240144" fill="#ff930d" stroke="none" /><path d="M 98.37488393609728 120.93702456842531 l -1.0250626106427942 13.20629433177956 a34.246016885589825,34.246016885589825 0 0,0 -0.5873284560030613,-0.05067717053320106 l 1.2522353843873972 -13.186692908967695" fill="#ff8e0d" stroke="none" /><path d="M 98.01472825383883 120.90594882070398 l -1.5761369935757195 16.597546097065692 a37.67221473790266,37.67221473790266 0 0,0 -0.6450333539725789,-0.06686034452151572 l 1.8616029441538917 -16.56795638408842" fill="#ffbd11" stroke="none" /><path d="M 97.65516085044442 120.86867818915974 l -1.031309803396033 9.178485613598054 a30.236243720777793,30.236243720777793 0 0,0 -0.5167123191105607,-0.06256666591513799 l 1.1891495455579832 -9.159373418957568" fill="#ff5607" stroke="none" /><path d="M 97.2962882734958 120.8252237178851 l -1.8962761220884299 14.605985573926118 a35.72856672310448,35.72856672310448 0 0,0 -0.6092084867341585,-0.084430745140977 l 2.1474132000094195 -14.571180263292534" fill="#ffa30f" stroke="none" /><path d="M 96.58105272829116 120.7198165907248 l -4.2220150408735675 25.58664124891817 a46.93263622168412,46.93263622168412 0 0,0 -0.7959574600895678,-0.1383874070763426 l 4.661821472435185 -25.510175263320818" fill="#cbff1d" stroke="none" /><path d="M 96.22490169976321 120.6578951692458 l -1.7365296551304237 9.502546614937339 a30.6599134267448,30.6599134267448 0 0,0 -0.5183458190915486,-0.09934220990233977 l 1.8998430887936675 -9.471247206686531" fill="#ff5c08" stroke="none" /><path d="M 95.86986931433489 120.58985236759428 l -4.437585410628951 22.12259984667448 a43.563279643099506,43.563279643099506 0 0,0 -0.7339552526603801,-0.15380745930824027 l 4.8177321247187175 -22.042936406639697" fill="#f5ff19" stroke="none" /><path d="M 95.16358092515715 120.4354850818985 l -4.671559947282664 19.738900234775745 a41.28417251995963,41.28417251995963 0 0,0 -0.6901272931060211,-0.16961649793183906 l 5.010640525131896 -19.655562478529873" fill="#ffec16" stroke="none" /><path d="M 94.81253420990036 120.34920634021253 l -5.682943694406093 22.292849444518076 a44.00580329807546,44.00580329807546 0 0,0 -0.7324023249730981,-0.19343411072654015 l 6.06583646219068 -22.191723984487954" fill="#efff19" stroke="none" /><path d="M 93.76903079525671 120.05430185196036 l -9.86768173509025 31.759018796615702 a54.2566747849033,54.2566747849033 0 0,0 -0.8894959530849905,-0.2847885148214271 l 10.412899033266179 -31.58445743513457" fill="#77ff27" stroke="none" /><path d="M 93.42475214034765 119.94407469862007 l -5.723805977903958 17.361476923815967 a39.28066836439203,39.28066836439203 0 0,0 -0.6403315091231709,-0.2172352141183753 l 6.021807219964355 -17.26037872279947" fill="#ffd213" stroke="none" /><path d="M 93.08242187328487 119.8279376855182 l -4.998696980471418 14.327825493550344 a36.174767045203865,36.174767045203865 0 0,0 -0.5861697916313932,-0.21017963235676304 l 5.2445863327325375 -14.239658320153623" fill="#ffa90f" stroke="none" /><path d="M 92.7421414339146 119.70592522655815 l -7.707749559339384 20.927431293732273 a43.30172154393874,43.30172154393874 0 0,0 -0.6972191212548431,-0.2636286129898985 l 8.06683890135451 -20.79165443063574" fill="#f8ff18" stroke="none" /><path d="M 92.40401165467489 119.57807347666478 l -4.353249997608439 11.220165756036446 a33.03506980181714,33.03506980181714 0 0,0 -0.5283706522817356,-0.21024958687041512 l 4.545741725932033 -11.143569324759964" fill="#ff7d0b" stroke="none" /><path d="M 91.7346041902142 119.30500536409082 l -12.235627749370678 28.57804571862857 a52.087220582052595,52.087220582052595 0 0,0 -0.8211905642504419,-0.35998581080126696 l 12.725738988278865 -28.36319535453285" fill="#8fff24" stroke="none" /><path d="M 91.07499286063937 119.00905698771935 l -8.201176201535835 17.467395078463824 a40.29686974397091,40.29686974397091 0 0,0 -0.6253447318478309,-0.30020347342373443 l 8.500633601383909 -17.323637328540524" fill="#ffdf14" stroke="none" /><path d="M 90.7491055286396 118.85261126421891 l -7.987835846724574 16.278594953915416 a39.1327928126877,39.1327928126877 0 0,0 -0.6021718608990564,-0.30194147193755866 l 8.266861615306391 -16.138685641068555" fill="#ffd013" stroke="none" /><path d="M 90.42595943632237 118.69057910512821 l -8.554922885204304 16.701042977695767 a39.76463541118328,39.76463541118328 0 0,0 -0.6065225942818604,-0.31730395530016536 l 8.841136382012659 -16.551309603450886" fill="#ffd914" stroke="none" /><path d="M 90.10565033884886 118.52300852407294 l -6.197520006366491 11.6022497523787 a34.15376195412873,34.15376195412873 0 0,0 -0.516172615862342,-0.2814584658920774 l 6.396315434097474 -11.493850634726858" fill="#ff8d0d" stroke="none" /><line stroke="#e1ed5e" stroke-width="0.3" x1="58.666819895761336" x2="56.23545636021788" y1="174.27360380694188" y2="178.64263932499728" /><path d="M 58.180547188652646 175.14741091055294 a86.0,86.0 0 0,1 -31.652253787137756,-30.449443065178592" fill="none" id="id104" stroke="none" /><text fill="#e1ed5e" style="font-size:6.75px; font-family:Arial;" text-anchor="middle"><textPath startOffset="22.20632615414155" xlink:href="#id104">August</textPath></text><path d="M 89.4739219176387 118.17145234162733 l -14.134661651810218 24.401047432975044 a49.19928679660981,49.19928679660981 0 0,0 -0.729161846361623,-0.4308016713471377 l 14.552591369200222 -24.154127189334158" fill="#b1ff20" stroke="none" /><path d="M 89.1626897886671 117.98757091392108 l -2.079349291885536 3.451266237953564 a25.029259500566205,25.029259500566205 0 0,0 -0.3671205969745841,-0.22551545544059592 l 2.1384490887924286 -3.4149623156845896" fill="#ff0901" stroke="none" /><path d="M 88.54995079064634 117.60387380957326 l -14.146409983881767 21.749392658618902 a46.945269249920216,46.945269249920216 0 0,0 -0.6736093999745627,-0.4464315795052355 l 14.518694082596292 -21.50266305802235" fill="#cbff1d" stroke="none" /><path d="M 88.24862548938628 117.40417183066458 l -9.538593651034647 14.126970659947363 a38.0457052909691,38.0457052909691 0 0,0 -0.5396024471705535,-0.3711434835217107 l 9.78035298282809 -13.960686387060552" fill="#ffc212" stroke="none" /><path d="M 87.95078237400918 117.19931262002967 l -8.690017698490657 12.404318330804582 a36.145412534890404,36.145412534890404 0 0,0 -0.506505101554597,-0.36137794141467255 l 8.90225012789414 -12.252896127545691" fill="#ffa80f" stroke="none" /><path d="M 87.36589467227662 116.77436683061367 l -18.781477664423015 24.936264800063967 a52.217962864961734,52.217962864961734 0 0,0 -0.7133254001214984,-0.5469474990576716 l 19.207931793038 -24.609277959178925" fill="#8eff24" stroke="none" /><path d="M 87.07902340077011 116.55440617244103 l -9.06471250543822 11.61374540840619 a35.73255223026628,35.73255223026628 0 0,0 -0.48161100832678694,-0.38262091250605795 l 9.263281006482364 -11.455990581895001" fill="#ffa30f" stroke="none" /><path d="M 86.79598089348748 116.32954008644616 l -21.3163283242266 26.36211255515543 a54.90201810507612,54.90201810507612 0 0,0 -0.7297520598241459,-0.6005362639679724 l 21.766950512595432 -25.991281172330275" fill="#70ff27" stroke="none" /><path d="M 86.24171649860922 115.8653595955263 l -11.539779793990762 13.307092855467367 a38.61377977487592,38.61377977487592 0 0,0 -0.4984076329124314,-0.4397867871834076 l 11.76712977980978 -13.10648292651167" fill="#ffc912" stroke="none" /><path d="M 85.97065885151581 115.62618273729859 l -7.969091757869496 8.876146266656527 a32.928637641928105,32.928637641928105 0 0,0 -0.4185080105749191,-0.38229714493102984 l 8.120699317911269 -8.73765635513892" fill="#ff7c0b" stroke="none" /><path d="M 85.70375840098266 115.38237550388516 l -7.445245887176267 8.010886439074584 a31.936452251999466,31.936452251999466 0 0,0 -0.3994553134899502,-0.3777099316482897 l 7.582037035057033 -7.881541870680364" fill="#ff6e0a" stroke="none" /><path d="M 85.44109423537348 115.13401014063109 l -21.655898684833357 22.51134773446039 a52.23681681397069,52.23681681397069 0 0,0 -0.6426373386488686,-0.6289558930983368 l 22.04018597585802 -22.135241738439483" fill="#8eff24" stroke="none" /><path d="M 85.18274418774928 114.88116024355367 l -2.435939725538582 2.4464455401658807 a24.45237572223165,24.45237572223165 0 0,0 -0.29571000258691443,-0.29955267139526204 l 2.4776903531810297 -2.404152374789954" fill="#ff0000" stroke="none" /><path d="M 84.9287848128048 114.62390073753433 l -11.525926874800378 11.183836766418597 a37.06004966185167,37.06004966185167 0 0,0 -0.4402971236286892,-0.46164977383997713 l 11.716730549808023 -10.98377987599612" fill="#ffb510" stroke="none" /><path d="M 84.67929136418377 114.36230785411682 l -13.847399264143805 12.98116268235581 a39.980544011339546,39.980544011339546 0 0,0 -0.4663513269458318,-0.5061322598940121 l 14.068796999085366 -12.740879167660456" fill="#ffdb14" stroke="none" /><path d="M 84.43433777217949 114.09645910891817 l -12.729075603287734 11.527610654133909 a38.17309445346169,38.17309445346169 0 0,0 -0.43688406825845805,-0.49084388206459073 l 12.92561852119453 -11.306792602328454" fill="#ffc412" stroke="none" /><path d="M 84.19399662182784 113.82643327865904 l -10.094189141253727 8.829976137829277 a34.41123159944824,34.41123159944824 0 0,0 -0.3861554514906995,-0.44918602987929357 l 10.244687102315204 -8.654913008788453" fill="#ff910d" stroke="none" /><path d="M 83.72743513129214 113.27417163493432 l -25.25568699057737 20.60205791625293 a53.592859889102385,53.592859889102385 0 0,0 -0.5769707458418839,-0.7198597187455191 l 25.606575648474116 -20.164270363929155" fill="#7eff26" stroke="none" /><path d="M 83.50135304334701 112.99209946851258 l -11.390163253334785 8.969349689020978 a35.49776026776408,35.49776026776408 0 0,0 -0.373898217869368,-0.4833138485831422 l 11.542868288422222 -8.771957846324584" fill="#ffa00e" stroke="none" /><path d="M 83.28015986056508 112.70617746262583 l -15.060229234424197 11.444962612357058 a39.91554053659731,39.91554053659731 0 0,0 -0.41101361546737086,-0.5506199048036365 l 15.255004116586653 -11.184029828044112" fill="#ffda14" stroke="none" /><path d="M 83.06392112726016 112.41649034213515 l -14.918838189306648 10.937573666568298 a39.49870943147988,39.49870943147988 0 0,0 -0.39728217176251107,-0.5517901892974465 l 15.104900153444765 -10.679149871819714" fill="#ffd513" stroke="none" /><path d="M 82.6465618267979 111.8261652097733 l -16.30216626959991 11.109735699476534 a40.72781925084231,40.72781925084231 0 0,0 -0.38981739013392275,-0.5827241071321739 l 16.490986765144562 -10.827474678138538" fill="#ffe515" stroke="none" /><path d="M 82.44556493220864 111.52570212397912 l -39.271739296942265 25.784616097251053 a67.97995247645125,67.97995247645125 0 0,0 -0.6338163848927959,-0.9836971045695231 l 39.709760545212106 -25.10479739276008" fill="#38ff83" stroke="none" /><path d="M 82.24976979558568 111.22182372390057 l -26.523729750977175 16.76849349772497 a52.379780338398106,52.379780338398106 0 0,0 -0.47524763432809536,-0.7662505086779763 l 26.80844202497323 -16.30944665768173" fill="#8cff24" stroke="none" /><path d="M 82.05923443525364 110.91462005526583 l -18.335751543675293 11.15491759840066 a42.462338439659824,42.462338439659824 0 0,0 -0.37451605436186186,-0.6277104492336806 l 18.52504847373539 -10.837645055280868" fill="#fffb17" stroke="none" /><line stroke="#e1ed5e" stroke-width="0.3" x1="26.63291911575756" x2="22.317208475507996" y1="142.92168965132927" y2="145.44649492493687" /><path d="M 25.769776987707644 143.4266507060508 a86.0,86.0 0 0,1 -11.730757126820373,-40.83630448921669" fill="none" id="id105" stroke="none" /><text fill="#e1ed5e" style="font-size:6.75px; font-family:Arial;" text-anchor="middle"><textPath startOffset="21.46611528233685" xlink:href="#id105">September</textPath></text><path d="M 81.87401531095188 110.60418214915194 l -18.05772088339923 10.564246010966153 a41.92091243906362,41.92091243906362 0 0,0 -0.35901868674459864,-0.6259793421143803 l 18.236891566296205 -10.251846822993466" fill="#fff417" stroke="none" /><path d="M 81.69416730710424 110.29060199501025 l -19.930528007454097 11.203922526545878 a43.86381041376862,43.86381041376862 0 0,0 -0.3643277765479753,-0.6613607405908453 l 20.12043219345359 -10.85919126755721" fill="#f1ff19" stroke="none" /><path d="M 81.51974371655577 109.97397251340807 l -10.498938573548598 5.666378384933149 a32.93044656215283,32.93044656215283 0 0,0 -0.2649293499861973,-0.5011464889415591 l 10.594920431759682 -5.4848168809054645" fill="#ff7c0b" stroke="none" /><path d="M 81.35079622478065 109.6543875284942 l -12.390263458004917 6.414236577899855 a34.95209874664168,34.95209874664168 0 0,0 -0.27199611766371157,-0.5366741444288796 l 12.498838245454895 -6.20000822176829" fill="#ff980e" stroke="none" /><path d="M 81.02952815118164 109.00673069616217 l -32.01977641843648 15.202231417883512 a56.4453653101438,56.4453653101438 0 0,0 -0.40916273152155214,-0.8813001228719988 l 32.276713766797855 -14.648811227732686" fill="#5fff29" stroke="none" /><path d="M 80.87730276802145 108.67885076344099 l -13.136254331310761 5.9618990746451095 a35.4258593654983,35.4258593654983 0 0,0 -0.24723692957474572,-0.5574540075478439 l 13.236932345616788 -5.73489673060457" fill="#ff9f0e" stroke="none" /><path d="M 80.58989483394504 108.01547362559985 l -21.125168440097525 8.72371525137756 a43.85554526607515,43.85554526607515 0 0,0 -0.28213188170302594,-0.7002281929196886 l 21.27220293605794 -8.358787690615067" fill="#f1ff19" stroke="none" /><path d="M 80.45479744820244 107.68017299344265 l -19.89297427650067 7.816827858024863 a42.37365722864271,42.37365722864271 0 0,0 -0.26091220353368366,-0.6811594317847421 l 20.024580759627863 -7.473244859406962" fill="#fffa17" stroke="none" /><path d="M 80.0844068197444 106.66101706037122 l -39.61225189504968 13.248808774334577 a62.76914452243129,62.76914452243129 0 0,0 -0.3338952304874535,-1.0276238540125768 l 39.834439376553384 -12.564986020344197" fill="#32ff45" stroke="none" /><path d="M 79.97269907076064 106.31721596034903 l -13.415236080389738 4.2315708830818926 a35.066796054224184,35.066796054224184 0 0,0 -0.1766251522154564,-0.5772212169030275 l 13.486088005111325 -4.000022693626818" fill="#ff9a0e" stroke="none" /><path d="M 79.86692584326677 105.97154293290107 l -22.074261929166397 6.547306278014994 a44.02477490043235,44.02477490043235 0 0,0 -0.2092379378330944,-0.7283847110356245 l 22.183692503885595 -6.166364091474773" fill="#efff19" stroke="none" /><path d="M 79.67330655649465 105.27499134158121 l -3.7271724965827255 0.9672405747003281 a24.850632305041515,24.850632305041515 0 0,0 -0.1038859213807788,-0.4149726153690419 l 3.743269732258563 -0.9029401199338943" fill="#ff0601" stroke="none" /><path d="M 79.58551787078972 104.9243191809786 l -20.558253706018697 4.958999322697416 a42.14789516059565,42.14789516059565 0 0,0 -0.16405452845930388,-0.7067426148967656 l 20.64056880040856 -4.604388050452076" fill="#fff717" stroke="none" /><path d="M 79.4281124754447 104.21870165774334 l -30.431280362507195 6.240579176768406 a52.06457231257227,52.06457231257227 0 0,0 -0.17248265644661492,-0.8794853492363256 l 30.534192951929477 -5.7158301004641245" fill="#90ff24" stroke="none" /><path d="M 79.29508885075956 103.50808413554451 l -21.767462405417923 3.6881148141661795 a43.07769486277394,43.07769486277394 0 0,0 -0.11757799503303999,-0.7321582873077127 l 21.827722154812257 -3.312877297165253" fill="#fbff18" stroke="none" /><path d="M 79.23777060512086 103.15116336523772 l -18.877103331672487 2.865050536203247 a40.09328533201238,40.09328533201238 0 0,0 -0.09768623770831832,-0.6832173190115437 l 18.923623620397404 -2.5396877452113027" fill="#ffdd14" stroke="none" /><path d="M 79.18660465613746 102.79330883721812 l -21.769016419268365 2.9215601268737585 a42.96418879533943,42.96418879533943 0 0,0 -0.09206303105827394,-0.7338329391586716 l 21.816080959573487 -2.5464094334276783" fill="#fcff18" stroke="none" /><path d="M 79.1416061653843 102.43462659150553 l -14.059995533351671 1.6411061788055297 a35.15544785190432,35.15544785190432 0 0,0 -0.06498350358622453,-0.6016665363696262 l 14.086161338438949 -1.3988433205511215" fill="#ff9b0e" stroke="none" /><path d="M 79.07016306316243 101.71520430193888 l -10.64922471958157 0.872706084928536 a31.684924100751417,31.684924100751417 0 0,0 -0.03986784443815201,-0.5439650622086717 l 10.662669122684058 -0.6892678862231036" fill="#ff6a09" stroke="none" /><path d="M 79.0235259727143 100.99374915477108 l -21.44042459435926 1.0157285629063633 a42.464470906591416,42.464470906591416 0 0,0 -0.028305334394976796,-0.7304349088082377 l 21.454732061605437 -0.6465164070841289" fill="#fffb17" stroke="none" /><line stroke="#e1ed5e" stroke-width="0.3" x1="15.007084014347285" x2="10.007500721073583" y1="101.09737516637583" y2="101.16192664675087" /><path d="M 14.007167355692545 101.11028546245083 a86.0,86.0 0 0,1 10.666146001902534,-42.60595125391555" fill="none" id="id106" stroke="none" /><text fill="#e1ed5e" style="font-size:6.75px; font-family:Arial;" text-anchor="middle"><textPath startOffset="22.20632615414155" xlink:href="#id106">October</textPath></text><path d="M 79.00175016825051 100.2711162175752 l -21.53190054806531 0.2780063805589347 a42.53369519519134,42.53369519519134 0 0,0 -0.003150942138219611,-0.7321679842874068 l 21.533495787493035 0.0926710819321475" fill="#fffc17" stroke="none" /><path d="M 79.00019446554 99.90962569577889 l -8.3910031921581 -0.03611133798187278 a29.391080895780846,29.391080895780846 0 0,0 0.006531807873488364,-0.5058957181064914 l 8.389138377166896 0.18054331414883615" fill="#ff4906" stroke="none" /><path d="M 79.01574976396665 99.18683210126434 l -32.543021546918574 -1.261085821611855 a53.56744676594524,53.56744676594524 0 0,0 0.043635510967116986,-0.9210766701783828 l 32.516492427717964 1.821073598413247" fill="#7fff26" stroke="none" /><path d="M 79.03285615573316 98.82574320788736 l -14.781774959096255 -0.8278475968936304 a35.80493845259235,35.80493845259235 0 0,0 0.039759523992276884,-0.6150622381786421 l 14.765334844099565 1.0821688993252845" fill="#ffa40f" stroke="none" /><path d="M 79.08570108090925 98.10471618934814 l -14.773593043014568 -1.3388042232687791 a35.83413118955238,35.83413118955238 0 0,0 0.060957055465281386,-0.6138292297537882 l 14.748358861867057 1.5929089837269976" fill="#ffa40f" stroke="none" /><path d="M 79.21141760316559 97.0276538004421 l -15.312308226223022 -2.1893499178473945 a36.46803272163709,36.46803272163709 0 0,0 0.09419885014340455,-0.6206527268584441 l 15.272353482640314 2.4526017570979306" fill="#ffad10" stroke="none" /><path d="M 79.32604984820605 96.31383870115002 l -37.311670057304845 -6.65266352829831 a58.900114175104136,58.900114175104136 0 0,0 0.18655706933254998,-0.9965953241129513 l 37.19162726406243 7.293936929873834" fill="#45ff2d" stroke="none" /><path d="M 79.3925641242962 95.95851677861259 l -11.699616828488832 -2.294502110509881 a32.92249025449773,32.92249025449773 0 0,0 0.11385021059587404,-0.5551740599447993 l 11.658387321977964 2.4955518266180827" fill="#ff7c0b" stroke="none" /><path d="M 79.54389044137918 95.25157060432595 l -22.036562204732885 -5.115296212737346 a43.62247398378672,43.62247398378672 0 0,0 0.17608356977624096,-0.7299800756884 l 21.945245834695832 5.493861520085143" fill="#f4ff19" stroke="none" /><path d="M 79.62865764111835 94.90015583598534 l -14.292615908830037 -3.5780712211814882 a35.7336846437403,35.7336846437403 0 0,0 0.1545118876876804,-0.5953973326264003 l 14.228907689272049 3.823564979356752" fill="#ffa30f" stroke="none" /><path d="M 80.2630227832202 92.82701384747504 l -16.10731249087858 -5.85386141872007 a38.13806316910964,38.13806316910964 0 0,0 0.22954648514335876,-0.6150704568519461 l 16.004161417233593 6.130255012601357" fill="#ffc312" stroke="none" /><path d="M 80.65960295795068 91.81776055985345 l -20.357790621640213 -8.612662758498352 a43.1046963061284,43.1046963061284 0 0,0 0.29497834802859685,-0.6808506970036974 l 20.206521563768934 8.961812600088649" fill="#fbff18" stroke="none" /><path d="M 80.803312248108 91.48605970444005 l -13.470637950082033 -5.974374784462431 a35.73605241736778,35.73605241736778 0 0,0 0.2542325443824268,-0.5601677117458848 l 13.365803088736254 6.205364505050387" fill="#ffa30f" stroke="none" /><path d="M 80.95270993114464 91.15688171328213 l -17.427934866647576 -8.091297447660533 a40.21463005375404,40.21463005375404 0 0,0 0.2969023275009432,-0.6253520212506464 l 17.286074345304883 8.390091884551712" fill="#ffde14" stroke="none" /><path d="M 81.10775173730289 90.83032412892265 l -7.54654682275151 -3.662845594040525 a29.38849252212595,29.38849252212595 0 0,0 0.22480795514633514,-0.453199119607641 l 7.482378854651762 3.7922043021471277" fill="#ff4906" stroke="none" /><path d="M 81.26839172434947 90.50648371742162 l -9.332224054820625 -4.72973915071008 a31.4623533797675,31.4623533797675 0 0,0 0.24898792106192205,-0.4809654122280997 l 9.249426700598589 4.889677285198515" fill="#ff6709" stroke="none" /><path d="M 81.43458229118936 90.18545643968196 l -18.07775473689909 -9.556742224757 a41.448387180360484,41.448387180360484 0 0,0 0.3388739228249913,-0.6278819129652963 l 17.91057271485563 9.86650512105477" fill="#ffee16" stroke="none" /><line stroke="#e1ed5e" stroke-width="0.3" x1="26.266209847984243" x2="21.928928074336255" y1="57.711370442889674" y2="55.22380399835377" /><path d="M 25.398753493254645 57.213857153982495 a86.0,86.0 0 0,1 29.58750427330803,-30.492523968695096" fill="none" id="id107" stroke="none" /><text fill="#e1ed5e" style="font-size:6.75px; font-family:Arial;" text-anchor="middle"><textPath startOffset="21.46611528233685" xlink:href="#id107">November</textPath></text><path d="M 81.78341655067845 89.55222093294921 l -21.3554422005707 -12.248012510767781 a45.61846303175403,45.61846303175403 0 0,0 0.3965337662847537,-0.6778047448895312 l 21.14144875981562 12.613796668011204" fill="#dbff1b" stroke="none" /><path d="M 82.54541684631803 88.32363383020206 l -13.458471938417377 -9.003139465164613 a37.192189078267724,37.192189078267724 0 0,0 0.36054379831226624,-0.5290535352552661 l 13.30150367443637 9.233471023690296" fill="#ffb610" stroke="none" /><path d="M 82.7489923806493 88.02491185347247 l -16.365775018006403 -11.360588479888518 a40.92238847501419,40.92238847501419 0 0,0 0.4066660020104132,-0.5752002200453389 l 16.16779639619211 11.640615200265644" fill="#ffe815" stroke="none" /><path d="M 83.17141714833178 87.43820079747576 l -26.928209057941586 -20.100727319170794 a54.60309036127282,54.60309036127282 0 0,0 0.5687147428632106,-0.7483619376151569 l 26.578218374854266 20.56127403266698" fill="#73ff27" stroke="none" /><path d="M 83.39014120810768 87.1503855733568 l -9.406626315096634 -7.2770950505315355 a32.89288573081988,32.89288573081988 0 0,0 0.3503028414850792,-0.44484903487552907 l 9.279969393017584 7.437936479360112" fill="#ff7b0b" stroke="none" /><path d="M 83.6137871275137 86.86637796730984 l -10.114115822055101 -8.10650852856691 a33.9618987569597,33.9618987569597 0 0,0 0.3695402418054372,-0.45301264152342885 l 9.973077088173271 8.27940533969842" fill="#ff8a0c" stroke="none" /><path d="M 84.07557802195018 86.31012108654704 l -8.564886301631104 -7.3630463032468 a32.294765523180395,32.294765523180395 0 0,0 0.36601985516012736,-0.4184239673776622 l 8.436874582893132 7.509385826827406" fill="#ff730a" stroke="none" /><path d="M 85.05521093208273 85.24692304244772 l -44.83436720375183 -44.259230872656865 a84.0,84.0 0 0,0 1.0246567993307472,-1.0202565973995625 l 44.06587460425377 45.02442332070654" fill="#4dd2ff" stroke="none" /><path d="M 85.57189188830299 84.74124197986013 l -11.247422641730905 -11.894955257597404 a37.37053684709103,37.37053684709103 0 0,0 0.4712106445458828,-0.4379389397141669 l 11.041004113390168 12.086798783386218" fill="#ffb911" stroke="none" /><path d="M 86.93701828274178 83.55741782278169 l -10.839167688187178 -13.643432204318685 a38.42500497809057,38.42500497809057 0 0,0 0.5214226422187057,-0.4069786429206013 l 10.602712490809047 13.827989236462507" fill="#ffc712" stroke="none" /><path d="M 87.22198572758235 83.33499621200491 l -7.275266770895705 -9.4883559926336 a32.956521485392194,32.956521485392194 0 0,0 0.4531582065548217,-0.3413093662222229 l 7.110862410582493 9.612181948361677" fill="#ff7c0b" stroke="none" /><path d="M 87.51073957382395 83.11751280151077 l -12.049649360747724 -16.288238385416786 a41.260818330391615,41.260818330391615 0 0,0 0.574615217704703,-0.417482392901527 l 11.767488826689238 16.49324001313498" fill="#ffec16" stroke="none" /><path d="M 88.09926311788651 82.69761687909137 l -11.224845015283995 -16.31970951472491 a40.80732350071934,40.80732350071934 0 0,0 0.5821753597452006,-0.3930874016747736 l 10.942264961132254 16.51050882869835" fill="#ffe615" stroke="none" /><path d="M 88.70189139769569 82.29822771554957 l -17.586145451934808 -27.553810386269507 a53.68768848754988,53.68768848754988 0 0,0 0.7832799764757401,-0.4904898494108675 l 17.109246323086825 27.852444577003304" fill="#7dff26" stroke="none" /><line stroke="#e1ed5e" stroke-width="0.3" x1="56.762969772571076" x2="54.21961505331055" y1="26.818313649435495" y2="22.513508569990535" /><path d="M 56.25429882871897 25.957352633546506 a86.0,86.0 0 0,1 42.265352541879196,-11.944610805530505" fill="none" id="id108" stroke="none" /><text fill="#e1ed5e" style="font-size:6.75px; font-family:Arial;" text-anchor="middle"><textPath startOffset="22.20632615414155" xlink:href="#id108">December</textPath></text><path d="M 89.3179101791058 81.91981866633112 l -10.832457498879261 -18.33468910605016 a42.29560893894654,42.29560893894654 0 0,0 0.6300097465938805,-0.36494230954254625 l 10.515251019820061 18.518435572982753" fill="#fff917" stroke="none" /><path d="M 89.63071344664047 81.73862282372117 l -8.52432871425196 -15.012217188183026 a38.26356987803503,38.26356987803503 0 0,0 0.5755495233609406,-0.32029268661611826 l 8.264655101818974 15.15672527235933" fill="#ffc512" stroke="none" /><path d="M 89.94658935756843 81.56283822128135 l -9.816807261733109 -18.003249849475676 a41.505772600822965,41.505772600822965 0 0,0 0.6302057710210546,-0.3366340974714744 l 9.50545644418375 18.169562673448898" fill="#ffef16" stroke="none" /><path d="M 91.56875222667455 80.76684994638697 l -8.27792627188617 -18.88339690640314 a41.61811684144648,41.61811684144648 0 0,0 0.6585893426949229,-0.28197358616671064 l 7.951653171400938 19.023090020532635" fill="#fff016" stroke="none" /><path d="M 92.23578459929587 80.48803036053334 l -6.818541772665665 -17.13543135879795 a39.44222111779551,39.44222111779551 0 0,0 0.6329853584048748,-0.24558848504352054 l 6.522573249261114 17.25026254773202" fill="#ffd413" stroke="none" /><path d="M 92.91201910852362 80.23233633223022 l -4.20800876499277 -11.735711939832555 a33.467328202184476,33.467328202184476 0 0,0 0.5439524472059951,-0.18977432804389374 l 4.00537431372349 11.80640712104866" fill="#ff830c" stroke="none" /><path d="M 93.59665428221793 80.00007090966166 l -9.552764392700778 -29.836685209759384 a52.32863054537696,52.32863054537696 0 0,0 0.8602194614419183,-0.2672743740037763 l 9.037759558548132 29.996699718645683" fill="#8dff24" stroke="none" /><path d="M 93.94186890950719 79.89281104454417 l -4.0499965200194 -13.4421068280885 a35.038971037434074,35.038971037434074 0 0,0 0.5789936052807307,-0.1690241104314945 l 3.818012697015248 13.509829267438693" fill="#ff990e" stroke="none" /><path d="M 94.28887869178378 79.79150937346287 l -4.5402241918028405 -16.065335171646296 a37.69456887401311,37.69456887401311 0 0,0 0.6259131300557209,-0.17108570244969634 l 4.263013172523397 16.14110741492229" fill="#ffbd11" stroke="none" /><path d="M 94.63758080256005 79.69619591428918 l -3.753225641013838 -14.210891632827211 a35.69816803932797,35.69816803932797 0 0,0 0.5954643311621823,-0.15179711657963976 l 3.5080524211666564 14.273391745575713" fill="#ffa20f" stroke="none" /><path d="M 94.98787191387505 79.60689891045804 l -2.231920262434717 -9.081127767191209 a30.351382228415105,30.351382228415105 0 0,0 0.508423682662035,-0.12032745917573706 l 2.0752728928101485 9.118201138507818" fill="#ff5708" stroke="none" /><path d="M 95.692805502759 79.44645832069477 l -6.469190922482457 -30.87039262837967 a52.54095071842076,52.54095071842076 0 0,0 0.8867751339590527,-0.17787874952485488 l 5.936849379056268 30.977175333981734" fill="#8aff24" stroke="none" /><path d="M 96.40284397218896 79.31037775812273 l -4.784523652674513 -27.51895837039923 a48.93178720337758,48.93178720337758 0 0,0 0.8310733041367523,-0.1371342160934147 l 4.3101211423988754 27.59723884943227" fill="#b4ff20" stroke="none" /><path d="M 96.75951476605007 79.25152402106235 l -1.628129051335374 -10.424733974505935 a31.551108124127083,31.551108124127083 0 0,0 0.5373169031922624,-0.07918654423691243 l 1.4484431677144625 10.451215002903817" fill="#ff6909" stroke="none" /><path d="M 97.47563105711357 79.15227682838746 l -1.5523365345541973 -12.82010794529977 a33.913749124311266,33.913749124311266 0 0,0 0.5801403759176548,-0.06518553084000712 l 1.3314294551268246 12.844929429610374" fill="#ff8a0c" stroke="none" /><path d="M 97.83486435360386 79.11191278185805 l -1.1149543535195925 -10.756491778854206 a31.814122183468726,31.814122183468726 0 0,0 0.5451953894053095,-0.051772871540359956 l 0.9296338370240467 10.774090194909746" fill="#ff6c0a" stroke="none" /><path d="M 98.19473922651362 79.07773832637324 l -1.8452660410945374 -21.385906976019765 a42.46536801336953,42.46536801336953 0 0,0 0.7288064402074906,-0.05656940648783222 l 1.4768694115247127 21.41450164469606" fill="#fffb17" stroke="none" /></svg>