<?xml version="1.0" encoding="utf-8" ?>
<svg baseProfile="full" height="200mm" version="1.1" viewBox="0,0,200,200" width="200mm" xmlns="http://www.w3.org/2000/svg" xmlns:ev="http://www.w3.org/2001/xml-events" xmlns:xlink="http://www.w3.org/1999/xlink"><defs /><rect fill="#1a1a1a" height="200" width="200" x="0" y="0" /><rect fill="#1a1a1a" height="200" width="180" x="10" y="0" /><text alignment-baseline="middle" fill="#e1ed5e" style="dominant-baseline: central; font-size:9.0px; font-family:Arial;" text-anchor="middle" x="100.0" y="100.0">2020</text><line stroke="#e1ed5e" stroke-width="0.3" x1="100.0" x2="100.0" y1="15.0" y2="10.0" /><path d="M 100.0 14.0 a86.0,86.0 0 0,1 42.35913384403234,11.155469271406648" fill="none" id="id37" stroke="none" /><text fill="#e1ed5e" style="font-size:6.75px; font-family:Arial;" text-anchor="middle"><textPath startOffset="22.145653131862478" xlink:href="#id37">January</textPath></text><line stroke="#e1ed5e" stroke-width="0.3" x1="143.13028292997686" x2="145.6673583964461" y1="26.7553504044142" y2="22.446841604673864" /><path d="M 143.63769802327073 25.89364864446614 a86.0,86.0 0 0,1 29.32050498858742,28.57503671076993" fill="none" id="id38" stroke="none" /><text fill="#e1ed5e" style="font-size:6.75px; font-family:Arial;" text-anchor="middle"><textPath startOffset="20.669276256404974" xlink:href="#id38">February</textPath></text><line stroke="#e1ed5e" stroke-width="0.3" x1="172.87174338648825" x2="177.1583165268699" y1="56.24261187166439" y2="53.66864786411523" /><path d="M 173.72905801456457 55.72781907015455 a86.0,86.0 0 0,1 12.242430191666344,42.057860355516425" fill="none" id="id39" stroke="none" /><text fill="#e1ed5e" style="font-size:6.75px; font-family:Arial;" text-anchor="middle"><textPath startOffset="22.145653131862474" xlink:href="#id39">March</textPath></text><line stroke="#e1ed5e" stroke-width="0.3" x1="184.99686870605535" x2="189.99668451229388" y1="99.2704041080226" y2="99.22748670261217" /><path d="M 185.99683186730306 99.26182062694052 a86.0,86.0 0 0,1 -10.086455211305974,41.156179273409016" fill="none" id="id40" stroke="none" /><text fill="#e1ed5e" style="font-size:6.75px; font-family:Arial;" text-anchor="middle"><textPath startOffset="21.40746469413373" xlink:href="#id40">April</textPath></text><line stroke="#e1ed5e" stroke-width="0.3" x1="174.33088141563837" x2="178.70328620479359" y1="141.23008692659167" y2="143.65538615756765" /><path d="M 175.20536237346943 141.71514677278685 a86.0,86.0 0 0,1 -30.301960400862466,31.631185727798858" fill="none" id="id41" stroke="none" /><text fill="#e1ed5e" style="font-size:6.75px; font-family:Arial;" text-anchor="middle"><textPath startOffset="22.145653131862474" xlink:href="#id41">May</textPath></text><path d="M 115.89218393027572 113.72728997021213 l 14.940276468682999 12.905054976744795 a40.74214539794215,40.74214539794215 0 0,0 -0.46172284930004115,0.525355845209041 l -14.716542555424372 -13.15962309976513" fill="red" stroke="none" /><path d="M 115.6541949942343 113.99807769240083 l 14.704666856086789 13.149003776188266 a40.726214225104385,40.726214225104385 0 0,0 -0.4704892003341173,0.5171500487439986 l -14.476779954910791 -13.399491400489936" fill="red" stroke="none" /><path d="M 114.65682725009322 115.03919595460226 l 13.789677143615293 14.149423553601032 a40.75756519979994,40.75756519979994 0 0,0 -0.5052531252688754,0.48402106471950135 l -13.544751532481106 -14.384056748626113" fill="red" stroke="none" /><path d="M 113.59037401385872 116.0094264158162 l 12.779012960528716 15.053645135131793 a40.746275702011204,40.746275702011204 0 0,0 -0.5371245191253452,0.4480883773498712 l -12.518714107241477 -15.270795696393535" fill="red" stroke="none" /><path d="M 112.7482090630111 116.68781488649013 l 11.985406918046184 15.689282392453235 a40.74344349350671,40.74344349350671 0 0,0 -0.5594404834683688,0.41981456836850595 l -11.714313445667049 -15.892715988085756" fill="red" stroke="none" /><path d="M 112.45986205192187 116.90419585922612 l 11.729530628589607 15.913361019264807 a40.769090714964065,40.769090714964065 0 0,0 -0.5669213656455169,0.41040734899830716 l -11.454628252570124 -16.11236913963619" fill="red" stroke="none" /><path d="M 111.8722381534696 117.32195027204791 l 17.61678343342835 25.70341351332334 a52.16113805330621,52.16113805330621 0 0,0 -0.7429328575632637,0.49987838260854167 l -17.172954287768082 -26.002041569989004" fill="red" stroke="none" /><path d="M 110.96478420261333 117.91015095944535 l 12.357227731336028 20.184602817420128 a44.666838996813766,44.666838996813766 0 0,0 -0.657383657239906,0.39473999800593695 l -12.008911317538686 -20.39375681596199" fill="red" stroke="none" /><line stroke="#e1ed5e" stroke-width="0.3" x1="143.1302829299769" x2="145.66735839644613" y1="173.24464959558577" y2="177.55315839532614" /><path d="M 143.63769802327073 174.10635135553383 a86.0,86.0 0 0,1 -40.68552437913181,11.842963189579606" fill="none" id="id42" stroke="none" /><text fill="#e1ed5e" style="font-size:6.75px; font-family:Arial;" text-anchor="middle"><textPath startOffset="21.407464694133747" xlink:href="#id42">June</textPath></text><path d="M 110.65571695917076 118.09573695890943 l 10.00832096215525 16.996317021693365 a40.724129404955235,40.724129404955235 0 0,0 -0.6054466638121357,0.34955479433189873 l -9.715081830482713 -17.165618713301434" fill="red" stroke="none" /><path d="M 110.02825361518725 118.45085714620011 l 15.073233900127796 27.73305264251891 a52.564609756508744,52.564609756508744 0 0,0 -0.7965069865874438,0.4240951069233805 l -14.594938097753799 -27.98771821716486" fill="red" stroke="none" /><path d="M 109.71004243097381 118.62028667847754 l 9.132124126324525 17.51205212792778 a40.750130652475654,40.750130652475654 0 0,0 -0.6230360792440414,0.3181266613698286 l -8.830160825366901 -17.666236740970447" fill="red" stroke="none" /><path d="M 108.4095320186766 119.2426549942271 l 9.477840414666222 21.68715367094415 a44.66774373008603,44.66774373008603 0 0,0 -0.7052503377224961,0.30102943239639957 l -9.104155001773295 -21.84665775299995" fill="red" stroke="none" /><path d="M 107.74402155503746 119.51999308798841 l 11.737278587031222 29.5856093971752 a52.82879187201115,52.82879187201115 0 0,0 -0.8458335793488826,0.3271865990669497 l -11.22767274518881 -29.78273588438019" fill="red" stroke="none" /><path d="M 107.06938296918513 119.77432235084164 l 6.641069140742982 18.576252342772147 a40.72766966558586,40.72766966558586 0 0,0 -0.660358878056621,0.22970709681050763 l -6.321204490641339 -18.687517872151243" fill="red" stroke="none" /><path d="M 106.72888874123015 119.89276391827305 l 10.102792596466236 29.867111162851355 a52.52952184003641,52.52952184003641 0 0,0 -0.8566746110690107,0.2816059603782765 l -9.58859524774949 -30.03613804463165" fill="red" stroke="none" /><path d="M 106.0420521117495 120.11202640906438 l 11.331183398363065 37.71782426547832 a60.38311801430714,60.38311801430714 0 0,0 -0.9952862724682024,0.28971332845793557 l -10.682037113513255 -37.906781288238776" fill="red" stroke="none" /><path d="M 104.29559338865022 120.5559693870025 l 6.4506357823949845 30.868627375199555 a52.535422274420775,52.535422274420775 0 0,0 -0.8843550670534714,0.17689578121883995 l -5.919784229810554 -30.974812553081257" fill="red" stroke="none" /><path d="M 103.58742460773223 120.69131181640829 l 5.390991495275387 31.093806344507882 a52.55768658016443,52.55768658016443 0 0,0 -0.8902834049547679,0.14649579549273395 l -4.856430587267546 -31.181768138496288" fill="red" stroke="none" /><path d="M 103.2317021107853 120.74984581791261 l 3.049316962467396 19.578802331434186 a40.81483874955747,40.81483874955747 0 0,0 -0.6932203952684646,0.1018795257490946 l -2.712771461591246 -19.628262930482162" fill="red" stroke="none" /><path d="M 101.44090949804482 120.95050786540614 l 2.7022380328532503 39.2899479379591 a60.382763988244086,60.382763988244086 0 0,0 -1.0347180311915252,0.06224606732494823 l -2.02737564952926 -39.33054598310874" fill="red" stroke="none" /><path d="M 100.72087961077811 120.9876233191556 l 1.0875437086599062 31.662648463360714 a52.681320348631374,52.681320348631374 0 0,0 -0.9040784024200356,0.023285852659467473 l -0.5438519921691268 -31.676652033370225" fill="red" stroke="none" /><line stroke="#e1ed5e" stroke-width="0.3" x1="101.45913802915013" x2="101.54496967792366" y1="184.9874750549273" y2="189.98673829345242" /><path d="M 101.47630435890484 185.9873277026323 a86.0,86.0 0 0,1 -42.54439059252881,-10.42667462771756" fill="none" id="id43" stroke="none" /><text fill="#e1ed5e" style="font-size:6.75px; font-family:Arial;" text-anchor="middle"><textPath startOffset="22.145653131862474" xlink:href="#id43">July</textPath></text><path d="M 100.36049292484886 120.99690560180557 l 0.3387165076048808 19.728538469748926 a40.73144594359185,40.73144594359185 0 0,0 -0.6992094324537307,0.006001872037360657 l -2.4164052117368787e-15 -19.73144594359185" fill="red" stroke="none" /><path d="M 98.55909050195518 120.95050786540614 l -2.605361208423357 37.88138017228872 a58.97086871252522,58.97086871252522 0 0,0 -1.0093313628724054,-0.07812863094399891 l 3.2552615660709985 -37.83107377434967" fill="red" stroke="none" /><path d="M 97.84075906011543 120.88869738790638 l -3.2563320176836688 31.502058364816406 a52.66991284215495,52.66991284215495 0 0,0 -0.8985589922456727,-0.10068540929583046 l 3.7966269115301405 -31.441517195013603" fill="red" stroke="none" /><path d="M 96.76829788921471 120.74984581791261 l -7.273147305136082 46.698823102810124 a68.26181070282603,68.26181070282603 0 0,0 -1.156298178539447,-0.19026842525560095 l 8.073722986728592 -46.56708867905885" fill="red" stroke="none" /><path d="M 96.05791012581884 120.62667999033965 l -5.91745084140604 30.96260327895279 a52.52299202598439,52.52299202598439 0 0,0 -0.8841458224578544,-0.1768539264394796 l 6.448093149394852 -30.85645995585045" fill="red" stroke="none" /><path d="M 95.35216902796893 120.47920084513623 l -6.984261479845055 30.773944762924778 a52.55654582951678,52.55654582951678 0 0,0 -0.8781143829558776,-0.20723260339608426 l 7.51150801654082 -30.649516015882465" fill="red" stroke="none" /><path d="M 93.95794788825049 120.11202640906438 l -12.460598589145112 41.477280113208444 a64.30855900153412,64.30855900153412 0 0,0 -1.0545359370812142,-0.326697928929576 l 13.17077515909796 -41.25726559647222" fill="red" stroke="none" /><path d="M 93.61358852112213 120.00534299687104 l -6.016176924698228 18.845588529099278 a40.78258304158963,40.78258304158963 0 0,0 -0.6651003519874846,-0.21863169626989057 l 6.338800014333456 -18.739535911427367" fill="red" stroke="none" /><path d="M 92.93061703081489 119.77432235084164 l -13.277212242092507 37.138725676640234 a60.4407062538985,60.4407062538985 0 0,0 -0.9739900322859998,-0.35766263102311147 l 13.912791426032625 -36.905332196608406" fill="red" stroke="none" /><path d="M 92.59220618246901 119.65005319985036 l -11.130693821932427 29.525487768653466 a52.55387096592921,52.55387096592921 0 0,0 -0.8414318634324492,-0.3254839207908445 l 11.635897947858405 -29.33006395972458" fill="red" stroke="none" /><path d="M 90.93487009805054 118.94263497670748 l -13.61563462679971 28.451439692686666 a52.541558726180504,52.541558726180504 0 0,0 -0.8102402514889827,-0.3963291086600419 l 14.102035127550764 -28.2135168339294" fill="red" stroke="none" /><path d="M 90.28995756902619 118.62028667847754 l -18.224179201690966 34.94726656734101 a60.41360359195967,60.41360359195967 0 0,0 -0.9154421115047003,-0.48742136189426677 l 18.821410128982226 -34.629274737724174" fill="red" stroke="none" /><line stroke="#e1ed5e" stroke-width="0.3" x1="58.13341422392154" x2="55.67067388415222" y1="173.97424548756322" y2="178.32567169271397" /><path d="M 57.64086615596768 174.84453072859336 a86.0,86.0 0 0,1 -31.369924170532247,-30.572349798747897" fill="none" id="id44" stroke="none" /><text fill="#e1ed5e" style="font-size:6.75px; font-family:Arial;" text-anchor="middle"><textPath startOffset="22.145653131862474" xlink:href="#id44">August</textPath></text><path d="M 88.72937992617639 117.7192867562869 l -21.14620643301809 33.245348804235675 a60.40070130877254,60.40070130877254 0 0,0 -0.8700990460788826,-0.5639876894298927 l 21.713791111353984 -32.87744727310189" fill="red" stroke="none" /><path d="M 88.4268655584334 117.5232005979908 l -19.556717484284587 29.611362871972613 a56.48658915556355,56.48658915556355 0 0,0 -0.8045404042461183,-0.5413306894742214 l 20.062154176627708 -29.27128250844127" fill="red" stroke="none" /><path d="M 87.54013794807813 116.9041958592261 l -15.42501883348492 20.927000508264978 a46.99751057863593,46.99751057863593 0 0,0 -0.6453138906659196,-0.48425557405595204 l 15.781985713061607 -20.65912590694501" fill="red" stroke="none" /><path d="M 86.96720088162412 116.46651593811092 l -36.66594214850009 46.326220122801146 a80.08053811961585,80.08053811961585 0 0,0 -1.0705975898389637,-0.8623976347472833 l 37.45579050869432 -45.68997419426046" fill="red" stroke="none" /><path d="M 86.13680546590413 115.77377054828092 l -17.295059620639393 19.678603037982718 a47.19859738245492,47.19859738245492 0 0,0 -0.6039958953118352,-0.5400968540113528 l 17.630320542774598 -19.37881065408798" fill="red" stroke="none" /><path d="M 84.83555147118756 114.52719865689866 l -25.62073969921726 24.544089067271003 a56.48005934151153,56.48005934151153 0 0,0 -0.6647008179278487,-0.7058892341438893 l 26.03829635088136 -24.100658373182622" fill="red" stroke="none" /><path d="M 84.3458050057657 113.99807769240083 l -23.598715301221496 21.102116739252004 a52.65752192994779,52.65752192994779 0 0,0 -0.5967575056516836,-0.6790004961672416 l 23.957483870831773 -20.693903965273464" fill="red" stroke="none" /><path d="M 83.64595745247003 113.17365903436017 l -30.704584000775576 24.733439407565953 a60.427331935960616,60.427331935960616 0 0,0 -0.6437915552780772,-0.8134095990830267 l 31.124641986695217 -24.202709864568245" fill="red" stroke="none" /><path d="M 82.18462484594161 111.11811171558189 l -26.75414775907437 16.696566929875335 a52.536641697526875,52.536641697526875 0 0,0 -0.4709085241620261,-0.7691936840691648 l 27.0368242476918 -16.23483612968161" fill="red" stroke="none" /><path d="M 81.99639281039703 110.81064883170644 l -33.79026358688567 20.290082410794604 a60.41407562671042,60.41407562671042 0 0,0 -0.5262534623968393,-0.893693429145818 l 34.133590759412286 -19.707037813355228" fill="red" stroke="none" /><line stroke="#e1ed5e" stroke-width="0.3" x1="26.387840678322732" x2="22.057713659400548" y1="142.50000000000003" y2="145.00000000000006" /><path d="M 25.521815274538298 143.00000000000003 a86.0,86.0 0 0,1 -11.493303480769221,-40.785679425670985" fill="none" id="id45" stroke="none" /><text fill="#e1ed5e" style="font-size:6.75px; font-family:Arial;" text-anchor="middle"><textPath startOffset="21.40746469413373" xlink:href="#id45">September</textPath></text><line stroke="#e1ed5e" stroke-width="0.3" x1="15.003131293944662" x2="10.003315487706104" y1="100.72959589197737" y2="100.7725132973878" /><path d="M 14.003168132696942 100.73817937305945 a86.0,86.0 0 0,1 10.791469493833604,-42.45332614584628" fill="none" id="id46" stroke="none" /><text fill="#e1ed5e" style="font-size:6.75px; font-family:Arial;" text-anchor="middle"><textPath startOffset="22.145653131862435" xlink:href="#id46">October</textPath></text><path d="M 79.00696218219943 99.45929381324524 l -62.97911345340172 -1.6221185602642838 a84.0,84.0 0 0,0 0.04950125201259814,-1.4411749417434458 l 62.941987514392274 2.7029997665718684" fill="red" stroke="none" /><path d="M 80.16572619554312 93.10060997987247 l -55.80327250134257 -19.411274906354556 a80.08301630205727,80.08301630205727 0 0,0 0.4628029162278949,-1.294542124863107 l 55.46182941507073 20.366351987598584" fill="red" stroke="none" /><path d="M 80.41425534168474 92.42381321644754 l -36.76257688842452 -14.220554490541929 a60.41714385259029,60.41714385259029 0 0,0 0.3824731027869143,-0.9640820689458879 l 36.51304511067147 14.8495375767014" fill="red" stroke="none" /><path d="M 80.68587082218212 91.75594674310238 l -7.800917077051808 -3.3297476289905945 a29.481835091288147,29.481835091288147 0 0,0 0.2026751468164249,-0.46376039920311163 l 7.742608048218406 3.4631700979695728" fill="red" stroke="none" /><path d="M 81.29705330413844 90.45014215332179 l -28.072619944531098 -14.334079769013965 a52.5204351710845,52.5204351710845 0 0,0 0.41689203604497893,-0.799445448391639 l 27.82241983951118 14.813871460510091" fill="red" stroke="none" /><line stroke="#e1ed5e" stroke-width="0.3" x1="26.387840678322718" x2="22.05771365940052" y1="57.49999999999999" y2="54.99999999999999" /><path d="M 25.521815274538284 56.99999999999999 a86.0,86.0 0 0,1 29.574782752854787,-30.34633250058573" fill="none" id="id47" stroke="none" /><text fill="#e1ed5e" style="font-size:6.75px; font-family:Arial;" text-anchor="middle"><textPath startOffset="21.40746469413373" xlink:href="#id47">November</textPath></text><path d="M 82.78059297857968 87.97951657250589 l -15.375540716297587 -10.73332154464466 a39.75130511989121,39.75130511989121 0 0,0 0.3954022596796896,-0.5561827958210703 l 15.189023358087926 10.995681567175252" fill="red" stroke="none" /><path d="M 88.72937992617638 82.28071324371311 l -16.922365494848975 -26.604769288101565 a52.530623254454824,52.530623254454824 0 0,0 0.7650356632498243,-0.4774388356609046 l 16.46316570280945 26.891343920604005" fill="red" stroke="none" /><line stroke="#e1ed5e" stroke-width="0.3" x1="56.869717070023135" x2="54.33264160355391" y1="26.7553504044142" y2="22.446841604673864" /><path d="M 56.362301976729285 25.89364864446614 a86.0,86.0 0 0,1 42.16139366436587,-11.88097634709845" fill="none" id="id48" stroke="none" /><text fill="#e1ed5e" style="font-size:6.75px; font-family:Arial;" text-anchor="middle"><textPath startOffset="22.145653131862474" xlink:href="#id48">December</textPath></text><path d="M 89.97174638481275 81.54914285379989 l -18.843387948462237 -34.66971145015396 a60.45962698015769,60.45962698015769 0 0,0 0.9161394999266054,-0.4877926819483654 l 18.245459632749068 34.988074599824905" fill="red" stroke="none" /><path d="M 90.61103034731259 81.2157712731953 l -22.8898113216518 -45.794955920029174 a72.19688906621411,72.19688906621411 0 0,0 1.1133439313932372,-0.5445923072203057 l 22.100307140996506 46.1811419773467" fill="red" stroke="none" /><path d="M 91.26138138417902 80.90454125486306 l -16.407996017720944 -35.85443247054052 a60.430478834298945,60.430478834298945 0 0,0 0.9469933639707139,-0.42357808643479855 l 15.79008925089461 36.13081430788517" fill="red" stroke="none" /><path d="M 92.25597844496254 80.48000691201159 l -14.730030993804464 -37.129300472811885 a60.94444600540592,60.94444600540592 0 0,0 0.9757720568563283,-0.37744959356324953 l 14.090486674454606 37.376689954513175" fill="red" stroke="none" /><path d="M 92.93061703081487 80.22567764915836 l -13.262407639829489 -37.09731456923502 a60.3967283496204,60.3967283496204 0 0,0 0.979273209067219,-0.34064205587897006 l 12.623628658717266 37.31951505768257" fill="red" stroke="none" /><path d="M 94.30408787586887 79.78721728523814 l -12.420890762612627 -44.07735945307957 a66.79401864537266,66.79401864537266 0 0,0 1.1062953329131686,-0.30152571246230697 l 11.66241402876478 44.28408565968602" fill="red" stroke="none" /><path d="M 95.00130118170881 79.60360301121753 l -8.186164144758822 -33.4023432459802 a55.390839154158684,55.390839154158684 0 0,0 0.9254697350742356,-0.21840833755407696 l 7.611562255944681 33.53794772718051" fill="red" stroke="none" /><path d="M 95.70440661134978 79.44403061299748 l -12.090187730364157 -57.85592498701846 a80.10567397009322,80.10567397009322 0 0,0 1.3484589179684623,-0.26972954938823956 l 11.095232326864718 58.054943933069566" fill="red" stroke="none" /><path d="M 97.12497278360702 79.19773525538626 l -2.7001373880818336 -19.53684906822478 a40.72255595578608,40.72255595578608 0 0,0 0.6932960430231742,-0.089761053039688 l 2.3643635231678655 19.580321717464862" fill="red" stroke="none" /><path d="M 99.63950707515114 79.00309439819443 l -0.3153046138324925 -18.36491302909849 a39.3676195399909,39.3676195399909 0 0,0 0.6757975386813401,-0.0058009090868451595 l 4.498769295521247e-15 18.367619539990898" fill="red" stroke="none" /></svg>