<?xml version="1.0" encoding="utf-8" ?>
<svg baseProfile="full" height="200mm" version="1.1" viewBox="0,0,200,200" width="200mm" xmlns="http://www.w3.org/2000/svg" xmlns:ev="http://www.w3.org/2001/xml-events" xmlns:xlink="http://www.w3.org/1999/xlink"><defs /><rect fill="#1a1a1a" height="200" width="200" x="0" y="0" /><rect fill="#1a1a1a" height="200" width="180" x="10" y="0" /><text alignment-baseline="middle" fill="#e1ed5e" style="dominant-baseline: central; font-size:9.0px; font-family:Arial;" text-anchor="middle" x="100.0" y="100.0">2021</text><line stroke="#e1ed5e" stroke-width="0.3" x1="100.0" x2="100.0" y1="15.0" y2="10.0" /><path d="M 100.0 14.0 a86.0,86.0 0 0,1 42.46469731375804,11.215312516191453" fill="none" id="id49" stroke="none" /><text fill="#e1ed5e" style="font-size:6.75px; font-family:Arial;" text-anchor="middle"><textPath startOffset="22.20632615414155" xlink:href="#id49">January</textPath></text><path d="M 107.76421540070413 80.48803036053334 l 8.918033052662647 -22.411587158121982 a45.120749417762326,45.120749417762326 0 0,0 0.7191734593516869,0.2933689114397166 l -9.30249038160272 22.254757360498687" fill="red" stroke="none" /><line stroke="#e1ed5e" stroke-width="0.3" x1="143.23703022742887" x2="145.7803849466894" y1="26.81831364943548" y2="22.513508569990506" /><path d="M 143.74570117128098 25.957352633546492 a86.0,86.0 0 0,1 28.547481713284135,27.462654790039103" fill="none" id="id50" stroke="none" /><text fill="#e1ed5e" style="font-size:6.75px; font-family:Arial;" text-anchor="middle"><textPath startOffset="19.985693538727396" xlink:href="#id50">February</textPath></text><path d="M 116.15771136456269 86.58626213691792 l 21.341294553261235 -17.71702219066191 a48.737046138935995,48.737046138935995 0 0,0 0.5303089778327862,0.6500961023836361 l -21.643102023170428 17.347041918670172" fill="red" stroke="none" /><line stroke="#e1ed5e" stroke-width="0.3" x1="172.23445277983987" x2="176.4835382374775" y1="55.19839476539836" y2="52.563006222186495" /><path d="M 173.08426987136738 54.67131705675599 a86.0,86.0 0 0,1 12.851231095245387,41.99856678651699" fill="none" id="id51" stroke="none" /><text fill="#e1ed5e" style="font-size:6.75px; font-family:Arial;" text-anchor="middle"><textPath startOffset="22.20632615414155" xlink:href="#id51">March</textPath></text><path d="M 120.87857604477298 97.74499172005257 l 22.215554479683384 -2.3994097675952846 a43.3447539273229,43.3447539273229 0 0,0 0.07373329508954671,0.742484219202528 l -22.253564900455157 2.0166500176883217" fill="red" stroke="none" /><line stroke="#e1ed5e" stroke-width="0.3" x1="184.98032266829074" x2="189.97916517819016" y1="98.17113171792111" y2="98.06355123074" /><path d="M 185.9800911702706 98.14961562048488 a86.0,86.0 0 0,1 -9.607161424134198,41.387399972396054" fill="none" id="id52" stroke="none" /><text fill="#e1ed5e" style="font-size:6.75px; font-family:Arial;" text-anchor="middle"><textPath startOffset="21.466115282336823" xlink:href="#id52">April</textPath></text><path d="M 120.13307415673323 105.97154293290107 l 34.166974207870936 10.134048669432344 a56.6381967691372,56.6381967691372 0 0,0 -0.2852764224621128,0.9322998545895216 l -33.987471012902695 -10.720675496573923" fill="red" stroke="none" /><path d="M 119.67450827220406 107.3425965602758 l 39.84046961433646 14.868605156617102 a63.52456276546824,63.52456276546824 0 0,0 -0.39114711199506513,1.0211616817548024 l -39.57862822274789 -15.552190405205048" fill="red" stroke="none" /><path d="M 119.26925614724726 108.34839909993367 l 20.463448335353725 8.865782485786891 a43.30145324544965,43.30145324544965 0 0,0 -0.30220066748631447,0.6813827265353783 l -20.307806583136138 -9.216713548814957" fill="red" stroke="none" /><line stroke="#e1ed5e" stroke-width="0.3" x1="174.80103733775053" x2="179.2010983576182" y1="140.37084112569926" y2="142.7455964860345" /><path d="M 175.68104954172406 140.8457921977663 a86.0,86.0 0 0,1 -30.038265399797805,32.042727171017184" fill="none" id="id53" stroke="none" /><text fill="#e1ed5e" style="font-size:6.75px; font-family:Arial;" text-anchor="middle"><textPath startOffset="22.206326154141568" xlink:href="#id53">May</textPath></text><path d="M 117.14729908036423 112.12312394758627 l 18.225356055984538 12.885309191848501 a43.32027769399269,43.32027769399269 0 0,0 -0.43571990708912756,0.605176841806782 l -18.000856356519808 -13.197119639106413" fill="red" stroke="none" /><path d="M 116.71984013943494 112.70617746262583 l 19.52387526833538 14.837093049265524 a45.5218481286807,45.5218481286807 0 0,0 -0.47948202255707617,0.6197951489821076 l -19.265586428560237 -15.170966192360885" fill="red" stroke="none" /><path d="M 116.27256486870786 113.27417163493432 l 24.163855174781453 19.711407730723334 a52.183833818737426,52.183833818737426 0 0,0 -0.5737836176017648,0.6911593303489304 l -23.820975557286147 -20.124428318186034" fill="red" stroke="none" /><path d="M 112.04921762599082 117.19931262002967 l 14.061836553484692 20.072168202311467 a45.50769641559161,45.50769641559161 0 0,0 -0.6454359082883739,0.44393670311957295 l -13.714243760573435 -20.311245694796135" fill="red" stroke="none" /><path d="M 111.45004920935366 117.60387380957326 l 19.44871083263342 29.90141308535786 a56.66997137022404,56.66997137022404 0 0,0 -0.8223034073327006,0.5248329404988772 l -18.931125623253788 -30.231760454680547" fill="red" stroke="none" /><line stroke="#e1ed5e" stroke-width="0.3" x1="143.8653032363475" x2="146.44561519142675" y1="172.8068346515853" y2="177.08958963109032" /><path d="M 144.38136562736335 173.6633856474863 a86.0,86.0 0 0,1 -40.68145358897372,12.25698825130547" fill="none" id="id54" stroke="none" /><text fill="#e1ed5e" style="font-size:6.75px; font-family:Arial;" text-anchor="middle"><textPath startOffset="21.466115282336833" xlink:href="#id54">June</textPath></text><path d="M 108.92500713936063 119.00905698771935 l 17.03874628007182 36.29022296338233 a61.09113564777959,61.09113564777959 0 0,0 -0.9557330112004513,0.43873014969810026 l -16.411545273103947 -36.5781401834145" fill="red" stroke="none" /><path d="M 107.59598834532513 119.57807347666477 l 16.115841317158534 41.537336696913385 a65.55413203320856,65.55413203320856 0 0,0 -1.0555144853638385,0.39910526158031795 l -15.39845661103442 -41.80859020860033" fill="red" stroke="none" /><path d="M 106.57524785965236 119.94407469862006 l 11.175862385782699 33.89868169248493 a56.69342405197862,56.69342405197862 0 0,0 -0.9294445607049584,0.2975787974458917 l -10.5906964799868 -34.08603333659053" fill="red" stroke="none" /><path d="M 105.53697534728816 120.25689768951611 l 7.048425265139377 25.786502650415045 a47.732452518579684,47.732452518579684 0 0,0 -0.7944261115852386,0.20981515649623025 l -6.603508710742641 -25.90400915621486" fill="red" stroke="none" /><path d="M 104.48393922423573 120.51570834832081 l 9.189814054081971 42.04685556169211 a64.03940920800844,64.03940920800844 0 0,0 -1.0789376087053093,0.22610186621807113 l -8.464684983947283 -42.198813408636724" fill="red" stroke="none" /><path d="M 103.7750983002368 120.6578951692458 l 4.009040106620392 21.938059267667526 a43.30136424096481,43.30136424096481 0 0,0 -0.7343726386230006,0.12768009646572445 l -3.6308184965253414 -22.003817942654255" fill="red" stroke="none" /><path d="M 103.06178313531738 120.77559828337769 l 6.491953332529937 44.05087119179533 a65.5266741496363,65.5266741496363 0 0,0 -1.1172965965524653,0.15484712745239754 l -5.732728144790641 -44.15609288474033" fill="red" stroke="none" /><path d="M 101.98527174616119 120.90594882070398 l 3.7868461956560235 39.877469122977445 a61.05686892111731,61.05686892111731 0 0,0 -1.0471418229928697,0.09035180263082657 l -3.0998600549216118 -39.936745177886934" fill="red" stroke="none" /><path d="M 100.90346689309514 120.98055641714683 l 1.5335717723714195 35.61302504373463 a56.646029163802865,56.646029163802865 0 0,0 -0.9745265473964805,0.0335646647260271 l -0.9203248733002869 -35.63414650688675" fill="red" stroke="none" /><line stroke="#e1ed5e" stroke-width="0.3" x1="102.19456741930631" x2="102.32365962044197" y1="184.97166512339345" y2="189.96999836594603" /><path d="M 102.22038585953345 185.97133177190398 a86.0,86.0 0 0,1 -42.740103519485714,-10.115201625700543" fill="none" id="id55" stroke="none" /><text fill="#e1ed5e" style="font-size:6.75px; font-family:Arial;" text-anchor="middle"><textPath startOffset="22.20632615414155" xlink:href="#id55">July</textPath></text><path d="M 99.09653310690486 120.98055641714683 l -1.5344237630713475 35.63281020585128 a56.66583266167912,56.66583266167912 0 0,0 -0.9741448430547994,-0.05035216130703161 l 2.147556674539636 -35.601118237782046" fill="red" stroke="none" /><path d="M 98.37488393609728 120.93702456842531 l -2.7600773257202005 35.55918747155818 a56.66614417737605,56.66614417737605 0 0,0 -0.9718397055790017,-0.08385441908557259 l 3.371761349040744 -35.506408800193945" fill="red" stroke="none" /><path d="M 97.2962882734958 120.8252237178851 l -5.295303160892733 40.78684569016466 a62.12915045219223,62.12915045219223 0 0,0 -1.0593653538467527,-0.14681838508406483 l 5.996597105926317 -40.68965273958799" fill="red" stroke="none" /><path d="M 95.86986931433489 120.58985236759428 l -4.3829053883776865 21.85000469865218 a43.285254429209296,43.285254429209296 0 0,0 -0.7292710767264621,-0.15282584469789823 l 4.758367926533535 -21.771322873227742" fill="red" stroke="none" /><path d="M 94.11515582081647 120.15858648285463 l -12.46922234110798 42.713432893654335 a65.49627911806445,65.49627911806445 0 0,0 -1.0795191087528024,-0.32525025203693925 l 13.202616424301027 -42.49246727251167" fill="red" stroke="none" /><path d="M 93.08242187328487 119.8279376855182 l -14.691124447772825 42.10934733872769 a65.59850076889985,65.59850076889985 0 0,0 -1.0629469839844028,-0.3811349706145567 l 15.413790992386955 -41.85022482707317" fill="red" stroke="none" /><path d="M 92.06813273071674 119.44442032107085 l -13.462864656232462 33.003275296250365 a56.643581540469846,56.643581540469846 0 0,0 -0.8996310038109235,-0.37604583255520213 l 14.028967119540848 -32.76664442067519" fill="red" stroke="none" /><path d="M 91.07499286063937 119.00905698771935 l -17.413119468777236 37.08758717471058 a61.97201303421233,61.97201303421233 0 0,0 -0.9617092374463657,-0.4616788769483761 l 18.048941374223844 -36.78235402126264" fill="red" stroke="none" /><path d="M 90.42595943632237 118.69057910512821 l -16.25396171251135 31.731216839833706 a56.65194796204453,56.65194796204453 0 0,0 -0.864101634373258,-0.4520571351387367 l 16.797754249411103 -31.446730285750256" fill="red" stroke="none" /><line stroke="#e1ed5e" stroke-width="0.3" x1="58.666819895761336" x2="56.23545636021788" y1="174.27360380694188" y2="178.64263932499728" /><path d="M 58.180547188652646 175.14741091055294 a86.0,86.0 0 0,1 -31.652253787137756,-30.449443065178592" fill="none" id="id56" stroke="none" /><text fill="#e1ed5e" style="font-size:6.75px; font-family:Arial;" text-anchor="middle"><textPath startOffset="22.20632615414155" xlink:href="#id56">August</textPath></text><path d="M 82.44556493220864 111.52570212397912 l -52.6633052033741 34.57710637193735 a84.0,84.0 0 0,0 -0.7831805464918173,-1.2155136003142069 l 53.25069061324296 -33.6654711717017" fill="red" stroke="none" /><path d="M 82.05923443525364 110.91462005526583 l -23.2139851666623 14.122687638289634 a48.172401687129465,48.172401687129465 0 0,0 -0.4248785740953875,-0.7121209291537923 l 23.45364461645592 -13.721004615249731" fill="red" stroke="none" /><line stroke="#e1ed5e" stroke-width="0.3" x1="26.63291911575756" x2="22.317208475507996" y1="142.92168965132927" y2="145.44649492493687" /><path d="M 25.769776987707644 143.4266507060508 a86.0,86.0 0 0,1 -11.730757126820373,-40.83630448921669" fill="none" id="id57" stroke="none" /><text fill="#e1ed5e" style="font-size:6.75px; font-family:Arial;" text-anchor="middle"><textPath startOffset="21.46611528233685" xlink:href="#id57">September</textPath></text><path d="M 81.69416730710424 110.29060199501025 l -31.077368833749627 17.470105790072314 a56.65119142392342,56.65119142392342 0 0,0 -0.4705382960481036,-0.8541636844144093 l 31.373483539249246 -16.93257158726008" fill="red" stroke="none" /><path d="M 81.18737489456691 109.33194174019688 l -39.07657657239791 19.383809220471083 a64.62007446708564,64.62007446708564 0 0,0 -0.48571753866399137,-1.0007219944305699 l 39.404447367676624 -18.70829827007523" fill="red" stroke="none" /><path d="M 80.87730276802145 108.67885076344099 l -35.22041682588939 15.984813112394475 a59.67805594426341,59.67805594426341 0 0,0 -0.4164929116446305,-0.9390815648411336 l 35.4903508222653 -15.376183211060646" fill="red" stroke="none" /><path d="M 80.45479744820244 107.68017299344265 l -41.62320922756128 16.355596549217083 a65.72132695797504,65.72132695797504 0 0,0 -0.40467350135102353,-1.056474816069764 l 41.89857700850582 -15.636698166314162" fill="red" stroke="none" /><path d="M 80.20201598880116 107.00284435728193 l -46.205024920973074 16.343411423247943 a70.0103195755475,70.0103195755475 0 0,0 -0.39208835765138894,-1.1395922998268517 l 46.47950410956769 -15.545646420331796" fill="red" stroke="none" /><path d="M 79.97269907076064 106.31721596034903 l -36.25449641895651 11.435763821667773 a59.015328550166394,59.015328550166394 0 0,0 -0.2972496082077243,-0.9714289183700755 l 36.44597279967037 -10.81000793074565" fill="red" stroke="none" /><path d="M 79.76711848015287 105.62410040840567 l -23.329329520332713 6.484814906588012 a45.21384810890193,45.21384810890193 0 0,0 -0.2019808603374711,-0.7516459200400798 l 23.43749845701196 -6.082278053372393" fill="red" stroke="none" /><path d="M 79.07016306316243 101.71520430193888 l -38.30909778892152 3.139438187179861 a59.437521323991156,59.437521323991156 0 0,0 -0.0747878027543713,-1.0204201493974019 l 38.357462150340226 -2.4795449012856987" fill="red" stroke="none" /><path d="M 79.0235259727143 100.99374915477108 l -38.89775029634573 1.842759961908233 a59.941375712653965,59.941375712653965 0 0,0 -0.03995482923533264,-1.0310566072711056 l 38.92370725843226 -1.1729261076231308" fill="red" stroke="none" /><line stroke="#e1ed5e" stroke-width="0.3" x1="15.007084014347285" x2="10.007500721073583" y1="101.09737516637583" y2="101.16192664675087" /><path d="M 14.007167355692545 101.11028546245083 a86.0,86.0 0 0,1 10.666146001902534,-42.60595125391555" fill="none" id="id58" stroke="none" /><text fill="#e1ed5e" style="font-size:6.75px; font-family:Arial;" text-anchor="middle"><textPath startOffset="22.20632615414155" xlink:href="#id58">October</textPath></text><path d="M 80.803312248108 91.48605970444005 l -31.272875485625516 -13.86986120711652 a55.21060933459258,55.21060933459258 0 0,0 0.3927779577918896,-0.8654341653031615 l 31.029495210870273 14.406117381261753" fill="red" stroke="none" /><path d="M 81.10775173730289 90.83032412892265 l -32.07811697167912 -15.569662810624607 a56.65697671543782,56.65697671543782 0 0,0 0.4333988574127012,-0.8737056501872448 l 31.805358101313004 16.119528049310812" fill="red" stroke="none" /><line stroke="#e1ed5e" stroke-width="0.3" x1="26.266209847984243" x2="21.928928074336255" y1="57.711370442889674" y2="55.22380399835377" /><path d="M 25.398753493254645 57.213857153982495 a86.0,86.0 0 0,1 29.58750427330803,-30.492523968695096" fill="none" id="id59" stroke="none" /><text fill="#e1ed5e" style="font-size:6.75px; font-family:Arial;" text-anchor="middle"><textPath startOffset="21.46611528233685" xlink:href="#id59">November</textPath></text><path d="M 81.78341655067845 89.55222093294921 l -38.60039445917721 -22.138530769638635 a65.49837072345812,65.49837072345812 0 0,0 0.5693378054058753,-0.9731828629998119 l 38.21359697930101 22.79969304499234" fill="red" stroke="none" /><path d="M 82.54541684631803 88.32363383020206 l -29.628931089362933 -19.82048185127431 a56.64723072434816,56.64723072434816 0 0,0 0.5491423934807298,-0.8057987018206724 l 29.28336423021346 20.327558576365398" fill="red" stroke="none" /><path d="M 83.17141714833178 87.43820079747576 l -17.894233767416857 -13.35726088468801 a43.329801173870266,43.329801173870266 0 0,0 0.4512985724776704,-0.5938560207565727 l 17.661659254715076 13.66330168132561" fill="red" stroke="none" /><line stroke="#e1ed5e" stroke-width="0.3" x1="56.762969772571076" x2="54.21961505331055" y1="26.818313649435495" y2="22.513508569990535" /><path d="M 56.25429882871897 25.957352633546506 a86.0,86.0 0 0,1 42.265352541879196,-11.944610805530505" fill="none" id="id60" stroke="none" /><text fill="#e1ed5e" style="font-size:6.75px; font-family:Arial;" text-anchor="middle"><textPath startOffset="22.20632615414155" xlink:href="#id60">December</textPath></text><path d="M 91.90106846888425 80.62456947434976 l -14.867058572000028 -35.56711886942883 a59.549310956946556,59.549310956946556 0 0,0 0.9491483301041622,-0.3871814355447663 l 14.252626372307486 35.817761191157174" fill="red" stroke="none" /><path d="M 95.692805502759 79.44645832069477 l -7.729169019485717 -36.88289388606762 a58.68405385760271,58.68405385760271 0 0,0 0.9904571388463844,-0.19867638431559323 l 7.093145471172195 37.010474226460424" fill="red" stroke="none" /><path d="M 98.19473922651362 79.07773832637324 l -3.09535633163708 -35.87396131061892 a57.00725386551422,57.00725386551422 0 0,0 0.9783796938401583,-0.07594109429731122 l 2.4773864484345873 35.92192766710469" fill="red" stroke="none" /></svg>